<?xml version="1.0" encoding="UTF-8" standalone="no"?>
<!DOCTYPE svg PUBLIC "-//W3C//DTD SVG 1.1//EN"
 "http://www.w3.org/Graphics/SVG/1.1/DTD/svg11.dtd">
<!-- Generated by graphviz version 5.0.0 (0)
 -->
<!-- Pages: 1 -->
<svg width="1543pt" height="210pt"
 viewBox="0.00 0.00 1543.00 210.00" xmlns="http://www.w3.org/2000/svg" xmlns:xlink="http://www.w3.org/1999/xlink">
<g id="graph0" class="graph" transform="scale(1 1) rotate(0) translate(4 206)">
<polygon fill="white" stroke="transparent" points="-4,4 -4,-206 1539,-206 1539,4 -4,4"/>
<!-- 140726332285592 -->
<g id="node1" class="node">
<title>140726332285592</title>
<polygon fill="none" stroke="black" points="1353,-54.5 1353,-90.5 1535,-90.5 1535,-54.5 1353,-54.5"/>
<text text-anchor="middle" x="1444" y="-68.8" font-family="Times,serif" font-size="14.00">o: value: 0.7071, grad: 1.0000</text>
</g>
<!-- 140726332285592tanh -->
<g id="node2" class="node">
<title>140726332285592tanh</title>
<ellipse fill="none" stroke="black" cx="1290" cy="-72.5" rx="27" ry="18"/>
<text text-anchor="middle" x="1290" y="-68.8" font-family="Times,serif" font-size="14.00">tanh</text>
</g>
<!-- 140726332285592tanh&#45;&gt;140726332285592 -->
<g id="edge1" class="edge">
<title>140726332285592tanh&#45;&gt;140726332285592</title>
<path fill="none" stroke="black" d="M1317.13,-72.5C1324.67,-72.5 1333.39,-72.5 1342.64,-72.5"/>
<polygon fill="black" stroke="black" points="1342.87,-76 1352.87,-72.5 1342.87,-69 1342.87,-76"/>
</g>
<!-- 140726332285488 -->
<g id="node3" class="node">
<title>140726332285488</title>
<polygon fill="none" stroke="black" points="1045,-54.5 1045,-90.5 1227,-90.5 1227,-54.5 1045,-54.5"/>
<text text-anchor="middle" x="1136" y="-68.8" font-family="Times,serif" font-size="14.00">n: value: 0.8814, grad: 0.5000</text>
</g>
<!-- 140726332285488&#45;&gt;140726332285592tanh -->
<g id="edge2" class="edge">
<title>140726332285488&#45;&gt;140726332285592tanh</title>
<path fill="none" stroke="black" d="M1227.18,-72.5C1236.14,-72.5 1244.83,-72.5 1252.73,-72.5"/>
<polygon fill="black" stroke="black" points="1252.96,-76 1262.96,-72.5 1252.96,-69 1252.96,-76"/>
</g>
<!-- 140726332285488+ -->
<g id="node4" class="node">
<title>140726332285488+</title>
<ellipse fill="none" stroke="black" cx="982" cy="-72.5" rx="27" ry="18"/>
<text text-anchor="middle" x="982" y="-68.8" font-family="Times,serif" font-size="14.00">+</text>
</g>
<!-- 140726332285488+&#45;&gt;140726332285488 -->
<g id="edge3" class="edge">
<title>140726332285488+&#45;&gt;140726332285488</title>
<path fill="none" stroke="black" d="M1009.13,-72.5C1016.67,-72.5 1025.39,-72.5 1034.64,-72.5"/>
<polygon fill="black" stroke="black" points="1034.87,-76 1044.87,-72.5 1034.87,-69 1034.87,-76"/>
</g>
<!-- 140726332285384 -->
<g id="node5" class="node">
<title>140726332285384</title>
<polygon fill="none" stroke="black" points="664,-82.5 664,-118.5 919,-118.5 919,-82.5 664,-82.5"/>
<text text-anchor="middle" x="791.5" y="-96.8" font-family="Times,serif" font-size="14.00">x1w1x + 2w2: value: &#45;6.0000, grad: 0.5000</text>
</g>
<!-- 140726332285384&#45;&gt;140726332285488+ -->
<g id="edge4" class="edge">
<title>140726332285384&#45;&gt;140726332285488+</title>
<path fill="none" stroke="black" d="M913.75,-82.49C925.07,-80.81 935.82,-79.21 945.27,-77.81"/>
<polygon fill="black" stroke="black" points="945.97,-81.24 955.35,-76.31 944.95,-74.32 945.97,-81.24"/>
</g>
<!-- 140726332285072 -->
<g id="node6" class="node">
<title>140726332285072</title>
<polygon fill="none" stroke="black" points="700.5,-27.5 700.5,-63.5 882.5,-63.5 882.5,-27.5 700.5,-27.5"/>
<text text-anchor="middle" x="791.5" y="-41.8" font-family="Times,serif" font-size="14.00">b: value: 6.8814, grad: 0.5000</text>
</g>
<!-- 140726332285072&#45;&gt;140726332285488+ -->
<g id="edge5" class="edge">
<title>140726332285072&#45;&gt;140726332285488+</title>
<path fill="none" stroke="black" d="M882.61,-58.41C904.92,-61.6 927.55,-64.84 945.47,-67.41"/>
<polygon fill="black" stroke="black" points="945.04,-70.88 955.43,-68.84 946.03,-63.96 945.04,-70.88"/>
</g>
<!-- 140726332285384+ -->
<g id="node7" class="node">
<title>140726332285384+</title>
<ellipse fill="none" stroke="black" cx="601" cy="-100.5" rx="27" ry="18"/>
<text text-anchor="middle" x="601" y="-96.8" font-family="Times,serif" font-size="14.00">+</text>
</g>
<!-- 140726332285384+&#45;&gt;140726332285384 -->
<g id="edge6" class="edge">
<title>140726332285384+&#45;&gt;140726332285384</title>
<path fill="none" stroke="black" d="M628.21,-100.5C635.56,-100.5 644.1,-100.5 653.34,-100.5"/>
<polygon fill="black" stroke="black" points="653.62,-104 663.62,-100.5 653.62,-97 653.62,-104"/>
</g>
<!-- 140726332285176 -->
<g id="node8" class="node">
<title>140726332285176</title>
<polygon fill="none" stroke="black" points="322,-110.5 322,-146.5 538,-146.5 538,-110.5 322,-110.5"/>
<text text-anchor="middle" x="430" y="-124.8" font-family="Times,serif" font-size="14.00">x1*w1: value: &#45;6.0000, grad: 0.5000</text>
</g>
<!-- 140726332285176&#45;&gt;140726332285384+ -->
<g id="edge7" class="edge">
<title>140726332285176&#45;&gt;140726332285384+</title>
<path fill="none" stroke="black" d="M538.03,-110.77C547.41,-109.21 556.4,-107.72 564.47,-106.39"/>
<polygon fill="black" stroke="black" points="565.22,-109.81 574.51,-104.72 564.08,-102.9 565.22,-109.81"/>
</g>
<!-- 140726332285280 -->
<g id="node9" class="node">
<title>140726332285280</title>
<polygon fill="none" stroke="black" points="324,-55.5 324,-91.5 536,-91.5 536,-55.5 324,-55.5"/>
<text text-anchor="middle" x="430" y="-69.8" font-family="Times,serif" font-size="14.00">x2*w2: value: 0.0000, grad: 0.5000</text>
</g>
<!-- 140726332285280&#45;&gt;140726332285384+ -->
<g id="edge8" class="edge">
<title>140726332285280&#45;&gt;140726332285384+</title>
<path fill="none" stroke="black" d="M536.11,-90.29C546.23,-91.91 555.92,-93.46 564.57,-94.84"/>
<polygon fill="black" stroke="black" points="564.13,-98.31 574.56,-96.43 565.23,-91.4 564.13,-98.31"/>
</g>
<!-- 140726332285176* -->
<g id="node10" class="node">
<title>140726332285176*</title>
<ellipse fill="none" stroke="black" cx="259" cy="-128.5" rx="27" ry="18"/>
<text text-anchor="middle" x="259" y="-124.8" font-family="Times,serif" font-size="14.00">*</text>
</g>
<!-- 140726332285176*&#45;&gt;140726332285176 -->
<g id="edge9" class="edge">
<title>140726332285176*&#45;&gt;140726332285176</title>
<path fill="none" stroke="black" d="M286.04,-128.5C293.59,-128.5 302.38,-128.5 311.8,-128.5"/>
<polygon fill="black" stroke="black" points="311.83,-132 321.83,-128.5 311.83,-125 311.83,-132"/>
</g>
<!-- 140726332284656 -->
<g id="node11" class="node">
<title>140726332284656</title>
<polygon fill="none" stroke="black" points="1.5,-165.5 1.5,-201.5 194.5,-201.5 194.5,-165.5 1.5,-165.5"/>
<text text-anchor="middle" x="98" y="-179.8" font-family="Times,serif" font-size="14.00">x1: value: 2.0000, grad: &#45;1.5000</text>
</g>
<!-- 140726332284656&#45;&gt;140726332285176* -->
<g id="edge10" class="edge">
<title>140726332284656&#45;&gt;140726332285176*</title>
<path fill="none" stroke="black" d="M168.82,-165.45C178.03,-162.67 187.29,-159.66 196,-156.5 206.52,-152.69 217.74,-147.86 227.71,-143.3"/>
<polygon fill="black" stroke="black" points="229.24,-146.44 236.81,-139.04 226.27,-140.1 229.24,-146.44"/>
</g>
<!-- 140726332284864 -->
<g id="node12" class="node">
<title>140726332284864</title>
<polygon fill="none" stroke="black" points="0,-110.5 0,-146.5 196,-146.5 196,-110.5 0,-110.5"/>
<text text-anchor="middle" x="98" y="-124.8" font-family="Times,serif" font-size="14.00">w1: value: &#45;3.0000, grad: 1.0000</text>
</g>
<!-- 140726332284864&#45;&gt;140726332285176* -->
<g id="edge11" class="edge">
<title>140726332284864&#45;&gt;140726332285176*</title>
<path fill="none" stroke="black" d="M196.07,-128.5C205.05,-128.5 213.71,-128.5 221.57,-128.5"/>
<polygon fill="black" stroke="black" points="221.75,-132 231.75,-128.5 221.75,-125 221.75,-132"/>
</g>
<!-- 140726332285280* -->
<g id="node13" class="node">
<title>140726332285280*</title>
<ellipse fill="none" stroke="black" cx="259" cy="-73.5" rx="27" ry="18"/>
<text text-anchor="middle" x="259" y="-69.8" font-family="Times,serif" font-size="14.00">*</text>
</g>
<!-- 140726332285280*&#45;&gt;140726332285280 -->
<g id="edge12" class="edge">
<title>140726332285280*&#45;&gt;140726332285280</title>
<path fill="none" stroke="black" d="M286.04,-73.5C294.02,-73.5 303.37,-73.5 313.41,-73.5"/>
<polygon fill="black" stroke="black" points="313.64,-77 323.64,-73.5 313.64,-70 313.64,-77"/>
</g>
<!-- 140726332284760 -->
<g id="node14" class="node">
<title>140726332284760</title>
<polygon fill="none" stroke="black" points="4,-55.5 4,-91.5 192,-91.5 192,-55.5 4,-55.5"/>
<text text-anchor="middle" x="98" y="-69.8" font-family="Times,serif" font-size="14.00">x2: value: 0.0000, grad: 0.5000</text>
</g>
<!-- 140726332284760&#45;&gt;140726332285280* -->
<g id="edge13" class="edge">
<title>140726332284760&#45;&gt;140726332285280*</title>
<path fill="none" stroke="black" d="M192.41,-73.5C202.81,-73.5 212.88,-73.5 221.88,-73.5"/>
<polygon fill="black" stroke="black" points="221.91,-77 231.91,-73.5 221.91,-70 221.91,-77"/>
</g>
<!-- 140726332284968 -->
<g id="node15" class="node">
<title>140726332284968</title>
<polygon fill="none" stroke="black" points="2.5,-0.5 2.5,-36.5 193.5,-36.5 193.5,-0.5 2.5,-0.5"/>
<text text-anchor="middle" x="98" y="-14.8" font-family="Times,serif" font-size="14.00">w2: value: 1.0000, grad: 0.0000</text>
</g>
<!-- 140726332284968&#45;&gt;140726332285280* -->
<g id="edge14" class="edge">
<title>140726332284968&#45;&gt;140726332285280*</title>
<path fill="none" stroke="black" d="M168.82,-36.55C178.03,-39.33 187.29,-42.34 196,-45.5 206.52,-49.31 217.74,-54.14 227.71,-58.7"/>
<polygon fill="black" stroke="black" points="226.27,-61.9 236.81,-62.96 229.24,-55.56 226.27,-61.9"/>
</g>
</g>
</svg>
