<?xml version="1.0" encoding="UTF-8" standalone="no"?>
<!DOCTYPE svg PUBLIC "-//W3C//DTD SVG 1.1//EN"
 "http://www.w3.org/Graphics/SVG/1.1/DTD/svg11.dtd">
<!-- Generated by graphviz version 5.0.0 (0)
 -->
<!-- Pages: 1 -->
<svg width="1523pt" height="210pt"
 viewBox="0.00 0.00 1523.00 210.00" xmlns="http://www.w3.org/2000/svg" xmlns:xlink="http://www.w3.org/1999/xlink">
<g id="graph0" class="graph" transform="scale(1 1) rotate(0) translate(4 206)">
<polygon fill="white" stroke="transparent" points="-4,4 -4,-206 1519,-206 1519,4 -4,4"/>
<!-- 94547497224352 -->
<g id="node1" class="node">
<title>94547497224352</title>
<polygon fill="none" stroke="black" points="1337,-54.5 1337,-90.5 1515,-90.5 1515,-54.5 1337,-54.5"/>
<text text-anchor="middle" x="1426" y="-68.8" font-family="Times,serif" font-size="14.00">o value: 0.7071, grad: 1.0000</text>
</g>
<!-- 94547497224352tanh -->
<g id="node2" class="node">
<title>94547497224352tanh</title>
<ellipse fill="none" stroke="black" cx="1274" cy="-72.5" rx="27" ry="18"/>
<text text-anchor="middle" x="1274" y="-68.8" font-family="Times,serif" font-size="14.00">tanh</text>
</g>
<!-- 94547497224352tanh&#45;&gt;94547497224352 -->
<g id="edge1" class="edge">
<title>94547497224352tanh&#45;&gt;94547497224352</title>
<path fill="none" stroke="black" d="M1301.13,-72.5C1308.65,-72.5 1317.33,-72.5 1326.54,-72.5"/>
<polygon fill="black" stroke="black" points="1326.7,-76 1336.7,-72.5 1326.7,-69 1326.7,-76"/>
</g>
<!-- 94547497224224 -->
<g id="node3" class="node">
<title>94547497224224</title>
<polygon fill="none" stroke="black" points="1033,-54.5 1033,-90.5 1211,-90.5 1211,-54.5 1033,-54.5"/>
<text text-anchor="middle" x="1122" y="-68.8" font-family="Times,serif" font-size="14.00">n value: 0.8814, grad: 0.5000</text>
</g>
<!-- 94547497224224&#45;&gt;94547497224352tanh -->
<g id="edge2" class="edge">
<title>94547497224224&#45;&gt;94547497224352tanh</title>
<path fill="none" stroke="black" d="M1211.12,-72.5C1220.07,-72.5 1228.75,-72.5 1236.65,-72.5"/>
<polygon fill="black" stroke="black" points="1236.89,-76 1246.89,-72.5 1236.89,-69 1236.89,-76"/>
</g>
<!-- 94547497224224+ -->
<g id="node4" class="node">
<title>94547497224224+</title>
<ellipse fill="none" stroke="black" cx="970" cy="-72.5" rx="27" ry="18"/>
<text text-anchor="middle" x="970" y="-68.8" font-family="Times,serif" font-size="14.00">+</text>
</g>
<!-- 94547497224224+&#45;&gt;94547497224224 -->
<g id="edge3" class="edge">
<title>94547497224224+&#45;&gt;94547497224224</title>
<path fill="none" stroke="black" d="M997.13,-72.5C1004.65,-72.5 1013.33,-72.5 1022.54,-72.5"/>
<polygon fill="black" stroke="black" points="1022.7,-76 1032.7,-72.5 1022.7,-69 1022.7,-76"/>
</g>
<!-- 94547497233504 -->
<g id="node5" class="node">
<title>94547497233504</title>
<polygon fill="none" stroke="black" points="656,-82.5 656,-118.5 907,-118.5 907,-82.5 656,-82.5"/>
<text text-anchor="middle" x="781.5" y="-96.8" font-family="Times,serif" font-size="14.00">x1w1 + x2w2 value: &#45;6.0000, grad: 0.5000</text>
</g>
<!-- 94547497233504&#45;&gt;94547497224224+ -->
<g id="edge4" class="edge">
<title>94547497233504&#45;&gt;94547497224224+</title>
<path fill="none" stroke="black" d="M902.46,-82.49C913.56,-80.82 924.1,-79.24 933.39,-77.85"/>
<polygon fill="black" stroke="black" points="933.94,-81.3 943.31,-76.36 932.9,-74.38 933.94,-81.3"/>
</g>
<!-- 94547497233664 -->
<g id="node6" class="node">
<title>94547497233664</title>
<polygon fill="none" stroke="black" points="692.5,-27.5 692.5,-63.5 870.5,-63.5 870.5,-27.5 692.5,-27.5"/>
<text text-anchor="middle" x="781.5" y="-41.8" font-family="Times,serif" font-size="14.00">b value: 6.8814, grad: 0.5000</text>
</g>
<!-- 94547497233664&#45;&gt;94547497224224+ -->
<g id="edge5" class="edge">
<title>94547497233664&#45;&gt;94547497224224+</title>
<path fill="none" stroke="black" d="M870.56,-58.25C892.79,-61.47 915.42,-64.74 933.37,-67.34"/>
<polygon fill="black" stroke="black" points="932.96,-70.82 943.35,-68.79 933.96,-63.89 932.96,-70.82"/>
</g>
<!-- 94547497233504+ -->
<g id="node7" class="node">
<title>94547497233504+</title>
<ellipse fill="none" stroke="black" cx="593" cy="-100.5" rx="27" ry="18"/>
<text text-anchor="middle" x="593" y="-96.8" font-family="Times,serif" font-size="14.00">+</text>
</g>
<!-- 94547497233504+&#45;&gt;94547497233504 -->
<g id="edge6" class="edge">
<title>94547497233504+&#45;&gt;94547497233504</title>
<path fill="none" stroke="black" d="M620.33,-100.5C627.7,-100.5 636.25,-100.5 645.5,-100.5"/>
<polygon fill="black" stroke="black" points="645.77,-104 655.77,-100.5 645.77,-97 645.77,-104"/>
</g>
<!-- 94547497233008 -->
<g id="node8" class="node">
<title>94547497233008</title>
<polygon fill="none" stroke="black" points="318,-110.5 318,-146.5 530,-146.5 530,-110.5 318,-110.5"/>
<text text-anchor="middle" x="424" y="-124.8" font-family="Times,serif" font-size="14.00">x1*w1 value: &#45;6.0000, grad: 0.5000</text>
</g>
<!-- 94547497233008&#45;&gt;94547497233504+ -->
<g id="edge7" class="edge">
<title>94547497233008&#45;&gt;94547497233504+</title>
<path fill="none" stroke="black" d="M530.29,-110.85C539.62,-109.28 548.56,-107.78 556.6,-106.44"/>
<polygon fill="black" stroke="black" points="557.31,-109.86 566.6,-104.76 556.16,-102.96 557.31,-109.86"/>
</g>
<!-- 94547497233200 -->
<g id="node9" class="node">
<title>94547497233200</title>
<polygon fill="none" stroke="black" points="320,-55.5 320,-91.5 528,-91.5 528,-55.5 320,-55.5"/>
<text text-anchor="middle" x="424" y="-69.8" font-family="Times,serif" font-size="14.00">x2*w2 value: 0.0000, grad: 0.5000</text>
</g>
<!-- 94547497233200&#45;&gt;94547497233504+ -->
<g id="edge8" class="edge">
<title>94547497233200&#45;&gt;94547497233504+</title>
<path fill="none" stroke="black" d="M528.39,-90.22C538.45,-91.84 548.09,-93.4 556.7,-94.79"/>
<polygon fill="black" stroke="black" points="556.21,-98.26 566.64,-96.4 557.33,-91.35 556.21,-98.26"/>
</g>
<!-- 94547497233008* -->
<g id="node10" class="node">
<title>94547497233008*</title>
<ellipse fill="none" stroke="black" cx="255" cy="-128.5" rx="27" ry="18"/>
<text text-anchor="middle" x="255" y="-124.8" font-family="Times,serif" font-size="14.00">*</text>
</g>
<!-- 94547497233008*&#45;&gt;94547497233008 -->
<g id="edge9" class="edge">
<title>94547497233008*&#45;&gt;94547497233008</title>
<path fill="none" stroke="black" d="M282.09,-128.5C289.65,-128.5 298.42,-128.5 307.83,-128.5"/>
<polygon fill="black" stroke="black" points="307.83,-132 317.83,-128.5 307.83,-125 307.83,-132"/>
</g>
<!-- 94547497237456 -->
<g id="node11" class="node">
<title>94547497237456</title>
<polygon fill="none" stroke="black" points="1.5,-165.5 1.5,-201.5 190.5,-201.5 190.5,-165.5 1.5,-165.5"/>
<text text-anchor="middle" x="96" y="-179.8" font-family="Times,serif" font-size="14.00">x1 value: 2.0000, grad: &#45;1.5000</text>
</g>
<!-- 94547497237456&#45;&gt;94547497233008* -->
<g id="edge10" class="edge">
<title>94547497237456&#45;&gt;94547497233008*</title>
<path fill="none" stroke="black" d="M165.11,-165.46C174.22,-162.66 183.38,-159.65 192,-156.5 202.51,-152.66 213.73,-147.83 223.69,-143.26"/>
<polygon fill="black" stroke="black" points="225.22,-146.41 232.8,-139.01 222.26,-140.07 225.22,-146.41"/>
</g>
<!-- 94547497232272 -->
<g id="node12" class="node">
<title>94547497232272</title>
<polygon fill="none" stroke="black" points="0,-110.5 0,-146.5 192,-146.5 192,-110.5 0,-110.5"/>
<text text-anchor="middle" x="96" y="-124.8" font-family="Times,serif" font-size="14.00">w1 value: &#45;3.0000, grad: 1.0000</text>
</g>
<!-- 94547497232272&#45;&gt;94547497233008* -->
<g id="edge11" class="edge">
<title>94547497232272&#45;&gt;94547497233008*</title>
<path fill="none" stroke="black" d="M192.4,-128.5C201.32,-128.5 209.93,-128.5 217.75,-128.5"/>
<polygon fill="black" stroke="black" points="217.86,-132 227.86,-128.5 217.86,-125 217.86,-132"/>
</g>
<!-- 94547497233200* -->
<g id="node13" class="node">
<title>94547497233200*</title>
<ellipse fill="none" stroke="black" cx="255" cy="-73.5" rx="27" ry="18"/>
<text text-anchor="middle" x="255" y="-69.8" font-family="Times,serif" font-size="14.00">*</text>
</g>
<!-- 94547497233200*&#45;&gt;94547497233200 -->
<g id="edge12" class="edge">
<title>94547497233200*&#45;&gt;94547497233200</title>
<path fill="none" stroke="black" d="M282.09,-73.5C290.14,-73.5 299.57,-73.5 309.67,-73.5"/>
<polygon fill="black" stroke="black" points="309.97,-77 319.97,-73.5 309.97,-70 309.97,-77"/>
</g>
<!-- 94547497232544 -->
<g id="node14" class="node">
<title>94547497232544</title>
<polygon fill="none" stroke="black" points="3.5,-55.5 3.5,-91.5 188.5,-91.5 188.5,-55.5 3.5,-55.5"/>
<text text-anchor="middle" x="96" y="-69.8" font-family="Times,serif" font-size="14.00">x2 value: 0.0000, grad: 0.5000</text>
</g>
<!-- 94547497232544&#45;&gt;94547497233200* -->
<g id="edge13" class="edge">
<title>94547497232544&#45;&gt;94547497233200*</title>
<path fill="none" stroke="black" d="M188.78,-73.5C198.9,-73.5 208.71,-73.5 217.52,-73.5"/>
<polygon fill="black" stroke="black" points="217.72,-77 227.72,-73.5 217.72,-70 217.72,-77"/>
</g>
<!-- 94547497232704 -->
<g id="node15" class="node">
<title>94547497232704</title>
<polygon fill="none" stroke="black" points="2,-0.5 2,-36.5 190,-36.5 190,-0.5 2,-0.5"/>
<text text-anchor="middle" x="96" y="-14.8" font-family="Times,serif" font-size="14.00">w2 value: 1.0000, grad: 0.0000</text>
</g>
<!-- 94547497232704&#45;&gt;94547497233200* -->
<g id="edge14" class="edge">
<title>94547497232704&#45;&gt;94547497233200*</title>
<path fill="none" stroke="black" d="M165.11,-36.54C174.22,-39.34 183.38,-42.35 192,-45.5 202.51,-49.34 213.73,-54.17 223.69,-58.74"/>
<polygon fill="black" stroke="black" points="222.26,-61.93 232.8,-62.99 225.22,-55.59 222.26,-61.93"/>
</g>
</g>
</svg>
