<?xml version="1.0" encoding="UTF-8" standalone="no"?>
<!DOCTYPE svg PUBLIC "-//W3C//DTD SVG 1.1//EN"
 "http://www.w3.org/Graphics/SVG/1.1/DTD/svg11.dtd">
<!-- Generated by graphviz version 5.0.0 (0)
 -->
<!-- Pages: 1 -->
<svg width="1633pt" height="210pt"
 viewBox="0.00 0.00 1633.00 210.00" xmlns="http://www.w3.org/2000/svg" xmlns:xlink="http://www.w3.org/1999/xlink">
<g id="graph0" class="graph" transform="scale(1 1) rotate(0) translate(4 206)">
<polygon fill="white" stroke="transparent" points="-4,4 -4,-206 1629,-206 1629,4 -4,4"/>
<!-- 94422355541072 -->
<g id="node1" class="node">
<title>94422355541072</title>
<polygon fill="none" stroke="black" points="1425,-54.5 1425,-90.5 1625,-90.5 1625,-54.5 1425,-54.5"/>
<text text-anchor="middle" x="1436.5" y="-68.8" font-family="Times,serif" font-size="14.00">o</text>
<polyline fill="none" stroke="black" points="1448,-54.5 1448,-90.5 "/>
<text text-anchor="middle" x="1493.5" y="-68.8" font-family="Times,serif" font-size="14.00">value: 0.7071</text>
<polyline fill="none" stroke="black" points="1539,-54.5 1539,-90.5 "/>
<text text-anchor="middle" x="1582" y="-68.8" font-family="Times,serif" font-size="14.00">grad: 0.0000</text>
</g>
<!-- 94422355541072tanh -->
<g id="node2" class="node">
<title>94422355541072tanh</title>
<ellipse fill="none" stroke="black" cx="1362" cy="-72.5" rx="27" ry="18"/>
<text text-anchor="middle" x="1362" y="-68.8" font-family="Times,serif" font-size="14.00">tanh</text>
</g>
<!-- 94422355541072tanh&#45;&gt;94422355541072 -->
<g id="edge1" class="edge">
<title>94422355541072tanh&#45;&gt;94422355541072</title>
<path fill="none" stroke="black" d="M1389.23,-72.5C1396.69,-72.5 1405.31,-72.5 1414.52,-72.5"/>
<polygon fill="black" stroke="black" points="1414.71,-76 1424.71,-72.5 1414.71,-69 1414.71,-76"/>
</g>
<!-- 94422355549680 -->
<g id="node3" class="node">
<title>94422355549680</title>
<polygon fill="none" stroke="black" points="1099,-54.5 1099,-90.5 1299,-90.5 1299,-54.5 1099,-54.5"/>
<text text-anchor="middle" x="1110.5" y="-68.8" font-family="Times,serif" font-size="14.00">n</text>
<polyline fill="none" stroke="black" points="1122,-54.5 1122,-90.5 "/>
<text text-anchor="middle" x="1167.5" y="-68.8" font-family="Times,serif" font-size="14.00">value: 0.8814</text>
<polyline fill="none" stroke="black" points="1213,-54.5 1213,-90.5 "/>
<text text-anchor="middle" x="1256" y="-68.8" font-family="Times,serif" font-size="14.00">grad: 0.0000</text>
</g>
<!-- 94422355549680&#45;&gt;94422355541072tanh -->
<g id="edge2" class="edge">
<title>94422355549680&#45;&gt;94422355541072tanh</title>
<path fill="none" stroke="black" d="M1299.21,-72.5C1308.2,-72.5 1316.86,-72.5 1324.7,-72.5"/>
<polygon fill="black" stroke="black" points="1324.85,-76 1334.85,-72.5 1324.85,-69 1324.85,-76"/>
</g>
<!-- 94422355549680+ -->
<g id="node4" class="node">
<title>94422355549680+</title>
<ellipse fill="none" stroke="black" cx="1036" cy="-72.5" rx="27" ry="18"/>
<text text-anchor="middle" x="1036" y="-68.8" font-family="Times,serif" font-size="14.00">+</text>
</g>
<!-- 94422355549680+&#45;&gt;94422355549680 -->
<g id="edge3" class="edge">
<title>94422355549680+&#45;&gt;94422355549680</title>
<path fill="none" stroke="black" d="M1063.23,-72.5C1070.69,-72.5 1079.31,-72.5 1088.52,-72.5"/>
<polygon fill="black" stroke="black" points="1088.71,-76 1098.71,-72.5 1088.71,-69 1088.71,-76"/>
</g>
<!-- 94422355549280 -->
<g id="node5" class="node">
<title>94422355549280</title>
<polygon fill="none" stroke="black" points="700,-82.5 700,-118.5 973,-118.5 973,-82.5 700,-82.5"/>
<text text-anchor="middle" x="746" y="-96.8" font-family="Times,serif" font-size="14.00">x1w1 + x2w2</text>
<polyline fill="none" stroke="black" points="792,-82.5 792,-118.5 "/>
<text text-anchor="middle" x="839.5" y="-96.8" font-family="Times,serif" font-size="14.00">value: &#45;6.0000</text>
<polyline fill="none" stroke="black" points="887,-82.5 887,-118.5 "/>
<text text-anchor="middle" x="930" y="-96.8" font-family="Times,serif" font-size="14.00">grad: 0.0000</text>
</g>
<!-- 94422355549280&#45;&gt;94422355549680+ -->
<g id="edge4" class="edge">
<title>94422355549280&#45;&gt;94422355549680+</title>
<path fill="none" stroke="black" d="M964.53,-82.49C977.09,-80.71 988.99,-79.02 999.3,-77.56"/>
<polygon fill="black" stroke="black" points="1000.03,-80.99 1009.44,-76.12 999.05,-74.06 1000.03,-80.99"/>
</g>
<!-- 94422355549440 -->
<g id="node6" class="node">
<title>94422355549440</title>
<polygon fill="none" stroke="black" points="736.5,-27.5 736.5,-63.5 936.5,-63.5 936.5,-27.5 736.5,-27.5"/>
<text text-anchor="middle" x="748" y="-41.8" font-family="Times,serif" font-size="14.00">b</text>
<polyline fill="none" stroke="black" points="759.5,-27.5 759.5,-63.5 "/>
<text text-anchor="middle" x="805" y="-41.8" font-family="Times,serif" font-size="14.00">value: 6.8814</text>
<polyline fill="none" stroke="black" points="850.5,-27.5 850.5,-63.5 "/>
<text text-anchor="middle" x="893.5" y="-41.8" font-family="Times,serif" font-size="14.00">grad: 0.0000</text>
</g>
<!-- 94422355549440&#45;&gt;94422355549680+ -->
<g id="edge5" class="edge">
<title>94422355549440&#45;&gt;94422355549680+</title>
<path fill="none" stroke="black" d="M936.54,-59.04C958.96,-62.1 981.36,-65.17 999.12,-67.6"/>
<polygon fill="black" stroke="black" points="998.89,-71.1 1009.27,-68.98 999.84,-64.16 998.89,-71.1"/>
</g>
<!-- 94422355549280+ -->
<g id="node7" class="node">
<title>94422355549280+</title>
<ellipse fill="none" stroke="black" cx="637" cy="-100.5" rx="27" ry="18"/>
<text text-anchor="middle" x="637" y="-96.8" font-family="Times,serif" font-size="14.00">+</text>
</g>
<!-- 94422355549280+&#45;&gt;94422355549280 -->
<g id="edge6" class="edge">
<title>94422355549280+&#45;&gt;94422355549280</title>
<path fill="none" stroke="black" d="M664.23,-100.5C671.7,-100.5 680.41,-100.5 689.87,-100.5"/>
<polygon fill="black" stroke="black" points="689.98,-104 699.98,-100.5 689.98,-97 689.98,-104"/>
</g>
<!-- 94422355548784 -->
<g id="node8" class="node">
<title>94422355548784</title>
<polygon fill="none" stroke="black" points="340,-110.5 340,-146.5 574,-146.5 574,-110.5 340,-110.5"/>
<text text-anchor="middle" x="366.5" y="-124.8" font-family="Times,serif" font-size="14.00">x1*w1</text>
<polyline fill="none" stroke="black" points="393,-110.5 393,-146.5 "/>
<text text-anchor="middle" x="440.5" y="-124.8" font-family="Times,serif" font-size="14.00">value: &#45;6.0000</text>
<polyline fill="none" stroke="black" points="488,-110.5 488,-146.5 "/>
<text text-anchor="middle" x="531" y="-124.8" font-family="Times,serif" font-size="14.00">grad: 0.0000</text>
</g>
<!-- 94422355548784&#45;&gt;94422355549280+ -->
<g id="edge7" class="edge">
<title>94422355548784&#45;&gt;94422355549280+</title>
<path fill="none" stroke="black" d="M572.49,-110.49C582.46,-108.92 591.96,-107.43 600.43,-106.1"/>
<polygon fill="black" stroke="black" points="601.24,-109.51 610.57,-104.5 600.15,-102.6 601.24,-109.51"/>
</g>
<!-- 94422355548976 -->
<g id="node9" class="node">
<title>94422355548976</title>
<polygon fill="none" stroke="black" points="342,-55.5 342,-91.5 572,-91.5 572,-55.5 342,-55.5"/>
<text text-anchor="middle" x="368.5" y="-69.8" font-family="Times,serif" font-size="14.00">x2*w2</text>
<polyline fill="none" stroke="black" points="395,-55.5 395,-91.5 "/>
<text text-anchor="middle" x="440.5" y="-69.8" font-family="Times,serif" font-size="14.00">value: 0.0000</text>
<polyline fill="none" stroke="black" points="486,-55.5 486,-91.5 "/>
<text text-anchor="middle" x="529" y="-69.8" font-family="Times,serif" font-size="14.00">grad: 0.0000</text>
</g>
<!-- 94422355548976&#45;&gt;94422355549280+ -->
<g id="edge8" class="edge">
<title>94422355548976&#45;&gt;94422355549280+</title>
<path fill="none" stroke="black" d="M572.24,-90.83C582.35,-92.36 591.98,-93.82 600.56,-95.12"/>
<polygon fill="black" stroke="black" points="600.05,-98.59 610.46,-96.63 601.1,-91.67 600.05,-98.59"/>
</g>
<!-- 94422355548784* -->
<g id="node10" class="node">
<title>94422355548784*</title>
<ellipse fill="none" stroke="black" cx="277" cy="-128.5" rx="27" ry="18"/>
<text text-anchor="middle" x="277" y="-124.8" font-family="Times,serif" font-size="14.00">*</text>
</g>
<!-- 94422355548784*&#45;&gt;94422355548784 -->
<g id="edge9" class="edge">
<title>94422355548784*&#45;&gt;94422355548784</title>
<path fill="none" stroke="black" d="M304.26,-128.5C311.65,-128.5 320.21,-128.5 329.43,-128.5"/>
<polygon fill="black" stroke="black" points="329.66,-132 339.66,-128.5 329.66,-125 329.66,-132"/>
</g>
<!-- 94422355553232 -->
<g id="node11" class="node">
<title>94422355553232</title>
<polygon fill="none" stroke="black" points="3.5,-165.5 3.5,-201.5 210.5,-201.5 210.5,-165.5 3.5,-165.5"/>
<text text-anchor="middle" x="18.5" y="-179.8" font-family="Times,serif" font-size="14.00">x1</text>
<polyline fill="none" stroke="black" points="33.5,-165.5 33.5,-201.5 "/>
<text text-anchor="middle" x="79" y="-179.8" font-family="Times,serif" font-size="14.00">value: 2.0000</text>
<polyline fill="none" stroke="black" points="124.5,-165.5 124.5,-201.5 "/>
<text text-anchor="middle" x="167.5" y="-179.8" font-family="Times,serif" font-size="14.00">grad: 0.0000</text>
</g>
<!-- 94422355553232&#45;&gt;94422355548784* -->
<g id="edge10" class="edge">
<title>94422355553232&#45;&gt;94422355548784*</title>
<path fill="none" stroke="black" d="M185.47,-165.45C195.15,-162.7 204.86,-159.7 214,-156.5 224.56,-152.8 235.79,-148.01 245.76,-143.43"/>
<polygon fill="black" stroke="black" points="247.29,-146.58 254.86,-139.16 244.32,-140.24 247.29,-146.58"/>
</g>
<!-- 94422355548048 -->
<g id="node12" class="node">
<title>94422355548048</title>
<polygon fill="none" stroke="black" points="0,-110.5 0,-146.5 214,-146.5 214,-110.5 0,-110.5"/>
<text text-anchor="middle" x="16.5" y="-124.8" font-family="Times,serif" font-size="14.00">w1</text>
<polyline fill="none" stroke="black" points="33,-110.5 33,-146.5 "/>
<text text-anchor="middle" x="80.5" y="-124.8" font-family="Times,serif" font-size="14.00">value: &#45;3.0000</text>
<polyline fill="none" stroke="black" points="128,-110.5 128,-146.5 "/>
<text text-anchor="middle" x="171" y="-124.8" font-family="Times,serif" font-size="14.00">grad: 0.0000</text>
</g>
<!-- 94422355548048&#45;&gt;94422355548784* -->
<g id="edge11" class="edge">
<title>94422355548048&#45;&gt;94422355548784*</title>
<path fill="none" stroke="black" d="M214.4,-128.5C223.35,-128.5 231.94,-128.5 239.71,-128.5"/>
<polygon fill="black" stroke="black" points="239.76,-132 249.76,-128.5 239.76,-125 239.76,-132"/>
</g>
<!-- 94422355548976* -->
<g id="node13" class="node">
<title>94422355548976*</title>
<ellipse fill="none" stroke="black" cx="277" cy="-73.5" rx="27" ry="18"/>
<text text-anchor="middle" x="277" y="-69.8" font-family="Times,serif" font-size="14.00">*</text>
</g>
<!-- 94422355548976*&#45;&gt;94422355548976 -->
<g id="edge12" class="edge">
<title>94422355548976*&#45;&gt;94422355548976</title>
<path fill="none" stroke="black" d="M304.26,-73.5C312.24,-73.5 321.59,-73.5 331.66,-73.5"/>
<polygon fill="black" stroke="black" points="331.94,-77 341.94,-73.5 331.94,-70 331.94,-77"/>
</g>
<!-- 94422355548320 -->
<g id="node14" class="node">
<title>94422355548320</title>
<polygon fill="none" stroke="black" points="3.5,-55.5 3.5,-91.5 210.5,-91.5 210.5,-55.5 3.5,-55.5"/>
<text text-anchor="middle" x="18.5" y="-69.8" font-family="Times,serif" font-size="14.00">x2</text>
<polyline fill="none" stroke="black" points="33.5,-55.5 33.5,-91.5 "/>
<text text-anchor="middle" x="79" y="-69.8" font-family="Times,serif" font-size="14.00">value: 0.0000</text>
<polyline fill="none" stroke="black" points="124.5,-55.5 124.5,-91.5 "/>
<text text-anchor="middle" x="167.5" y="-69.8" font-family="Times,serif" font-size="14.00">grad: 0.0000</text>
</g>
<!-- 94422355548320&#45;&gt;94422355548976* -->
<g id="edge13" class="edge">
<title>94422355548320&#45;&gt;94422355548976*</title>
<path fill="none" stroke="black" d="M210.57,-73.5C220.86,-73.5 230.77,-73.5 239.62,-73.5"/>
<polygon fill="black" stroke="black" points="239.85,-77 249.85,-73.5 239.85,-70 239.85,-77"/>
</g>
<!-- 94422355548480 -->
<g id="node15" class="node">
<title>94422355548480</title>
<polygon fill="none" stroke="black" points="2,-0.5 2,-36.5 212,-36.5 212,-0.5 2,-0.5"/>
<text text-anchor="middle" x="18.5" y="-14.8" font-family="Times,serif" font-size="14.00">w2</text>
<polyline fill="none" stroke="black" points="35,-0.5 35,-36.5 "/>
<text text-anchor="middle" x="80.5" y="-14.8" font-family="Times,serif" font-size="14.00">value: 1.0000</text>
<polyline fill="none" stroke="black" points="126,-0.5 126,-36.5 "/>
<text text-anchor="middle" x="169" y="-14.8" font-family="Times,serif" font-size="14.00">grad: 0.0000</text>
</g>
<!-- 94422355548480&#45;&gt;94422355548976* -->
<g id="edge14" class="edge">
<title>94422355548480&#45;&gt;94422355548976*</title>
<path fill="none" stroke="black" d="M185.47,-36.55C195.15,-39.3 204.86,-42.3 214,-45.5 224.56,-49.2 235.79,-53.99 245.76,-58.57"/>
<polygon fill="black" stroke="black" points="244.32,-61.76 254.86,-62.84 247.29,-55.42 244.32,-61.76"/>
</g>
</g>
</svg>
