<?xml version="1.0" encoding="UTF-8" standalone="no"?>
<!DOCTYPE svg PUBLIC "-//W3C//DTD SVG 1.1//EN"
 "http://www.w3.org/Graphics/SVG/1.1/DTD/svg11.dtd">
<!-- Generated by graphviz version 5.0.0 (0)
 -->
<!-- Pages: 1 -->
<svg width="1246pt" height="156pt"
 viewBox="0.00 0.00 1246.00 156.00" xmlns="http://www.w3.org/2000/svg" xmlns:xlink="http://www.w3.org/1999/xlink">
<g id="graph0" class="graph" transform="scale(1 1) rotate(0) translate(4 152)">
<polygon fill="white" stroke="transparent" points="-4,4 -4,-152 1242,-152 1242,4 -4,4"/>
<!-- 140732504495520 -->
<g id="node1" class="node">
<title>140732504495520</title>
<polygon fill="none" stroke="black" points="1026,-27.5 1026,-63.5 1238,-63.5 1238,-27.5 1026,-27.5"/>
<text text-anchor="middle" x="1132" y="-41.8" font-family="Times,serif" font-size="14.00">l: value: 17.000000, grad: 1.000000</text>
</g>
<!-- 140732504495520+ -->
<g id="node2" class="node">
<title>140732504495520+</title>
<ellipse fill="none" stroke="black" cx="963" cy="-45.5" rx="27" ry="18"/>
<text text-anchor="middle" x="963" y="-41.8" font-family="Times,serif" font-size="14.00">+</text>
</g>
<!-- 140732504495520+&#45;&gt;140732504495520 -->
<g id="edge1" class="edge">
<title>140732504495520+&#45;&gt;140732504495520</title>
<path fill="none" stroke="black" d="M990.09,-45.5C997.65,-45.5 1006.42,-45.5 1015.83,-45.5"/>
<polygon fill="black" stroke="black" points="1015.83,-49 1025.83,-45.5 1015.83,-42 1015.83,-49"/>
</g>
<!-- 140732504495168 -->
<g id="node3" class="node">
<title>140732504495168</title>
<polygon fill="none" stroke="black" points="680,-55.5 680,-91.5 900,-91.5 900,-55.5 680,-55.5"/>
<text text-anchor="middle" x="790" y="-69.8" font-family="Times,serif" font-size="14.00">d: value: 15.000000, grad: &#45;2.000000</text>
</g>
<!-- 140732504495168&#45;&gt;140732504495520+ -->
<g id="edge2" class="edge">
<title>140732504495168&#45;&gt;140732504495520+</title>
<path fill="none" stroke="black" d="M900.27,-55.61C909.64,-54.07 918.6,-52.61 926.65,-51.29"/>
<polygon fill="black" stroke="black" points="927.35,-54.72 936.65,-49.65 926.22,-47.81 927.35,-54.72"/>
</g>
<!-- 140732504495432 -->
<g id="node4" class="node">
<title>140732504495432</title>
<polygon fill="none" stroke="black" points="684.5,-0.5 684.5,-36.5 895.5,-36.5 895.5,-0.5 684.5,-0.5"/>
<text text-anchor="middle" x="790" y="-14.8" font-family="Times,serif" font-size="14.00">f: value: &#45;2.000000, grad: 0.000000</text>
</g>
<!-- 140732504495432&#45;&gt;140732504495520+ -->
<g id="edge3" class="edge">
<title>140732504495432&#45;&gt;140732504495520+</title>
<path fill="none" stroke="black" d="M895.89,-35.06C906.84,-36.79 917.34,-38.45 926.62,-39.91"/>
<polygon fill="black" stroke="black" points="926.12,-43.38 936.55,-41.48 927.21,-36.46 926.12,-43.38"/>
</g>
<!-- 140732504495168+ -->
<g id="node5" class="node">
<title>140732504495168+</title>
<ellipse fill="none" stroke="black" cx="617" cy="-73.5" rx="27" ry="18"/>
<text text-anchor="middle" x="617" y="-69.8" font-family="Times,serif" font-size="14.00">+</text>
</g>
<!-- 140732504495168+&#45;&gt;140732504495168 -->
<g id="edge4" class="edge">
<title>140732504495168+&#45;&gt;140732504495168</title>
<path fill="none" stroke="black" d="M644.34,-73.5C651.77,-73.5 660.37,-73.5 669.6,-73.5"/>
<polygon fill="black" stroke="black" points="669.84,-77 679.84,-73.5 669.84,-70 669.84,-77"/>
</g>
<!-- 140732504495080 -->
<g id="node6" class="node">
<title>140732504495080</title>
<polygon fill="none" stroke="black" points="342.5,-83.5 342.5,-119.5 550.5,-119.5 550.5,-83.5 342.5,-83.5"/>
<text text-anchor="middle" x="446.5" y="-97.8" font-family="Times,serif" font-size="14.00">e: value: 5.000000, grad: 0.000000</text>
</g>
<!-- 140732504495080&#45;&gt;140732504495168+ -->
<g id="edge5" class="edge">
<title>140732504495080&#45;&gt;140732504495168+</title>
<path fill="none" stroke="black" d="M550.85,-84.33C561.43,-82.57 571.58,-80.88 580.59,-79.38"/>
<polygon fill="black" stroke="black" points="581.32,-82.81 590.61,-77.72 580.17,-75.91 581.32,-82.81"/>
</g>
<!-- 140732504494992 -->
<g id="node7" class="node">
<title>140732504494992</title>
<polygon fill="none" stroke="black" points="339,-28.5 339,-64.5 554,-64.5 554,-28.5 339,-28.5"/>
<text text-anchor="middle" x="446.5" y="-42.8" font-family="Times,serif" font-size="14.00">c: value: 10.000000, grad: 0.000000</text>
</g>
<!-- 140732504494992&#45;&gt;140732504495168+ -->
<g id="edge6" class="edge">
<title>140732504494992&#45;&gt;140732504495168+</title>
<path fill="none" stroke="black" d="M554.21,-63.6C563.57,-65.1 572.52,-66.53 580.57,-67.82"/>
<polygon fill="black" stroke="black" points="580.16,-71.3 590.59,-69.43 581.27,-64.39 580.16,-71.3"/>
</g>
<!-- 140732504495080+ -->
<g id="node8" class="node">
<title>140732504495080+</title>
<ellipse fill="none" stroke="black" cx="276" cy="-101.5" rx="27" ry="18"/>
<text text-anchor="middle" x="276" y="-97.8" font-family="Times,serif" font-size="14.00">+</text>
</g>
<!-- 140732504495080+&#45;&gt;140732504495080 -->
<g id="edge7" class="edge">
<title>140732504495080+&#45;&gt;140732504495080</title>
<path fill="none" stroke="black" d="M303.33,-101.5C311.68,-101.5 321.49,-101.5 332,-101.5"/>
<polygon fill="black" stroke="black" points="332.27,-105 342.27,-101.5 332.27,-98 332.27,-105"/>
</g>
<!-- 140732504494128 -->
<g id="node9" class="node">
<title>140732504494128</title>
<polygon fill="none" stroke="black" points="2.5,-111.5 2.5,-147.5 210.5,-147.5 210.5,-111.5 2.5,-111.5"/>
<text text-anchor="middle" x="106.5" y="-125.8" font-family="Times,serif" font-size="14.00">a: value: 2.000000, grad: 0.000000</text>
</g>
<!-- 140732504494128&#45;&gt;140732504495080+ -->
<g id="edge8" class="edge">
<title>140732504494128&#45;&gt;140732504495080+</title>
<path fill="none" stroke="black" d="M210.72,-112.25C220.96,-110.53 230.79,-108.89 239.55,-107.43"/>
<polygon fill="black" stroke="black" points="240.38,-110.84 249.66,-105.74 239.22,-103.93 240.38,-110.84"/>
</g>
<!-- 140732504494280 -->
<g id="node10" class="node">
<title>140732504494280</title>
<polygon fill="none" stroke="black" points="0,-56.5 0,-92.5 213,-92.5 213,-56.5 0,-56.5"/>
<text text-anchor="middle" x="106.5" y="-70.8" font-family="Times,serif" font-size="14.00">b: value: &#45;3.000000, grad: 0.000000</text>
</g>
<!-- 140732504494280&#45;&gt;140732504495080+ -->
<g id="edge9" class="edge">
<title>140732504494280&#45;&gt;140732504495080+</title>
<path fill="none" stroke="black" d="M213.11,-91.52C222.46,-93.03 231.43,-94.48 239.49,-95.78"/>
<polygon fill="black" stroke="black" points="239.09,-99.26 249.52,-97.39 240.21,-92.35 239.09,-99.26"/>
</g>
</g>
</svg>
