<?xml version="1.0" encoding="UTF-8" standalone="no"?>
<!DOCTYPE svg PUBLIC "-//W3C//DTD SVG 1.1//EN"
 "http://www.w3.org/Graphics/SVG/1.1/DTD/svg11.dtd">
<!-- Generated by graphviz version 5.0.0 (0)
 -->
<!-- Pages: 1 -->
<svg width="1122pt" height="156pt"
 viewBox="0.00 0.00 1122.00 156.00" xmlns="http://www.w3.org/2000/svg" xmlns:xlink="http://www.w3.org/1999/xlink">
<g id="graph0" class="graph" transform="scale(1 1) rotate(0) translate(4 152)">
<polygon fill="white" stroke="transparent" points="-4,4 -4,-152 1118,-152 1118,4 -4,4"/>
<!-- 140731252446056 -->
<g id="node1" class="node">
<title>140731252446056</title>
<polygon fill="none" stroke="black" points="935,-27.5 935,-63.5 1114,-63.5 1114,-27.5 935,-27.5"/>
<text text-anchor="middle" x="1024.5" y="-41.8" font-family="Times,serif" font-size="14.00">l value: &#45;8.0000, grad: 1.0000</text>
</g>
<!-- 140731252446056* -->
<g id="node2" class="node">
<title>140731252446056*</title>
<ellipse fill="none" stroke="black" cx="872" cy="-45.5" rx="27" ry="18"/>
<text text-anchor="middle" x="872" y="-41.8" font-family="Times,serif" font-size="14.00">*</text>
</g>
<!-- 140731252446056*&#45;&gt;140731252446056 -->
<g id="edge1" class="edge">
<title>140731252446056*&#45;&gt;140731252446056</title>
<path fill="none" stroke="black" d="M899.22,-45.5C906.76,-45.5 915.47,-45.5 924.71,-45.5"/>
<polygon fill="black" stroke="black" points="924.91,-49 934.91,-45.5 924.91,-42 924.91,-49"/>
</g>
<!-- 94547497221776 -->
<g id="node3" class="node">
<title>94547497221776</title>
<polygon fill="none" stroke="black" points="627,-55.5 627,-91.5 809,-91.5 809,-55.5 627,-55.5"/>
<text text-anchor="middle" x="718" y="-69.8" font-family="Times,serif" font-size="14.00">d value: 4.0000, grad: &#45;2.0000</text>
</g>
<!-- 94547497221776&#45;&gt;140731252446056* -->
<g id="edge2" class="edge">
<title>94547497221776&#45;&gt;140731252446056*</title>
<path fill="none" stroke="black" d="M809.18,-56.89C818.61,-55.15 827.75,-53.47 835.98,-51.95"/>
<polygon fill="black" stroke="black" points="836.66,-55.39 845.86,-50.13 835.39,-48.5 836.66,-55.39"/>
</g>
<!-- 94547497221936 -->
<g id="node4" class="node">
<title>94547497221936</title>
<polygon fill="none" stroke="black" points="628,-0.5 628,-36.5 808,-36.5 808,-0.5 628,-0.5"/>
<text text-anchor="middle" x="718" y="-14.8" font-family="Times,serif" font-size="14.00">f value: &#45;2.0000, grad: 4.0000</text>
</g>
<!-- 94547497221936&#45;&gt;140731252446056* -->
<g id="edge3" class="edge">
<title>94547497221936&#45;&gt;140731252446056*</title>
<path fill="none" stroke="black" d="M808.3,-34.36C817.93,-36.07 827.27,-37.73 835.67,-39.22"/>
<polygon fill="black" stroke="black" points="835.3,-42.71 845.76,-41.02 836.52,-35.82 835.3,-42.71"/>
</g>
<!-- 94547497221776+ -->
<g id="node5" class="node">
<title>94547497221776+</title>
<ellipse fill="none" stroke="black" cx="564" cy="-73.5" rx="27" ry="18"/>
<text text-anchor="middle" x="564" y="-69.8" font-family="Times,serif" font-size="14.00">+</text>
</g>
<!-- 94547497221776+&#45;&gt;94547497221776 -->
<g id="edge4" class="edge">
<title>94547497221776+&#45;&gt;94547497221776</title>
<path fill="none" stroke="black" d="M591.13,-73.5C598.67,-73.5 607.39,-73.5 616.64,-73.5"/>
<polygon fill="black" stroke="black" points="616.87,-77 626.87,-73.5 616.87,-70 616.87,-77"/>
</g>
<!-- 94547497221232 -->
<g id="node6" class="node">
<title>94547497221232</title>
<polygon fill="none" stroke="black" points="314,-83.5 314,-119.5 500,-119.5 500,-83.5 314,-83.5"/>
<text text-anchor="middle" x="407" y="-97.8" font-family="Times,serif" font-size="14.00">e value: &#45;6.0000, grad: &#45;2.0000</text>
</g>
<!-- 94547497221232&#45;&gt;94547497221776+ -->
<g id="edge5" class="edge">
<title>94547497221232&#45;&gt;94547497221776+</title>
<path fill="none" stroke="black" d="M500.4,-84.81C510.07,-83.06 519.41,-81.37 527.8,-79.86"/>
<polygon fill="black" stroke="black" points="528.65,-83.26 537.87,-78.04 527.4,-76.37 528.65,-83.26"/>
</g>
<!-- 94547497221392 -->
<g id="node7" class="node">
<title>94547497221392</title>
<polygon fill="none" stroke="black" points="313,-28.5 313,-64.5 501,-64.5 501,-28.5 313,-28.5"/>
<text text-anchor="middle" x="407" y="-42.8" font-family="Times,serif" font-size="14.00">c value: 10.0000, grad: &#45;2.0000</text>
</g>
<!-- 94547497221392&#45;&gt;94547497221776+ -->
<g id="edge6" class="edge">
<title>94547497221392&#45;&gt;94547497221776+</title>
<path fill="none" stroke="black" d="M501.29,-62.75C510.57,-64.37 519.52,-65.93 527.61,-67.33"/>
<polygon fill="black" stroke="black" points="527.22,-70.82 537.68,-69.09 528.42,-63.92 527.22,-70.82"/>
</g>
<!-- 94547497221232* -->
<g id="node8" class="node">
<title>94547497221232*</title>
<ellipse fill="none" stroke="black" cx="250" cy="-101.5" rx="27" ry="18"/>
<text text-anchor="middle" x="250" y="-97.8" font-family="Times,serif" font-size="14.00">*</text>
</g>
<!-- 94547497221232*&#45;&gt;94547497221232 -->
<g id="edge7" class="edge">
<title>94547497221232*&#45;&gt;94547497221232</title>
<path fill="none" stroke="black" d="M277.29,-101.5C285.05,-101.5 294.05,-101.5 303.61,-101.5"/>
<polygon fill="black" stroke="black" points="303.75,-105 313.75,-101.5 303.75,-98 303.75,-105"/>
</g>
<!-- 94547497220960 -->
<g id="node9" class="node">
<title>94547497220960</title>
<polygon fill="none" stroke="black" points="5,-111.5 5,-147.5 182,-147.5 182,-111.5 5,-111.5"/>
<text text-anchor="middle" x="93.5" y="-125.8" font-family="Times,serif" font-size="14.00">a value: 2.0000, grad: 6.0000</text>
</g>
<!-- 94547497220960&#45;&gt;94547497221232* -->
<g id="edge8" class="edge">
<title>94547497220960&#45;&gt;94547497221232*</title>
<path fill="none" stroke="black" d="M182.13,-113.62C193.34,-111.59 204.24,-109.61 213.89,-107.86"/>
<polygon fill="black" stroke="black" points="214.6,-111.29 223.81,-106.06 213.35,-104.4 214.6,-111.29"/>
</g>
<!-- 94547497216768 -->
<g id="node10" class="node">
<title>94547497216768</title>
<polygon fill="none" stroke="black" points="0,-56.5 0,-92.5 187,-92.5 187,-56.5 0,-56.5"/>
<text text-anchor="middle" x="93.5" y="-70.8" font-family="Times,serif" font-size="14.00">b value: &#45;3.0000, grad: &#45;4.0000</text>
</g>
<!-- 94547497216768&#45;&gt;94547497221232* -->
<g id="edge9" class="edge">
<title>94547497216768&#45;&gt;94547497221232*</title>
<path fill="none" stroke="black" d="M187.05,-90.67C196.34,-92.3 205.33,-93.87 213.44,-95.29"/>
<polygon fill="black" stroke="black" points="213.1,-98.78 223.55,-97.05 214.3,-91.88 213.1,-98.78"/>
</g>
</g>
</svg>
