<?xml version="1.0" encoding="UTF-8" standalone="no"?>
<!DOCTYPE svg PUBLIC "-//W3C//DTD SVG 1.1//EN"
 "http://www.w3.org/Graphics/SVG/1.1/DTD/svg11.dtd">
<!-- Generated by graphviz version 5.0.0 (0)
 -->
<!-- Pages: 1 -->
<svg width="1111pt" height="156pt"
 viewBox="0.00 0.00 1111.00 156.00" xmlns="http://www.w3.org/2000/svg" xmlns:xlink="http://www.w3.org/1999/xlink">
<g id="graph0" class="graph" transform="scale(1 1) rotate(0) translate(4 152)">
<polygon fill="white" stroke="transparent" points="-4,4 -4,-152 1107,-152 1107,4 -4,4"/>
<!-- 140722634799400 -->
<g id="node1" class="node">
<title>140722634799400</title>
<polygon fill="none" stroke="black" points="924,-27.5 924,-63.5 1103,-63.5 1103,-27.5 924,-27.5"/>
<text text-anchor="middle" x="1013.5" y="-41.8" font-family="Times,serif" font-size="14.00">l value: &#45;8.0000, grad: 1.0000</text>
</g>
<!-- 140722634799400* -->
<g id="node2" class="node">
<title>140722634799400*</title>
<ellipse fill="none" stroke="black" cx="861" cy="-45.5" rx="27" ry="18"/>
<text text-anchor="middle" x="861" y="-41.8" font-family="Times,serif" font-size="14.00">*</text>
</g>
<!-- 140722634799400*&#45;&gt;140722634799400 -->
<g id="edge1" class="edge">
<title>140722634799400*&#45;&gt;140722634799400</title>
<path fill="none" stroke="black" d="M888.22,-45.5C895.76,-45.5 904.47,-45.5 913.71,-45.5"/>
<polygon fill="black" stroke="black" points="913.91,-49 923.91,-45.5 913.91,-42 913.91,-49"/>
</g>
<!-- 94191604473536 -->
<g id="node3" class="node">
<title>94191604473536</title>
<polygon fill="none" stroke="black" points="619,-55.5 619,-91.5 797,-91.5 797,-55.5 619,-55.5"/>
<text text-anchor="middle" x="708" y="-69.8" font-family="Times,serif" font-size="14.00">d value: 4.0000, grad: 0.0000</text>
</g>
<!-- 94191604473536&#45;&gt;140722634799400* -->
<g id="edge2" class="edge">
<title>94191604473536&#45;&gt;140722634799400*</title>
<path fill="none" stroke="black" d="M797.27,-57.13C806.89,-55.35 816.23,-53.62 824.63,-52.06"/>
<polygon fill="black" stroke="black" points="825.53,-55.45 834.72,-50.19 824.25,-48.57 825.53,-55.45"/>
</g>
<!-- 94191604473712 -->
<g id="node4" class="node">
<title>94191604473712</title>
<polygon fill="none" stroke="black" points="618,-0.5 618,-36.5 798,-36.5 798,-0.5 618,-0.5"/>
<text text-anchor="middle" x="708" y="-14.8" font-family="Times,serif" font-size="14.00">f value: &#45;2.0000, grad: 0.0000</text>
</g>
<!-- 94191604473712&#45;&gt;140722634799400* -->
<g id="edge3" class="edge">
<title>94191604473712&#45;&gt;140722634799400*</title>
<path fill="none" stroke="black" d="M798.15,-34.44C807.57,-36.13 816.71,-37.76 824.94,-39.23"/>
<polygon fill="black" stroke="black" points="824.36,-42.68 834.82,-41 825.6,-35.79 824.36,-42.68"/>
</g>
<!-- 94191604473536+ -->
<g id="node5" class="node">
<title>94191604473536+</title>
<ellipse fill="none" stroke="black" cx="555" cy="-73.5" rx="27" ry="18"/>
<text text-anchor="middle" x="555" y="-69.8" font-family="Times,serif" font-size="14.00">+</text>
</g>
<!-- 94191604473536+&#45;&gt;94191604473536 -->
<g id="edge4" class="edge">
<title>94191604473536+&#45;&gt;94191604473536</title>
<path fill="none" stroke="black" d="M582.3,-73.5C590.08,-73.5 599.09,-73.5 608.64,-73.5"/>
<polygon fill="black" stroke="black" points="608.75,-77 618.75,-73.5 608.75,-70 608.75,-77"/>
</g>
<!-- 94191604473056 -->
<g id="node6" class="node">
<title>94191604473056</title>
<polygon fill="none" stroke="black" points="309,-83.5 309,-119.5 491,-119.5 491,-83.5 309,-83.5"/>
<text text-anchor="middle" x="400" y="-97.8" font-family="Times,serif" font-size="14.00">e value: &#45;6.0000, grad: 0.0000</text>
</g>
<!-- 94191604473056&#45;&gt;94191604473536+ -->
<g id="edge5" class="edge">
<title>94191604473056&#45;&gt;94191604473536+</title>
<path fill="none" stroke="black" d="M491.33,-84.97C500.97,-83.2 510.31,-81.5 518.71,-79.96"/>
<polygon fill="black" stroke="black" points="519.58,-83.36 528.79,-78.11 518.32,-76.47 519.58,-83.36"/>
</g>
<!-- 94191604473232 -->
<g id="node7" class="node">
<title>94191604473232</title>
<polygon fill="none" stroke="black" points="308,-28.5 308,-64.5 492,-64.5 492,-28.5 308,-28.5"/>
<text text-anchor="middle" x="400" y="-42.8" font-family="Times,serif" font-size="14.00">c value: 10.0000, grad: 0.0000</text>
</g>
<!-- 94191604473232&#45;&gt;94191604473536+ -->
<g id="edge6" class="edge">
<title>94191604473232&#45;&gt;94191604473536+</title>
<path fill="none" stroke="black" d="M492.21,-62.6C501.47,-64.23 510.42,-65.81 518.51,-67.24"/>
<polygon fill="black" stroke="black" points="518.14,-70.73 528.6,-69.02 519.36,-63.83 518.14,-70.73"/>
</g>
<!-- 94191604473056* -->
<g id="node8" class="node">
<title>94191604473056*</title>
<ellipse fill="none" stroke="black" cx="245" cy="-101.5" rx="27" ry="18"/>
<text text-anchor="middle" x="245" y="-97.8" font-family="Times,serif" font-size="14.00">*</text>
</g>
<!-- 94191604473056*&#45;&gt;94191604473056 -->
<g id="edge7" class="edge">
<title>94191604473056*&#45;&gt;94191604473056</title>
<path fill="none" stroke="black" d="M272.3,-101.5C280.1,-101.5 289.15,-101.5 298.75,-101.5"/>
<polygon fill="black" stroke="black" points="298.92,-105 308.92,-101.5 298.92,-98 298.92,-105"/>
</g>
<!-- 94191604472816 -->
<g id="node9" class="node">
<title>94191604472816</title>
<polygon fill="none" stroke="black" points="2.5,-111.5 2.5,-147.5 179.5,-147.5 179.5,-111.5 2.5,-111.5"/>
<text text-anchor="middle" x="91" y="-125.8" font-family="Times,serif" font-size="14.00">a value: 2.0000, grad: 0.0000</text>
</g>
<!-- 94191604472816&#45;&gt;94191604473056* -->
<g id="edge8" class="edge">
<title>94191604472816&#45;&gt;94191604473056*</title>
<path fill="none" stroke="black" d="M179.54,-113.37C189.88,-111.47 199.93,-109.62 208.89,-107.97"/>
<polygon fill="black" stroke="black" points="209.68,-111.38 218.88,-106.13 208.41,-104.5 209.68,-111.38"/>
</g>
<!-- 94191604472672 -->
<g id="node10" class="node">
<title>94191604472672</title>
<polygon fill="none" stroke="black" points="0,-56.5 0,-92.5 182,-92.5 182,-56.5 0,-56.5"/>
<text text-anchor="middle" x="91" y="-70.8" font-family="Times,serif" font-size="14.00">b value: &#45;3.0000, grad: 0.0000</text>
</g>
<!-- 94191604472672&#45;&gt;94191604473056* -->
<g id="edge9" class="edge">
<title>94191604472672&#45;&gt;94191604473056*</title>
<path fill="none" stroke="black" d="M182.18,-90.52C191.42,-92.16 200.38,-93.75 208.47,-95.19"/>
<polygon fill="black" stroke="black" points="208.1,-98.68 218.56,-96.98 209.32,-91.79 208.1,-98.68"/>
</g>
</g>
</svg>
