<?xml version="1.0" encoding="UTF-8" standalone="no"?>
<!DOCTYPE svg PUBLIC "-//W3C//DTD SVG 1.1//EN"
 "http://www.w3.org/Graphics/SVG/1.1/DTD/svg11.dtd">
<!-- Generated by graphviz version 5.0.0 (0)
 -->
<!-- Pages: 1 -->
<svg width="2552pt" height="239pt"
 viewBox="0.00 0.00 2552.00 239.00" xmlns="http://www.w3.org/2000/svg" xmlns:xlink="http://www.w3.org/1999/xlink">
<g id="graph0" class="graph" transform="scale(1 1) rotate(0) translate(4 235)">
<polygon fill="white" stroke="transparent" points="-4,4 -4,-235 2548,-235 2548,4 -4,4"/>
<!-- 94547497251376 -->
<g id="node1" class="node">
<title>94547497251376</title>
<polygon fill="none" stroke="black" points="2366,-82.5 2366,-118.5 2544,-118.5 2544,-82.5 2366,-82.5"/>
<text text-anchor="middle" x="2455" y="-96.8" font-family="Times,serif" font-size="14.00">o value: 0.7071, grad: 1.0000</text>
</g>
<!-- 94547497251376/ -->
<g id="node2" class="node">
<title>94547497251376/</title>
<ellipse fill="none" stroke="black" cx="2303" cy="-100.5" rx="27" ry="18"/>
<text text-anchor="middle" x="2303" y="-96.8" font-family="Times,serif" font-size="14.00">/</text>
</g>
<!-- 94547497251376/&#45;&gt;94547497251376 -->
<g id="edge1" class="edge">
<title>94547497251376/&#45;&gt;94547497251376</title>
<path fill="none" stroke="black" d="M2330.13,-100.5C2337.65,-100.5 2346.33,-100.5 2355.54,-100.5"/>
<polygon fill="black" stroke="black" points="2355.7,-104 2365.7,-100.5 2355.7,-97 2355.7,-104"/>
</g>
<!-- 94547497252672 -->
<g id="node3" class="node">
<title>94547497252672</title>
<polygon fill="none" stroke="black" points="2040,-55.5 2040,-91.5 2236,-91.5 2236,-55.5 2040,-55.5"/>
<text text-anchor="middle" x="2138" y="-69.8" font-family="Times,serif" font-size="14.00">e &#45; 1 value: 4.8284, grad: 0.1464</text>
</g>
<!-- 94547497252672&#45;&gt;94547497251376/ -->
<g id="edge2" class="edge">
<title>94547497252672&#45;&gt;94547497251376/</title>
<path fill="none" stroke="black" d="M2236.17,-89.6C2246.97,-91.38 2257.39,-93.11 2266.63,-94.64"/>
<polygon fill="black" stroke="black" points="2266.08,-98.1 2276.51,-96.28 2267.22,-91.19 2266.08,-98.1"/>
</g>
<!-- 94547497252864 -->
<g id="node4" class="node">
<title>94547497252864</title>
<polygon fill="none" stroke="black" points="2036,-110.5 2036,-146.5 2240,-146.5 2240,-110.5 2036,-110.5"/>
<text text-anchor="middle" x="2138" y="-124.8" font-family="Times,serif" font-size="14.00">e + 1 value: 6.8284, grad: &#45;0.1036</text>
</g>
<!-- 94547497252864&#45;&gt;94547497251376/ -->
<g id="edge3" class="edge">
<title>94547497252864&#45;&gt;94547497251376/</title>
<path fill="none" stroke="black" d="M2240.38,-111.09C2249.65,-109.49 2258.56,-107.96 2266.58,-106.58"/>
<polygon fill="black" stroke="black" points="2267.3,-110.01 2276.57,-104.87 2266.12,-103.11 2267.3,-110.01"/>
</g>
<!-- 94547497252672&#45; -->
<g id="node5" class="node">
<title>94547497252672&#45;</title>
<ellipse fill="none" stroke="black" cx="1973" cy="-73.5" rx="27" ry="18"/>
<text text-anchor="middle" x="1973" y="-69.8" font-family="Times,serif" font-size="14.00">&#45;</text>
</g>
<!-- 94547497252672&#45;&#45;&gt;94547497252672 -->
<g id="edge4" class="edge">
<title>94547497252672&#45;&#45;&gt;94547497252672</title>
<path fill="none" stroke="black" d="M2000.19,-73.5C2008.8,-73.5 2018.97,-73.5 2029.82,-73.5"/>
<polygon fill="black" stroke="black" points="2029.95,-77 2039.95,-73.5 2029.95,-70 2029.95,-77"/>
</g>
<!-- 94547497251600 -->
<g id="node6" class="node">
<title>94547497251600</title>
<polygon fill="none" stroke="black" points="1672,-0.5 1672,-36.5 1910,-36.5 1910,-0.5 1672,-0.5"/>
<text text-anchor="middle" x="1791" y="-14.8" font-family="Times,serif" font-size="14.00">exp(n * 2.0) value: 5.8284, grad: 0.0429</text>
</g>
<!-- 94547497251600&#45;&gt;94547497252672&#45; -->
<g id="edge5" class="edge">
<title>94547497251600&#45;&gt;94547497252672&#45;</title>
<path fill="none" stroke="black" d="M1879.86,-36.55C1890.1,-39.26 1900.34,-42.25 1910,-45.5 1920.69,-49.1 1932.03,-53.91 1942.05,-58.52"/>
<polygon fill="black" stroke="black" points="1940.65,-61.73 1951.18,-62.84 1943.64,-55.4 1940.65,-61.73"/>
</g>
<!-- 94547497251760 -->
<g id="node7" class="node">
<title>94547497251760</title>
<polygon fill="none" stroke="black" points="1692,-55.5 1692,-91.5 1890,-91.5 1890,-55.5 1692,-55.5"/>
<text text-anchor="middle" x="1791" y="-69.8" font-family="Times,serif" font-size="14.00">N/A value: 1.0000, grad: &#45;0.1464</text>
</g>
<!-- 94547497251760&#45;&gt;94547497252672&#45; -->
<g id="edge6" class="edge">
<title>94547497251760&#45;&gt;94547497252672&#45;</title>
<path fill="none" stroke="black" d="M1890.16,-73.5C1906.39,-73.5 1922.26,-73.5 1935.64,-73.5"/>
<polygon fill="black" stroke="black" points="1935.8,-77 1945.8,-73.5 1935.8,-70 1935.8,-77"/>
</g>
<!-- 94547497251600exp -->
<g id="node8" class="node">
<title>94547497251600exp</title>
<ellipse fill="none" stroke="black" cx="1609" cy="-46.5" rx="27" ry="18"/>
<text text-anchor="middle" x="1609" y="-42.8" font-family="Times,serif" font-size="14.00">exp</text>
</g>
<!-- 94547497251600exp&#45;&gt;94547497251600 -->
<g id="edge7" class="edge">
<title>94547497251600exp&#45;&gt;94547497251600</title>
<path fill="none" stroke="black" d="M1635.41,-42.55C1643.72,-41.26 1653.58,-39.72 1664.24,-38.06"/>
<polygon fill="black" stroke="black" points="1664.89,-41.5 1674.24,-36.51 1663.82,-34.59 1664.89,-41.5"/>
</g>
<!-- 94547497250432 -->
<g id="node9" class="node">
<title>94547497250432</title>
<polygon fill="none" stroke="black" points="1352,-55.5 1352,-91.5 1546,-91.5 1546,-55.5 1352,-55.5"/>
<text text-anchor="middle" x="1449" y="-69.8" font-family="Times,serif" font-size="14.00">N/A value: 1.7627, grad: 0.2500</text>
</g>
<!-- 94547497250432&#45;&gt;94547497251600exp -->
<g id="edge8" class="edge">
<title>94547497250432&#45;&gt;94547497251600exp</title>
<path fill="none" stroke="black" d="M1546.01,-57.09C1555.35,-55.5 1564.37,-53.96 1572.49,-52.57"/>
<polygon fill="black" stroke="black" points="1573.34,-55.97 1582.6,-50.84 1572.16,-49.07 1573.34,-55.97"/>
</g>
<!-- 94547497252112exp -->
<g id="node28" class="node">
<title>94547497252112exp</title>
<ellipse fill="none" stroke="black" cx="1609" cy="-114.5" rx="27" ry="18"/>
<text text-anchor="middle" x="1609" y="-110.8" font-family="Times,serif" font-size="14.00">exp</text>
</g>
<!-- 94547497250432&#45;&gt;94547497252112exp -->
<g id="edge28" class="edge">
<title>94547497250432&#45;&gt;94547497252112exp</title>
<path fill="none" stroke="black" d="M1519.76,-91.6C1538.48,-96.46 1557.9,-101.5 1573.73,-105.61"/>
<polygon fill="black" stroke="black" points="1573.02,-109.04 1583.58,-108.16 1574.78,-102.26 1573.02,-109.04"/>
</g>
<!-- 94547497250432* -->
<g id="node10" class="node">
<title>94547497250432*</title>
<ellipse fill="none" stroke="black" cx="1289" cy="-73.5" rx="27" ry="18"/>
<text text-anchor="middle" x="1289" y="-69.8" font-family="Times,serif" font-size="14.00">*</text>
</g>
<!-- 94547497250432*&#45;&gt;94547497250432 -->
<g id="edge9" class="edge">
<title>94547497250432*&#45;&gt;94547497250432</title>
<path fill="none" stroke="black" d="M1316.09,-73.5C1323.62,-73.5 1332.34,-73.5 1341.63,-73.5"/>
<polygon fill="black" stroke="black" points="1341.92,-77 1351.92,-73.5 1341.92,-70 1341.92,-77"/>
</g>
<!-- 94547497250656 -->
<g id="node11" class="node">
<title>94547497250656</title>
<polygon fill="none" stroke="black" points="1040,-83.5 1040,-119.5 1218,-119.5 1218,-83.5 1040,-83.5"/>
<text text-anchor="middle" x="1129" y="-97.8" font-family="Times,serif" font-size="14.00">n value: 0.8814, grad: 0.5000</text>
</g>
<!-- 94547497250656&#45;&gt;94547497250432* -->
<g id="edge10" class="edge">
<title>94547497250656&#45;&gt;94547497250432*</title>
<path fill="none" stroke="black" d="M1218.24,-85.86C1230.43,-83.7 1242.33,-81.59 1252.74,-79.75"/>
<polygon fill="black" stroke="black" points="1253.38,-83.19 1262.62,-78 1252.16,-76.3 1253.38,-83.19"/>
</g>
<!-- 94547497250816 -->
<g id="node12" class="node">
<title>94547497250816</title>
<polygon fill="none" stroke="black" points="1032,-28.5 1032,-64.5 1226,-64.5 1226,-28.5 1032,-28.5"/>
<text text-anchor="middle" x="1129" y="-42.8" font-family="Times,serif" font-size="14.00">N/A value: 2.0000, grad: 0.2203</text>
</g>
<!-- 94547497250816&#45;&gt;94547497250432* -->
<g id="edge11" class="edge">
<title>94547497250816&#45;&gt;94547497250432*</title>
<path fill="none" stroke="black" d="M1226.01,-62.91C1235.35,-64.5 1244.37,-66.04 1252.49,-67.43"/>
<polygon fill="black" stroke="black" points="1252.16,-70.93 1262.6,-69.16 1253.34,-64.03 1252.16,-70.93"/>
</g>
<!-- 94547497250656+ -->
<g id="node13" class="node">
<title>94547497250656+</title>
<ellipse fill="none" stroke="black" cx="969" cy="-101.5" rx="27" ry="18"/>
<text text-anchor="middle" x="969" y="-97.8" font-family="Times,serif" font-size="14.00">+</text>
</g>
<!-- 94547497250656+&#45;&gt;94547497250656 -->
<g id="edge12" class="edge">
<title>94547497250656+&#45;&gt;94547497250656</title>
<path fill="none" stroke="black" d="M996.09,-101.5C1005.68,-101.5 1017.19,-101.5 1029.36,-101.5"/>
<polygon fill="black" stroke="black" points="1029.72,-105 1039.72,-101.5 1029.72,-98 1029.72,-105"/>
</g>
<!-- 94547497249856 -->
<g id="node14" class="node">
<title>94547497249856</title>
<polygon fill="none" stroke="black" points="656,-111.5 656,-147.5 906,-147.5 906,-111.5 656,-111.5"/>
<text text-anchor="middle" x="781" y="-125.8" font-family="Times,serif" font-size="14.00">x1w1 * x2w2 value: &#45;6.0000, grad: 0.5000</text>
</g>
<!-- 94547497249856&#45;&gt;94547497250656+ -->
<g id="edge13" class="edge">
<title>94547497249856&#45;&gt;94547497250656+</title>
<path fill="none" stroke="black" d="M901.64,-111.49C912.7,-109.82 923.22,-108.24 932.49,-106.85"/>
<polygon fill="black" stroke="black" points="933.01,-110.31 942.38,-105.36 931.97,-103.38 933.01,-110.31"/>
</g>
<!-- 94547497250016 -->
<g id="node15" class="node">
<title>94547497250016</title>
<polygon fill="none" stroke="black" points="692,-56.5 692,-92.5 870,-92.5 870,-56.5 692,-56.5"/>
<text text-anchor="middle" x="781" y="-70.8" font-family="Times,serif" font-size="14.00">b value: 6.8814, grad: 0.5000</text>
</g>
<!-- 94547497250016&#45;&gt;94547497250656+ -->
<g id="edge14" class="edge">
<title>94547497250016&#45;&gt;94547497250656+</title>
<path fill="none" stroke="black" d="M870.1,-87.29C892.23,-90.5 914.74,-93.77 932.58,-96.36"/>
<polygon fill="black" stroke="black" points="932.11,-99.83 942.51,-97.8 933.12,-92.9 932.11,-99.83"/>
</g>
<!-- 94547497249856+ -->
<g id="node16" class="node">
<title>94547497249856+</title>
<ellipse fill="none" stroke="black" cx="593" cy="-129.5" rx="27" ry="18"/>
<text text-anchor="middle" x="593" y="-125.8" font-family="Times,serif" font-size="14.00">+</text>
</g>
<!-- 94547497249856+&#45;&gt;94547497249856 -->
<g id="edge15" class="edge">
<title>94547497249856+&#45;&gt;94547497249856</title>
<path fill="none" stroke="black" d="M620.25,-129.5C627.61,-129.5 636.14,-129.5 645.36,-129.5"/>
<polygon fill="black" stroke="black" points="645.61,-133 655.61,-129.5 645.61,-126 645.61,-133"/>
</g>
<!-- 94547497249232 -->
<g id="node17" class="node">
<title>94547497249232</title>
<polygon fill="none" stroke="black" points="318,-139.5 318,-175.5 530,-175.5 530,-139.5 318,-139.5"/>
<text text-anchor="middle" x="424" y="-153.8" font-family="Times,serif" font-size="14.00">x1*w1 value: &#45;6.0000, grad: 0.5000</text>
</g>
<!-- 94547497249232&#45;&gt;94547497249856+ -->
<g id="edge16" class="edge">
<title>94547497249232&#45;&gt;94547497249856+</title>
<path fill="none" stroke="black" d="M530.29,-139.85C539.62,-138.28 548.56,-136.78 556.6,-135.44"/>
<polygon fill="black" stroke="black" points="557.31,-138.86 566.6,-133.76 556.16,-131.96 557.31,-138.86"/>
</g>
<!-- 94547497249424 -->
<g id="node18" class="node">
<title>94547497249424</title>
<polygon fill="none" stroke="black" points="320,-84.5 320,-120.5 528,-120.5 528,-84.5 320,-84.5"/>
<text text-anchor="middle" x="424" y="-98.8" font-family="Times,serif" font-size="14.00">x2*w2 value: 0.0000, grad: 0.5000</text>
</g>
<!-- 94547497249424&#45;&gt;94547497249856+ -->
<g id="edge17" class="edge">
<title>94547497249424&#45;&gt;94547497249856+</title>
<path fill="none" stroke="black" d="M528.39,-119.22C538.45,-120.84 548.09,-122.4 556.7,-123.79"/>
<polygon fill="black" stroke="black" points="556.21,-127.26 566.64,-125.4 557.33,-120.35 556.21,-127.26"/>
</g>
<!-- 94547497249232* -->
<g id="node19" class="node">
<title>94547497249232*</title>
<ellipse fill="none" stroke="black" cx="255" cy="-157.5" rx="27" ry="18"/>
<text text-anchor="middle" x="255" y="-153.8" font-family="Times,serif" font-size="14.00">*</text>
</g>
<!-- 94547497249232*&#45;&gt;94547497249232 -->
<g id="edge18" class="edge">
<title>94547497249232*&#45;&gt;94547497249232</title>
<path fill="none" stroke="black" d="M282.09,-157.5C289.65,-157.5 298.42,-157.5 307.83,-157.5"/>
<polygon fill="black" stroke="black" points="307.83,-161 317.83,-157.5 307.83,-154 307.83,-161"/>
</g>
<!-- 94547497248176 -->
<g id="node20" class="node">
<title>94547497248176</title>
<polygon fill="none" stroke="black" points="1.5,-194.5 1.5,-230.5 190.5,-230.5 190.5,-194.5 1.5,-194.5"/>
<text text-anchor="middle" x="96" y="-208.8" font-family="Times,serif" font-size="14.00">x1 value: 2.0000, grad: &#45;1.5000</text>
</g>
<!-- 94547497248176&#45;&gt;94547497249232* -->
<g id="edge19" class="edge">
<title>94547497248176&#45;&gt;94547497249232*</title>
<path fill="none" stroke="black" d="M165.11,-194.46C174.22,-191.66 183.38,-188.65 192,-185.5 202.51,-181.66 213.73,-176.83 223.69,-172.26"/>
<polygon fill="black" stroke="black" points="225.22,-175.41 232.8,-168.01 222.26,-169.07 225.22,-175.41"/>
</g>
<!-- 94547497248336 -->
<g id="node21" class="node">
<title>94547497248336</title>
<polygon fill="none" stroke="black" points="0,-139.5 0,-175.5 192,-175.5 192,-139.5 0,-139.5"/>
<text text-anchor="middle" x="96" y="-153.8" font-family="Times,serif" font-size="14.00">w1 value: &#45;3.0000, grad: 1.0000</text>
</g>
<!-- 94547497248336&#45;&gt;94547497249232* -->
<g id="edge20" class="edge">
<title>94547497248336&#45;&gt;94547497249232*</title>
<path fill="none" stroke="black" d="M192.4,-157.5C201.32,-157.5 209.93,-157.5 217.75,-157.5"/>
<polygon fill="black" stroke="black" points="217.86,-161 227.86,-157.5 217.86,-154 217.86,-161"/>
</g>
<!-- 94547497249424* -->
<g id="node22" class="node">
<title>94547497249424*</title>
<ellipse fill="none" stroke="black" cx="255" cy="-102.5" rx="27" ry="18"/>
<text text-anchor="middle" x="255" y="-98.8" font-family="Times,serif" font-size="14.00">*</text>
</g>
<!-- 94547497249424*&#45;&gt;94547497249424 -->
<g id="edge21" class="edge">
<title>94547497249424*&#45;&gt;94547497249424</title>
<path fill="none" stroke="black" d="M282.09,-102.5C290.14,-102.5 299.57,-102.5 309.67,-102.5"/>
<polygon fill="black" stroke="black" points="309.97,-106 319.97,-102.5 309.97,-99 309.97,-106"/>
</g>
<!-- 94547497248688 -->
<g id="node23" class="node">
<title>94547497248688</title>
<polygon fill="none" stroke="black" points="3.5,-84.5 3.5,-120.5 188.5,-120.5 188.5,-84.5 3.5,-84.5"/>
<text text-anchor="middle" x="96" y="-98.8" font-family="Times,serif" font-size="14.00">x2 value: 0.0000, grad: 0.5000</text>
</g>
<!-- 94547497248688&#45;&gt;94547497249424* -->
<g id="edge22" class="edge">
<title>94547497248688&#45;&gt;94547497249424*</title>
<path fill="none" stroke="black" d="M188.78,-102.5C198.9,-102.5 208.71,-102.5 217.52,-102.5"/>
<polygon fill="black" stroke="black" points="217.72,-106 227.72,-102.5 217.72,-99 217.72,-106"/>
</g>
<!-- 94547497248848 -->
<g id="node24" class="node">
<title>94547497248848</title>
<polygon fill="none" stroke="black" points="2,-29.5 2,-65.5 190,-65.5 190,-29.5 2,-29.5"/>
<text text-anchor="middle" x="96" y="-43.8" font-family="Times,serif" font-size="14.00">w2 value: 1.0000, grad: 0.0000</text>
</g>
<!-- 94547497248848&#45;&gt;94547497249424* -->
<g id="edge23" class="edge">
<title>94547497248848&#45;&gt;94547497249424*</title>
<path fill="none" stroke="black" d="M165.11,-65.54C174.22,-68.34 183.38,-71.35 192,-74.5 202.51,-78.34 213.73,-83.17 223.69,-87.74"/>
<polygon fill="black" stroke="black" points="222.26,-90.93 232.8,-91.99 225.22,-84.59 222.26,-90.93"/>
</g>
<!-- 94547497252864+ -->
<g id="node25" class="node">
<title>94547497252864+</title>
<ellipse fill="none" stroke="black" cx="1973" cy="-128.5" rx="27" ry="18"/>
<text text-anchor="middle" x="1973" y="-124.8" font-family="Times,serif" font-size="14.00">+</text>
</g>
<!-- 94547497252864+&#45;&gt;94547497252864 -->
<g id="edge24" class="edge">
<title>94547497252864+&#45;&gt;94547497252864</title>
<path fill="none" stroke="black" d="M2000.19,-128.5C2007.66,-128.5 2016.3,-128.5 2025.54,-128.5"/>
<polygon fill="black" stroke="black" points="2025.77,-132 2035.77,-128.5 2025.77,-125 2025.77,-132"/>
</g>
<!-- 94547497252112 -->
<g id="node26" class="node">
<title>94547497252112</title>
<polygon fill="none" stroke="black" points="1672,-110.5 1672,-146.5 1910,-146.5 1910,-110.5 1672,-110.5"/>
<text text-anchor="middle" x="1791" y="-124.8" font-family="Times,serif" font-size="14.00">exp(n * 2.0) value: 5.8284, grad: 0.0429</text>
</g>
<!-- 94547497252112&#45;&gt;94547497252864+ -->
<g id="edge25" class="edge">
<title>94547497252112&#45;&gt;94547497252864+</title>
<path fill="none" stroke="black" d="M1910.05,-128.5C1919.17,-128.5 1927.85,-128.5 1935.68,-128.5"/>
<polygon fill="black" stroke="black" points="1935.79,-132 1945.79,-128.5 1935.79,-125 1935.79,-132"/>
</g>
<!-- 94547497252272 -->
<g id="node27" class="node">
<title>94547497252272</title>
<polygon fill="none" stroke="black" points="1692,-165.5 1692,-201.5 1890,-201.5 1890,-165.5 1692,-165.5"/>
<text text-anchor="middle" x="1791" y="-179.8" font-family="Times,serif" font-size="14.00">N/A value: 1.0000, grad: &#45;0.1036</text>
</g>
<!-- 94547497252272&#45;&gt;94547497252864+ -->
<g id="edge26" class="edge">
<title>94547497252272&#45;&gt;94547497252864+</title>
<path fill="none" stroke="black" d="M1879.86,-165.45C1890.1,-162.74 1900.34,-159.75 1910,-156.5 1920.69,-152.9 1932.03,-148.09 1942.05,-143.48"/>
<polygon fill="black" stroke="black" points="1943.64,-146.6 1951.18,-139.16 1940.65,-140.27 1943.64,-146.6"/>
</g>
<!-- 94547497252112exp&#45;&gt;94547497252112 -->
<g id="edge27" class="edge">
<title>94547497252112exp&#45;&gt;94547497252112</title>
<path fill="none" stroke="black" d="M1636.17,-116.54C1643.7,-117.12 1652.45,-117.8 1661.89,-118.54"/>
<polygon fill="black" stroke="black" points="1661.71,-122.03 1671.95,-119.32 1662.26,-115.05 1661.71,-122.03"/>
</g>
</g>
</svg>
