<?xml version="1.0" encoding="UTF-8" standalone="no"?>
<!DOCTYPE svg PUBLIC "-//W3C//DTD SVG 1.1//EN"
 "http://www.w3.org/Graphics/SVG/1.1/DTD/svg11.dtd">
<!-- Generated by graphviz version 5.0.0 (0)
 -->
<!-- Pages: 1 -->
<svg width="1129pt" height="156pt"
 viewBox="0.00 0.00 1129.00 156.00" xmlns="http://www.w3.org/2000/svg" xmlns:xlink="http://www.w3.org/1999/xlink">
<g id="graph0" class="graph" transform="scale(1 1) rotate(0) translate(4 152)">
<polygon fill="white" stroke="transparent" points="-4,4 -4,-152 1125,-152 1125,4 -4,4"/>
<!-- 140724030109872 -->
<g id="node1" class="node">
<title>140724030109872</title>
<polygon fill="none" stroke="black" points="938,-27.5 938,-63.5 1121,-63.5 1121,-27.5 938,-27.5"/>
<text text-anchor="middle" x="1029.5" y="-41.8" font-family="Times,serif" font-size="14.00">l: value: &#45;8.00, grad: 1.000000</text>
</g>
<!-- 140724030109872+ -->
<g id="node2" class="node">
<title>140724030109872+</title>
<ellipse fill="none" stroke="black" cx="875" cy="-45.5" rx="27" ry="18"/>
<text text-anchor="middle" x="875" y="-41.8" font-family="Times,serif" font-size="14.00">+</text>
</g>
<!-- 140724030109872+&#45;&gt;140724030109872 -->
<g id="edge1" class="edge">
<title>140724030109872+&#45;&gt;140724030109872</title>
<path fill="none" stroke="black" d="M902.22,-45.5C909.72,-45.5 918.38,-45.5 927.58,-45.5"/>
<polygon fill="black" stroke="black" points="927.75,-49 937.75,-45.5 927.75,-42 927.75,-49"/>
</g>
<!-- 140724030109520 -->
<g id="node3" class="node">
<title>140724030109520</title>
<polygon fill="none" stroke="black" points="626,-55.5 626,-91.5 812,-91.5 812,-55.5 626,-55.5"/>
<text text-anchor="middle" x="719" y="-69.8" font-family="Times,serif" font-size="14.00">d: value: 4.00, grad: &#45;2.000000</text>
</g>
<!-- 140724030109520&#45;&gt;140724030109872+ -->
<g id="edge2" class="edge">
<title>140724030109520&#45;&gt;140724030109872+</title>
<path fill="none" stroke="black" d="M812.25,-56.73C821.51,-55.04 830.47,-53.41 838.56,-51.94"/>
<polygon fill="black" stroke="black" points="839.42,-55.34 848.63,-50.11 838.17,-48.46 839.42,-55.34"/>
</g>
<!-- 140724030109784 -->
<g id="node4" class="node">
<title>140724030109784</title>
<polygon fill="none" stroke="black" points="627,-0.5 627,-36.5 811,-36.5 811,-0.5 627,-0.5"/>
<text text-anchor="middle" x="719" y="-14.8" font-family="Times,serif" font-size="14.00">f: value: &#45;2.00, grad: 4.000000</text>
</g>
<!-- 140724030109784&#45;&gt;140724030109872+ -->
<g id="edge3" class="edge">
<title>140724030109784&#45;&gt;140724030109872+</title>
<path fill="none" stroke="black" d="M811.36,-34.52C820.93,-36.19 830.18,-37.82 838.51,-39.28"/>
<polygon fill="black" stroke="black" points="838.07,-42.75 848.53,-41.03 839.28,-35.86 838.07,-42.75"/>
</g>
<!-- 140724030109520+ -->
<g id="node5" class="node">
<title>140724030109520+</title>
<ellipse fill="none" stroke="black" cx="563" cy="-73.5" rx="27" ry="18"/>
<text text-anchor="middle" x="563" y="-69.8" font-family="Times,serif" font-size="14.00">+</text>
</g>
<!-- 140724030109520+&#45;&gt;140724030109520 -->
<g id="edge4" class="edge">
<title>140724030109520+&#45;&gt;140724030109520</title>
<path fill="none" stroke="black" d="M590.12,-73.5C597.62,-73.5 606.29,-73.5 615.5,-73.5"/>
<polygon fill="black" stroke="black" points="615.69,-77 625.69,-73.5 615.69,-70 615.69,-77"/>
</g>
<!-- 140724030109368 -->
<g id="node6" class="node">
<title>140724030109368</title>
<polygon fill="none" stroke="black" points="313.5,-83.5 313.5,-119.5 498.5,-119.5 498.5,-83.5 313.5,-83.5"/>
<text text-anchor="middle" x="406" y="-97.8" font-family="Times,serif" font-size="14.00">e: value: &#45;6.00, grad: 0.000000</text>
</g>
<!-- 140724030109368&#45;&gt;140724030109520+ -->
<g id="edge5" class="edge">
<title>140724030109368&#45;&gt;140724030109520+</title>
<path fill="none" stroke="black" d="M498.51,-84.97C508.48,-83.17 518.13,-81.42 526.77,-79.86"/>
<polygon fill="black" stroke="black" points="527.55,-83.28 536.77,-78.06 526.3,-76.39 527.55,-83.28"/>
</g>
<!-- 140724030109280 -->
<g id="node7" class="node">
<title>140724030109280</title>
<polygon fill="none" stroke="black" points="312,-28.5 312,-64.5 500,-64.5 500,-28.5 312,-28.5"/>
<text text-anchor="middle" x="406" y="-42.8" font-family="Times,serif" font-size="14.00">c: value: 10.00, grad: 0.000000</text>
</g>
<!-- 140724030109280&#45;&gt;140724030109520+ -->
<g id="edge6" class="edge">
<title>140724030109280&#45;&gt;140724030109520+</title>
<path fill="none" stroke="black" d="M500.29,-62.75C509.57,-64.37 518.52,-65.93 526.61,-67.33"/>
<polygon fill="black" stroke="black" points="526.22,-70.82 536.68,-69.09 527.42,-63.92 526.22,-70.82"/>
</g>
<!-- 140724030109368+ -->
<g id="node8" class="node">
<title>140724030109368+</title>
<ellipse fill="none" stroke="black" cx="249" cy="-101.5" rx="27" ry="18"/>
<text text-anchor="middle" x="249" y="-97.8" font-family="Times,serif" font-size="14.00">+</text>
</g>
<!-- 140724030109368+&#45;&gt;140724030109368 -->
<g id="edge7" class="edge">
<title>140724030109368+&#45;&gt;140724030109368</title>
<path fill="none" stroke="black" d="M276.29,-101.5C284.26,-101.5 293.54,-101.5 303.39,-101.5"/>
<polygon fill="black" stroke="black" points="303.41,-105 313.41,-101.5 303.41,-98 303.41,-105"/>
</g>
<!-- 140724030108416 -->
<g id="node9" class="node">
<title>140724030108416</title>
<polygon fill="none" stroke="black" points="2.5,-111.5 2.5,-147.5 183.5,-147.5 183.5,-111.5 2.5,-111.5"/>
<text text-anchor="middle" x="93" y="-125.8" font-family="Times,serif" font-size="14.00">a: value: 2.00, grad: 0.000000</text>
</g>
<!-- 140724030108416&#45;&gt;140724030109368+ -->
<g id="edge8" class="edge">
<title>140724030108416&#45;&gt;140724030109368+</title>
<path fill="none" stroke="black" d="M183.58,-113.21C193.86,-111.34 203.82,-109.53 212.72,-107.91"/>
<polygon fill="black" stroke="black" points="213.42,-111.34 222.63,-106.11 212.17,-104.46 213.42,-111.34"/>
</g>
<!-- 140724030108568 -->
<g id="node10" class="node">
<title>140724030108568</title>
<polygon fill="none" stroke="black" points="0,-56.5 0,-92.5 186,-92.5 186,-56.5 0,-56.5"/>
<text text-anchor="middle" x="93" y="-70.8" font-family="Times,serif" font-size="14.00">b: value: &#45;3.00, grad: 0.000000</text>
</g>
<!-- 140724030108568&#45;&gt;140724030109368+ -->
<g id="edge9" class="edge">
<title>140724030108568&#45;&gt;140724030109368+</title>
<path fill="none" stroke="black" d="M186.25,-90.67C195.51,-92.3 204.47,-93.87 212.56,-95.29"/>
<polygon fill="black" stroke="black" points="212.18,-98.77 222.63,-97.05 213.39,-91.88 212.18,-98.77"/>
</g>
</g>
</svg>
