<?xml version="1.0" encoding="UTF-8" standalone="no"?>
<!DOCTYPE svg PUBLIC "-//W3C//DTD SVG 1.1//EN"
 "http://www.w3.org/Graphics/SVG/1.1/DTD/svg11.dtd">
<!-- Generated by graphviz version 5.0.0 (0)
 -->
<!-- Pages: 1 -->
<svg width="1632pt" height="210pt"
 viewBox="0.00 0.00 1632.00 210.00" xmlns="http://www.w3.org/2000/svg" xmlns:xlink="http://www.w3.org/1999/xlink">
<g id="graph0" class="graph" transform="scale(1 1) rotate(0) translate(4 206)">
<polygon fill="white" stroke="transparent" points="-4,4 -4,-206 1628,-206 1628,4 -4,4"/>
<!-- 94837958815184 -->
<g id="node1" class="node">
<title>94837958815184</title>
<polygon fill="none" stroke="black" points="1424,-54.5 1424,-90.5 1624,-90.5 1624,-54.5 1424,-54.5"/>
<text text-anchor="middle" x="1435.5" y="-68.8" font-family="Times,serif" font-size="14.00">o</text>
<polyline fill="none" stroke="black" points="1447,-54.5 1447,-90.5 "/>
<text text-anchor="middle" x="1492.5" y="-68.8" font-family="Times,serif" font-size="14.00">value: 0.7071</text>
<polyline fill="none" stroke="black" points="1538,-54.5 1538,-90.5 "/>
<text text-anchor="middle" x="1581" y="-68.8" font-family="Times,serif" font-size="14.00">grad: 0.0000</text>
</g>
<!-- 94837958815184tanh -->
<g id="node2" class="node">
<title>94837958815184tanh</title>
<ellipse fill="none" stroke="black" cx="1361" cy="-72.5" rx="27" ry="18"/>
<text text-anchor="middle" x="1361" y="-68.8" font-family="Times,serif" font-size="14.00">tanh</text>
</g>
<!-- 94837958815184tanh&#45;&gt;94837958815184 -->
<g id="edge1" class="edge">
<title>94837958815184tanh&#45;&gt;94837958815184</title>
<path fill="none" stroke="black" d="M1388.23,-72.5C1395.69,-72.5 1404.31,-72.5 1413.52,-72.5"/>
<polygon fill="black" stroke="black" points="1413.71,-76 1423.71,-72.5 1413.71,-69 1413.71,-76"/>
</g>
<!-- 94837958815024 -->
<g id="node3" class="node">
<title>94837958815024</title>
<polygon fill="none" stroke="black" points="1098,-54.5 1098,-90.5 1298,-90.5 1298,-54.5 1098,-54.5"/>
<text text-anchor="middle" x="1109.5" y="-68.8" font-family="Times,serif" font-size="14.00">n</text>
<polyline fill="none" stroke="black" points="1121,-54.5 1121,-90.5 "/>
<text text-anchor="middle" x="1166.5" y="-68.8" font-family="Times,serif" font-size="14.00">value: 0.8814</text>
<polyline fill="none" stroke="black" points="1212,-54.5 1212,-90.5 "/>
<text text-anchor="middle" x="1255" y="-68.8" font-family="Times,serif" font-size="14.00">grad: 0.0000</text>
</g>
<!-- 94837958815024&#45;&gt;94837958815184tanh -->
<g id="edge2" class="edge">
<title>94837958815024&#45;&gt;94837958815184tanh</title>
<path fill="none" stroke="black" d="M1298.21,-72.5C1307.2,-72.5 1315.86,-72.5 1323.7,-72.5"/>
<polygon fill="black" stroke="black" points="1323.85,-76 1333.85,-72.5 1323.85,-69 1323.85,-76"/>
</g>
<!-- 94837958815024+ -->
<g id="node4" class="node">
<title>94837958815024+</title>
<ellipse fill="none" stroke="black" cx="1035" cy="-72.5" rx="27" ry="18"/>
<text text-anchor="middle" x="1035" y="-68.8" font-family="Times,serif" font-size="14.00">+</text>
</g>
<!-- 94837958815024+&#45;&gt;94837958815024 -->
<g id="edge3" class="edge">
<title>94837958815024+&#45;&gt;94837958815024</title>
<path fill="none" stroke="black" d="M1062.23,-72.5C1069.69,-72.5 1078.31,-72.5 1087.52,-72.5"/>
<polygon fill="black" stroke="black" points="1087.71,-76 1097.71,-72.5 1087.71,-69 1087.71,-76"/>
</g>
<!-- 94837958814608 -->
<g id="node5" class="node">
<title>94837958814608</title>
<polygon fill="none" stroke="black" points="700,-82.5 700,-118.5 972,-118.5 972,-82.5 700,-82.5"/>
<text text-anchor="middle" x="745.5" y="-96.8" font-family="Times,serif" font-size="14.00">x1w1 * x2w2</text>
<polyline fill="none" stroke="black" points="791,-82.5 791,-118.5 "/>
<text text-anchor="middle" x="838.5" y="-96.8" font-family="Times,serif" font-size="14.00">value: &#45;6.0000</text>
<polyline fill="none" stroke="black" points="886,-82.5 886,-118.5 "/>
<text text-anchor="middle" x="929" y="-96.8" font-family="Times,serif" font-size="14.00">grad: 0.0000</text>
</g>
<!-- 94837958814608&#45;&gt;94837958815024+ -->
<g id="edge4" class="edge">
<title>94837958814608&#45;&gt;94837958815024+</title>
<path fill="none" stroke="black" d="M963.71,-82.49C976.24,-80.71 988.1,-79.02 998.39,-77.56"/>
<polygon fill="black" stroke="black" points="999.1,-81 1008.51,-76.12 998.12,-74.07 999.1,-81"/>
</g>
<!-- 94837958814768 -->
<g id="node6" class="node">
<title>94837958814768</title>
<polygon fill="none" stroke="black" points="736,-27.5 736,-63.5 936,-63.5 936,-27.5 736,-27.5"/>
<text text-anchor="middle" x="747.5" y="-41.8" font-family="Times,serif" font-size="14.00">b</text>
<polyline fill="none" stroke="black" points="759,-27.5 759,-63.5 "/>
<text text-anchor="middle" x="804.5" y="-41.8" font-family="Times,serif" font-size="14.00">value: 6.8814</text>
<polyline fill="none" stroke="black" points="850,-27.5 850,-63.5 "/>
<text text-anchor="middle" x="893" y="-41.8" font-family="Times,serif" font-size="14.00">grad: 0.0000</text>
</g>
<!-- 94837958814768&#45;&gt;94837958815024+ -->
<g id="edge5" class="edge">
<title>94837958814768&#45;&gt;94837958815024+</title>
<path fill="none" stroke="black" d="M936.08,-59.08C958.29,-62.12 980.47,-65.16 998.09,-67.58"/>
<polygon fill="black" stroke="black" points="998.05,-71.1 1008.43,-69 999,-64.17 998.05,-71.1"/>
</g>
<!-- 94837958814608+ -->
<g id="node7" class="node">
<title>94837958814608+</title>
<ellipse fill="none" stroke="black" cx="637" cy="-100.5" rx="27" ry="18"/>
<text text-anchor="middle" x="637" y="-96.8" font-family="Times,serif" font-size="14.00">+</text>
</g>
<!-- 94837958814608+&#45;&gt;94837958814608 -->
<g id="edge6" class="edge">
<title>94837958814608+&#45;&gt;94837958814608</title>
<path fill="none" stroke="black" d="M664.16,-100.5C671.62,-100.5 680.31,-100.5 689.74,-100.5"/>
<polygon fill="black" stroke="black" points="689.83,-104 699.83,-100.5 689.83,-97 689.83,-104"/>
</g>
<!-- 94837958814160 -->
<g id="node8" class="node">
<title>94837958814160</title>
<polygon fill="none" stroke="black" points="340,-110.5 340,-146.5 574,-146.5 574,-110.5 340,-110.5"/>
<text text-anchor="middle" x="366.5" y="-124.8" font-family="Times,serif" font-size="14.00">x1*w1</text>
<polyline fill="none" stroke="black" points="393,-110.5 393,-146.5 "/>
<text text-anchor="middle" x="440.5" y="-124.8" font-family="Times,serif" font-size="14.00">value: &#45;6.0000</text>
<polyline fill="none" stroke="black" points="488,-110.5 488,-146.5 "/>
<text text-anchor="middle" x="531" y="-124.8" font-family="Times,serif" font-size="14.00">grad: 0.0000</text>
</g>
<!-- 94837958814160&#45;&gt;94837958814608+ -->
<g id="edge7" class="edge">
<title>94837958814160&#45;&gt;94837958814608+</title>
<path fill="none" stroke="black" d="M572.49,-110.49C582.46,-108.92 591.96,-107.43 600.43,-106.1"/>
<polygon fill="black" stroke="black" points="601.24,-109.51 610.57,-104.5 600.15,-102.6 601.24,-109.51"/>
</g>
<!-- 94837958814352 -->
<g id="node9" class="node">
<title>94837958814352</title>
<polygon fill="none" stroke="black" points="342,-55.5 342,-91.5 572,-91.5 572,-55.5 342,-55.5"/>
<text text-anchor="middle" x="368.5" y="-69.8" font-family="Times,serif" font-size="14.00">x2*w2</text>
<polyline fill="none" stroke="black" points="395,-55.5 395,-91.5 "/>
<text text-anchor="middle" x="440.5" y="-69.8" font-family="Times,serif" font-size="14.00">value: 0.0000</text>
<polyline fill="none" stroke="black" points="486,-55.5 486,-91.5 "/>
<text text-anchor="middle" x="529" y="-69.8" font-family="Times,serif" font-size="14.00">grad: 0.0000</text>
</g>
<!-- 94837958814352&#45;&gt;94837958814608+ -->
<g id="edge8" class="edge">
<title>94837958814352&#45;&gt;94837958814608+</title>
<path fill="none" stroke="black" d="M572.24,-90.83C582.35,-92.36 591.98,-93.82 600.56,-95.12"/>
<polygon fill="black" stroke="black" points="600.05,-98.59 610.46,-96.63 601.1,-91.67 600.05,-98.59"/>
</g>
<!-- 94837958814160* -->
<g id="node10" class="node">
<title>94837958814160*</title>
<ellipse fill="none" stroke="black" cx="277" cy="-128.5" rx="27" ry="18"/>
<text text-anchor="middle" x="277" y="-124.8" font-family="Times,serif" font-size="14.00">*</text>
</g>
<!-- 94837958814160*&#45;&gt;94837958814160 -->
<g id="edge9" class="edge">
<title>94837958814160*&#45;&gt;94837958814160</title>
<path fill="none" stroke="black" d="M304.26,-128.5C311.65,-128.5 320.21,-128.5 329.43,-128.5"/>
<polygon fill="black" stroke="black" points="329.66,-132 339.66,-128.5 329.66,-125 329.66,-132"/>
</g>
<!-- 94837958810832 -->
<g id="node11" class="node">
<title>94837958810832</title>
<polygon fill="none" stroke="black" points="3.5,-165.5 3.5,-201.5 210.5,-201.5 210.5,-165.5 3.5,-165.5"/>
<text text-anchor="middle" x="18.5" y="-179.8" font-family="Times,serif" font-size="14.00">x1</text>
<polyline fill="none" stroke="black" points="33.5,-165.5 33.5,-201.5 "/>
<text text-anchor="middle" x="79" y="-179.8" font-family="Times,serif" font-size="14.00">value: 2.0000</text>
<polyline fill="none" stroke="black" points="124.5,-165.5 124.5,-201.5 "/>
<text text-anchor="middle" x="167.5" y="-179.8" font-family="Times,serif" font-size="14.00">grad: 0.0000</text>
</g>
<!-- 94837958810832&#45;&gt;94837958814160* -->
<g id="edge10" class="edge">
<title>94837958810832&#45;&gt;94837958814160*</title>
<path fill="none" stroke="black" d="M185.47,-165.45C195.15,-162.7 204.86,-159.7 214,-156.5 224.56,-152.8 235.79,-148.01 245.76,-143.43"/>
<polygon fill="black" stroke="black" points="247.29,-146.58 254.86,-139.16 244.32,-140.24 247.29,-146.58"/>
</g>
<!-- 94837958813520 -->
<g id="node12" class="node">
<title>94837958813520</title>
<polygon fill="none" stroke="black" points="0,-110.5 0,-146.5 214,-146.5 214,-110.5 0,-110.5"/>
<text text-anchor="middle" x="16.5" y="-124.8" font-family="Times,serif" font-size="14.00">w1</text>
<polyline fill="none" stroke="black" points="33,-110.5 33,-146.5 "/>
<text text-anchor="middle" x="80.5" y="-124.8" font-family="Times,serif" font-size="14.00">value: &#45;3.0000</text>
<polyline fill="none" stroke="black" points="128,-110.5 128,-146.5 "/>
<text text-anchor="middle" x="171" y="-124.8" font-family="Times,serif" font-size="14.00">grad: 0.0000</text>
</g>
<!-- 94837958813520&#45;&gt;94837958814160* -->
<g id="edge11" class="edge">
<title>94837958813520&#45;&gt;94837958814160*</title>
<path fill="none" stroke="black" d="M214.4,-128.5C223.35,-128.5 231.94,-128.5 239.71,-128.5"/>
<polygon fill="black" stroke="black" points="239.76,-132 249.76,-128.5 239.76,-125 239.76,-132"/>
</g>
<!-- 94837958814352* -->
<g id="node13" class="node">
<title>94837958814352*</title>
<ellipse fill="none" stroke="black" cx="277" cy="-73.5" rx="27" ry="18"/>
<text text-anchor="middle" x="277" y="-69.8" font-family="Times,serif" font-size="14.00">*</text>
</g>
<!-- 94837958814352*&#45;&gt;94837958814352 -->
<g id="edge12" class="edge">
<title>94837958814352*&#45;&gt;94837958814352</title>
<path fill="none" stroke="black" d="M304.26,-73.5C312.24,-73.5 321.59,-73.5 331.66,-73.5"/>
<polygon fill="black" stroke="black" points="331.94,-77 341.94,-73.5 331.94,-70 331.94,-77"/>
</g>
<!-- 94837958813744 -->
<g id="node14" class="node">
<title>94837958813744</title>
<polygon fill="none" stroke="black" points="3.5,-55.5 3.5,-91.5 210.5,-91.5 210.5,-55.5 3.5,-55.5"/>
<text text-anchor="middle" x="18.5" y="-69.8" font-family="Times,serif" font-size="14.00">x2</text>
<polyline fill="none" stroke="black" points="33.5,-55.5 33.5,-91.5 "/>
<text text-anchor="middle" x="79" y="-69.8" font-family="Times,serif" font-size="14.00">value: 0.0000</text>
<polyline fill="none" stroke="black" points="124.5,-55.5 124.5,-91.5 "/>
<text text-anchor="middle" x="167.5" y="-69.8" font-family="Times,serif" font-size="14.00">grad: 0.0000</text>
</g>
<!-- 94837958813744&#45;&gt;94837958814352* -->
<g id="edge13" class="edge">
<title>94837958813744&#45;&gt;94837958814352*</title>
<path fill="none" stroke="black" d="M210.57,-73.5C220.86,-73.5 230.77,-73.5 239.62,-73.5"/>
<polygon fill="black" stroke="black" points="239.85,-77 249.85,-73.5 239.85,-70 239.85,-77"/>
</g>
<!-- 94837958813904 -->
<g id="node15" class="node">
<title>94837958813904</title>
<polygon fill="none" stroke="black" points="2,-0.5 2,-36.5 212,-36.5 212,-0.5 2,-0.5"/>
<text text-anchor="middle" x="18.5" y="-14.8" font-family="Times,serif" font-size="14.00">w2</text>
<polyline fill="none" stroke="black" points="35,-0.5 35,-36.5 "/>
<text text-anchor="middle" x="80.5" y="-14.8" font-family="Times,serif" font-size="14.00">value: 1.0000</text>
<polyline fill="none" stroke="black" points="126,-0.5 126,-36.5 "/>
<text text-anchor="middle" x="169" y="-14.8" font-family="Times,serif" font-size="14.00">grad: 0.0000</text>
</g>
<!-- 94837958813904&#45;&gt;94837958814352* -->
<g id="edge14" class="edge">
<title>94837958813904&#45;&gt;94837958814352*</title>
<path fill="none" stroke="black" d="M185.47,-36.55C195.15,-39.3 204.86,-42.3 214,-45.5 224.56,-49.2 235.79,-53.99 245.76,-58.57"/>
<polygon fill="black" stroke="black" points="244.32,-61.76 254.86,-62.84 247.29,-55.42 244.32,-61.76"/>
</g>
</g>
</svg>
