<?xml version="1.0" encoding="UTF-8" standalone="no"?>
<!DOCTYPE svg PUBLIC "-//W3C//DTD SVG 1.1//EN"
 "http://www.w3.org/Graphics/SVG/1.1/DTD/svg11.dtd">
<!-- Generated by graphviz version 5.0.0 (0)
 -->
<!-- Pages: 1 -->
<svg width="2556pt" height="239pt"
 viewBox="0.00 0.00 2556.00 239.00" xmlns="http://www.w3.org/2000/svg" xmlns:xlink="http://www.w3.org/1999/xlink">
<g id="graph0" class="graph" transform="scale(1 1) rotate(0) translate(4 235)">
<polygon fill="white" stroke="transparent" points="-4,4 -4,-235 2552,-235 2552,4 -4,4"/>
<!-- 94191604496784 -->
<g id="node1" class="node">
<title>94191604496784</title>
<polygon fill="none" stroke="black" points="2370,-82.5 2370,-118.5 2548,-118.5 2548,-82.5 2370,-82.5"/>
<text text-anchor="middle" x="2459" y="-96.8" font-family="Times,serif" font-size="14.00">o value: 0.7071, grad: 1.0000</text>
</g>
<!-- 94191604496784/ -->
<g id="node2" class="node">
<title>94191604496784/</title>
<ellipse fill="none" stroke="black" cx="2307" cy="-100.5" rx="27" ry="18"/>
<text text-anchor="middle" x="2307" y="-96.8" font-family="Times,serif" font-size="14.00">/</text>
</g>
<!-- 94191604496784/&#45;&gt;94191604496784 -->
<g id="edge1" class="edge">
<title>94191604496784/&#45;&gt;94191604496784</title>
<path fill="none" stroke="black" d="M2334.13,-100.5C2341.65,-100.5 2350.33,-100.5 2359.54,-100.5"/>
<polygon fill="black" stroke="black" points="2359.7,-104 2369.7,-100.5 2359.7,-97 2359.7,-104"/>
</g>
<!-- 94191604498032 -->
<g id="node3" class="node">
<title>94191604498032</title>
<polygon fill="none" stroke="black" points="2044,-55.5 2044,-91.5 2240,-91.5 2240,-55.5 2044,-55.5"/>
<text text-anchor="middle" x="2142" y="-69.8" font-family="Times,serif" font-size="14.00">e &#45; 1 value: 4.8284, grad: 0.1464</text>
</g>
<!-- 94191604498032&#45;&gt;94191604496784/ -->
<g id="edge2" class="edge">
<title>94191604498032&#45;&gt;94191604496784/</title>
<path fill="none" stroke="black" d="M2240.17,-89.6C2250.97,-91.38 2261.39,-93.11 2270.63,-94.64"/>
<polygon fill="black" stroke="black" points="2270.08,-98.1 2280.51,-96.28 2271.22,-91.19 2270.08,-98.1"/>
</g>
<!-- 94191604498240 -->
<g id="node4" class="node">
<title>94191604498240</title>
<polygon fill="none" stroke="black" points="2040,-110.5 2040,-146.5 2244,-146.5 2244,-110.5 2040,-110.5"/>
<text text-anchor="middle" x="2142" y="-124.8" font-family="Times,serif" font-size="14.00">e + 1 value: 6.8284, grad: &#45;0.1036</text>
</g>
<!-- 94191604498240&#45;&gt;94191604496784/ -->
<g id="edge3" class="edge">
<title>94191604498240&#45;&gt;94191604496784/</title>
<path fill="none" stroke="black" d="M2244.38,-111.09C2253.65,-109.49 2262.56,-107.96 2270.58,-106.58"/>
<polygon fill="black" stroke="black" points="2271.3,-110.01 2280.57,-104.87 2270.12,-103.11 2271.3,-110.01"/>
</g>
<!-- 94191604498032&#45; -->
<g id="node5" class="node">
<title>94191604498032&#45;</title>
<ellipse fill="none" stroke="black" cx="1977" cy="-73.5" rx="27" ry="18"/>
<text text-anchor="middle" x="1977" y="-69.8" font-family="Times,serif" font-size="14.00">&#45;</text>
</g>
<!-- 94191604498032&#45;&#45;&gt;94191604498032 -->
<g id="edge4" class="edge">
<title>94191604498032&#45;&#45;&gt;94191604498032</title>
<path fill="none" stroke="black" d="M2004.19,-73.5C2012.8,-73.5 2022.97,-73.5 2033.82,-73.5"/>
<polygon fill="black" stroke="black" points="2033.95,-77 2043.95,-73.5 2033.95,-70 2033.95,-77"/>
</g>
<!-- 94191604497024 -->
<g id="node6" class="node">
<title>94191604497024</title>
<polygon fill="none" stroke="black" points="1674,-0.5 1674,-36.5 1912,-36.5 1912,-0.5 1674,-0.5"/>
<text text-anchor="middle" x="1793" y="-14.8" font-family="Times,serif" font-size="14.00">exp(n * 2.0) value: 5.8284, grad: 0.1464</text>
</g>
<!-- 94191604497024&#45;&gt;94191604498032&#45; -->
<g id="edge5" class="edge">
<title>94191604497024&#45;&gt;94191604498032&#45;</title>
<path fill="none" stroke="black" d="M1883.67,-36.57C1893.99,-39.27 1904.28,-42.25 1914,-45.5 1924.7,-49.08 1936.04,-53.88 1946.06,-58.5"/>
<polygon fill="black" stroke="black" points="1944.66,-61.71 1955.19,-62.82 1947.65,-55.38 1944.66,-61.71"/>
</g>
<!-- 94191604497200 -->
<g id="node7" class="node">
<title>94191604497200</title>
<polygon fill="none" stroke="black" points="1694,-55.5 1694,-91.5 1892,-91.5 1892,-55.5 1694,-55.5"/>
<text text-anchor="middle" x="1793" y="-69.8" font-family="Times,serif" font-size="14.00">N/A value: 1.0000, grad: &#45;0.1464</text>
</g>
<!-- 94191604497200&#45;&gt;94191604498032&#45; -->
<g id="edge6" class="edge">
<title>94191604497200&#45;&gt;94191604498032&#45;</title>
<path fill="none" stroke="black" d="M1892.19,-73.5C1909.18,-73.5 1925.84,-73.5 1939.77,-73.5"/>
<polygon fill="black" stroke="black" points="1939.85,-77 1949.85,-73.5 1939.85,-70 1939.85,-77"/>
</g>
<!-- 94191604497024exp -->
<g id="node8" class="node">
<title>94191604497024exp</title>
<ellipse fill="none" stroke="black" cx="1609" cy="-46.5" rx="27" ry="18"/>
<text text-anchor="middle" x="1609" y="-42.8" font-family="Times,serif" font-size="14.00">exp</text>
</g>
<!-- 94191604497024exp&#45;&gt;94191604497024 -->
<g id="edge7" class="edge">
<title>94191604497024exp&#45;&gt;94191604497024</title>
<path fill="none" stroke="black" d="M1635.69,-42.55C1644.09,-41.26 1654.06,-39.72 1664.85,-38.06"/>
<polygon fill="black" stroke="black" points="1665.6,-41.49 1674.95,-36.51 1664.54,-34.57 1665.6,-41.49"/>
</g>
<!-- 94191604495920 -->
<g id="node9" class="node">
<title>94191604495920</title>
<polygon fill="none" stroke="black" points="1352,-55.5 1352,-91.5 1546,-91.5 1546,-55.5 1352,-55.5"/>
<text text-anchor="middle" x="1449" y="-69.8" font-family="Times,serif" font-size="14.00">N/A value: 1.7627, grad: 0.2500</text>
</g>
<!-- 94191604495920&#45;&gt;94191604497024exp -->
<g id="edge8" class="edge">
<title>94191604495920&#45;&gt;94191604497024exp</title>
<path fill="none" stroke="black" d="M1546.01,-57.09C1555.35,-55.5 1564.37,-53.96 1572.49,-52.57"/>
<polygon fill="black" stroke="black" points="1573.34,-55.97 1582.6,-50.84 1572.16,-49.07 1573.34,-55.97"/>
</g>
<!-- 94191604497472exp -->
<g id="node28" class="node">
<title>94191604497472exp</title>
<ellipse fill="none" stroke="black" cx="1609" cy="-114.5" rx="27" ry="18"/>
<text text-anchor="middle" x="1609" y="-110.8" font-family="Times,serif" font-size="14.00">exp</text>
</g>
<!-- 94191604495920&#45;&gt;94191604497472exp -->
<g id="edge28" class="edge">
<title>94191604495920&#45;&gt;94191604497472exp</title>
<path fill="none" stroke="black" d="M1519.76,-91.6C1538.48,-96.46 1557.9,-101.5 1573.73,-105.61"/>
<polygon fill="black" stroke="black" points="1573.02,-109.04 1583.58,-108.16 1574.78,-102.26 1573.02,-109.04"/>
</g>
<!-- 94191604495920* -->
<g id="node10" class="node">
<title>94191604495920*</title>
<ellipse fill="none" stroke="black" cx="1289" cy="-73.5" rx="27" ry="18"/>
<text text-anchor="middle" x="1289" y="-69.8" font-family="Times,serif" font-size="14.00">*</text>
</g>
<!-- 94191604495920*&#45;&gt;94191604495920 -->
<g id="edge9" class="edge">
<title>94191604495920*&#45;&gt;94191604495920</title>
<path fill="none" stroke="black" d="M1316.09,-73.5C1323.62,-73.5 1332.34,-73.5 1341.63,-73.5"/>
<polygon fill="black" stroke="black" points="1341.92,-77 1351.92,-73.5 1341.92,-70 1341.92,-77"/>
</g>
<!-- 94191604496160 -->
<g id="node11" class="node">
<title>94191604496160</title>
<polygon fill="none" stroke="black" points="1040,-83.5 1040,-119.5 1218,-119.5 1218,-83.5 1040,-83.5"/>
<text text-anchor="middle" x="1129" y="-97.8" font-family="Times,serif" font-size="14.00">n value: 0.8814, grad: 0.5000</text>
</g>
<!-- 94191604496160&#45;&gt;94191604495920* -->
<g id="edge10" class="edge">
<title>94191604496160&#45;&gt;94191604495920*</title>
<path fill="none" stroke="black" d="M1218.24,-85.86C1230.43,-83.7 1242.33,-81.59 1252.74,-79.75"/>
<polygon fill="black" stroke="black" points="1253.38,-83.19 1262.62,-78 1252.16,-76.3 1253.38,-83.19"/>
</g>
<!-- 94191604496336 -->
<g id="node12" class="node">
<title>94191604496336</title>
<polygon fill="none" stroke="black" points="1032,-28.5 1032,-64.5 1226,-64.5 1226,-28.5 1032,-28.5"/>
<text text-anchor="middle" x="1129" y="-42.8" font-family="Times,serif" font-size="14.00">N/A value: 2.0000, grad: 0.2203</text>
</g>
<!-- 94191604496336&#45;&gt;94191604495920* -->
<g id="edge11" class="edge">
<title>94191604496336&#45;&gt;94191604495920*</title>
<path fill="none" stroke="black" d="M1226.01,-62.91C1235.35,-64.5 1244.37,-66.04 1252.49,-67.43"/>
<polygon fill="black" stroke="black" points="1252.16,-70.93 1262.6,-69.16 1253.34,-64.03 1252.16,-70.93"/>
</g>
<!-- 94191604496160+ -->
<g id="node13" class="node">
<title>94191604496160+</title>
<ellipse fill="none" stroke="black" cx="969" cy="-101.5" rx="27" ry="18"/>
<text text-anchor="middle" x="969" y="-97.8" font-family="Times,serif" font-size="14.00">+</text>
</g>
<!-- 94191604496160+&#45;&gt;94191604496160 -->
<g id="edge12" class="edge">
<title>94191604496160+&#45;&gt;94191604496160</title>
<path fill="none" stroke="black" d="M996.09,-101.5C1005.68,-101.5 1017.19,-101.5 1029.36,-101.5"/>
<polygon fill="black" stroke="black" points="1029.72,-105 1039.72,-101.5 1029.72,-98 1029.72,-105"/>
</g>
<!-- 94191604495392 -->
<g id="node14" class="node">
<title>94191604495392</title>
<polygon fill="none" stroke="black" points="656,-111.5 656,-147.5 906,-147.5 906,-111.5 656,-111.5"/>
<text text-anchor="middle" x="781" y="-125.8" font-family="Times,serif" font-size="14.00">x1w1 * x2w2 value: &#45;6.0000, grad: 0.5000</text>
</g>
<!-- 94191604495392&#45;&gt;94191604496160+ -->
<g id="edge13" class="edge">
<title>94191604495392&#45;&gt;94191604496160+</title>
<path fill="none" stroke="black" d="M901.64,-111.49C912.7,-109.82 923.22,-108.24 932.49,-106.85"/>
<polygon fill="black" stroke="black" points="933.01,-110.31 942.38,-105.36 931.97,-103.38 933.01,-110.31"/>
</g>
<!-- 94191604495568 -->
<g id="node15" class="node">
<title>94191604495568</title>
<polygon fill="none" stroke="black" points="692,-56.5 692,-92.5 870,-92.5 870,-56.5 692,-56.5"/>
<text text-anchor="middle" x="781" y="-70.8" font-family="Times,serif" font-size="14.00">b value: 6.8814, grad: 0.5000</text>
</g>
<!-- 94191604495568&#45;&gt;94191604496160+ -->
<g id="edge14" class="edge">
<title>94191604495568&#45;&gt;94191604496160+</title>
<path fill="none" stroke="black" d="M870.1,-87.29C892.23,-90.5 914.74,-93.77 932.58,-96.36"/>
<polygon fill="black" stroke="black" points="932.11,-99.83 942.51,-97.8 933.12,-92.9 932.11,-99.83"/>
</g>
<!-- 94191604495392+ -->
<g id="node16" class="node">
<title>94191604495392+</title>
<ellipse fill="none" stroke="black" cx="593" cy="-129.5" rx="27" ry="18"/>
<text text-anchor="middle" x="593" y="-125.8" font-family="Times,serif" font-size="14.00">+</text>
</g>
<!-- 94191604495392+&#45;&gt;94191604495392 -->
<g id="edge15" class="edge">
<title>94191604495392+&#45;&gt;94191604495392</title>
<path fill="none" stroke="black" d="M620.25,-129.5C627.61,-129.5 636.14,-129.5 645.36,-129.5"/>
<polygon fill="black" stroke="black" points="645.61,-133 655.61,-129.5 645.61,-126 645.61,-133"/>
</g>
<!-- 94191604494768 -->
<g id="node17" class="node">
<title>94191604494768</title>
<polygon fill="none" stroke="black" points="318,-139.5 318,-175.5 530,-175.5 530,-139.5 318,-139.5"/>
<text text-anchor="middle" x="424" y="-153.8" font-family="Times,serif" font-size="14.00">x1*w1 value: &#45;6.0000, grad: 0.5000</text>
</g>
<!-- 94191604494768&#45;&gt;94191604495392+ -->
<g id="edge16" class="edge">
<title>94191604494768&#45;&gt;94191604495392+</title>
<path fill="none" stroke="black" d="M530.29,-139.85C539.62,-138.28 548.56,-136.78 556.6,-135.44"/>
<polygon fill="black" stroke="black" points="557.31,-138.86 566.6,-133.76 556.16,-131.96 557.31,-138.86"/>
</g>
<!-- 94191604494976 -->
<g id="node18" class="node">
<title>94191604494976</title>
<polygon fill="none" stroke="black" points="320,-84.5 320,-120.5 528,-120.5 528,-84.5 320,-84.5"/>
<text text-anchor="middle" x="424" y="-98.8" font-family="Times,serif" font-size="14.00">x2*w2 value: 0.0000, grad: 0.5000</text>
</g>
<!-- 94191604494976&#45;&gt;94191604495392+ -->
<g id="edge17" class="edge">
<title>94191604494976&#45;&gt;94191604495392+</title>
<path fill="none" stroke="black" d="M528.39,-119.22C538.45,-120.84 548.09,-122.4 556.7,-123.79"/>
<polygon fill="black" stroke="black" points="556.21,-127.26 566.64,-125.4 557.33,-120.35 556.21,-127.26"/>
</g>
<!-- 94191604494768* -->
<g id="node19" class="node">
<title>94191604494768*</title>
<ellipse fill="none" stroke="black" cx="255" cy="-157.5" rx="27" ry="18"/>
<text text-anchor="middle" x="255" y="-153.8" font-family="Times,serif" font-size="14.00">*</text>
</g>
<!-- 94191604494768*&#45;&gt;94191604494768 -->
<g id="edge18" class="edge">
<title>94191604494768*&#45;&gt;94191604494768</title>
<path fill="none" stroke="black" d="M282.09,-157.5C289.65,-157.5 298.42,-157.5 307.83,-157.5"/>
<polygon fill="black" stroke="black" points="307.83,-161 317.83,-157.5 307.83,-154 307.83,-161"/>
</g>
<!-- 94191604493616 -->
<g id="node20" class="node">
<title>94191604493616</title>
<polygon fill="none" stroke="black" points="1.5,-194.5 1.5,-230.5 190.5,-230.5 190.5,-194.5 1.5,-194.5"/>
<text text-anchor="middle" x="96" y="-208.8" font-family="Times,serif" font-size="14.00">x1 value: 2.0000, grad: &#45;1.5000</text>
</g>
<!-- 94191604493616&#45;&gt;94191604494768* -->
<g id="edge19" class="edge">
<title>94191604493616&#45;&gt;94191604494768*</title>
<path fill="none" stroke="black" d="M165.11,-194.46C174.22,-191.66 183.38,-188.65 192,-185.5 202.51,-181.66 213.73,-176.83 223.69,-172.26"/>
<polygon fill="black" stroke="black" points="225.22,-175.41 232.8,-168.01 222.26,-169.07 225.22,-175.41"/>
</g>
<!-- 94191604493792 -->
<g id="node21" class="node">
<title>94191604493792</title>
<polygon fill="none" stroke="black" points="0,-139.5 0,-175.5 192,-175.5 192,-139.5 0,-139.5"/>
<text text-anchor="middle" x="96" y="-153.8" font-family="Times,serif" font-size="14.00">w1 value: &#45;3.0000, grad: 1.0000</text>
</g>
<!-- 94191604493792&#45;&gt;94191604494768* -->
<g id="edge20" class="edge">
<title>94191604493792&#45;&gt;94191604494768*</title>
<path fill="none" stroke="black" d="M192.4,-157.5C201.32,-157.5 209.93,-157.5 217.75,-157.5"/>
<polygon fill="black" stroke="black" points="217.86,-161 227.86,-157.5 217.86,-154 217.86,-161"/>
</g>
<!-- 94191604494976* -->
<g id="node22" class="node">
<title>94191604494976*</title>
<ellipse fill="none" stroke="black" cx="255" cy="-102.5" rx="27" ry="18"/>
<text text-anchor="middle" x="255" y="-98.8" font-family="Times,serif" font-size="14.00">*</text>
</g>
<!-- 94191604494976*&#45;&gt;94191604494976 -->
<g id="edge21" class="edge">
<title>94191604494976*&#45;&gt;94191604494976</title>
<path fill="none" stroke="black" d="M282.09,-102.5C290.14,-102.5 299.57,-102.5 309.67,-102.5"/>
<polygon fill="black" stroke="black" points="309.97,-106 319.97,-102.5 309.97,-99 309.97,-106"/>
</g>
<!-- 94191604494176 -->
<g id="node23" class="node">
<title>94191604494176</title>
<polygon fill="none" stroke="black" points="3.5,-84.5 3.5,-120.5 188.5,-120.5 188.5,-84.5 3.5,-84.5"/>
<text text-anchor="middle" x="96" y="-98.8" font-family="Times,serif" font-size="14.00">x2 value: 0.0000, grad: 0.5000</text>
</g>
<!-- 94191604494176&#45;&gt;94191604494976* -->
<g id="edge22" class="edge">
<title>94191604494176&#45;&gt;94191604494976*</title>
<path fill="none" stroke="black" d="M188.78,-102.5C198.9,-102.5 208.71,-102.5 217.52,-102.5"/>
<polygon fill="black" stroke="black" points="217.72,-106 227.72,-102.5 217.72,-99 217.72,-106"/>
</g>
<!-- 94191604494352 -->
<g id="node24" class="node">
<title>94191604494352</title>
<polygon fill="none" stroke="black" points="2,-29.5 2,-65.5 190,-65.5 190,-29.5 2,-29.5"/>
<text text-anchor="middle" x="96" y="-43.8" font-family="Times,serif" font-size="14.00">w2 value: 1.0000, grad: 0.0000</text>
</g>
<!-- 94191604494352&#45;&gt;94191604494976* -->
<g id="edge23" class="edge">
<title>94191604494352&#45;&gt;94191604494976*</title>
<path fill="none" stroke="black" d="M165.11,-65.54C174.22,-68.34 183.38,-71.35 192,-74.5 202.51,-78.34 213.73,-83.17 223.69,-87.74"/>
<polygon fill="black" stroke="black" points="222.26,-90.93 232.8,-91.99 225.22,-84.59 222.26,-90.93"/>
</g>
<!-- 94191604498240+ -->
<g id="node25" class="node">
<title>94191604498240+</title>
<ellipse fill="none" stroke="black" cx="1977" cy="-128.5" rx="27" ry="18"/>
<text text-anchor="middle" x="1977" y="-124.8" font-family="Times,serif" font-size="14.00">+</text>
</g>
<!-- 94191604498240+&#45;&gt;94191604498240 -->
<g id="edge24" class="edge">
<title>94191604498240+&#45;&gt;94191604498240</title>
<path fill="none" stroke="black" d="M2004.19,-128.5C2011.66,-128.5 2020.3,-128.5 2029.54,-128.5"/>
<polygon fill="black" stroke="black" points="2029.77,-132 2039.77,-128.5 2029.77,-125 2029.77,-132"/>
</g>
<!-- 94191604497472 -->
<g id="node26" class="node">
<title>94191604497472</title>
<polygon fill="none" stroke="black" points="1672,-110.5 1672,-146.5 1914,-146.5 1914,-110.5 1672,-110.5"/>
<text text-anchor="middle" x="1793" y="-124.8" font-family="Times,serif" font-size="14.00">exp(n * 2.0) value: 5.8284, grad: &#45;0.1036</text>
</g>
<!-- 94191604497472&#45;&gt;94191604498240+ -->
<g id="edge25" class="edge">
<title>94191604497472&#45;&gt;94191604498240+</title>
<path fill="none" stroke="black" d="M1914.13,-128.5C1923.25,-128.5 1931.93,-128.5 1939.76,-128.5"/>
<polygon fill="black" stroke="black" points="1939.85,-132 1949.85,-128.5 1939.85,-125 1939.85,-132"/>
</g>
<!-- 94191604497648 -->
<g id="node27" class="node">
<title>94191604497648</title>
<polygon fill="none" stroke="black" points="1694,-165.5 1694,-201.5 1892,-201.5 1892,-165.5 1694,-165.5"/>
<text text-anchor="middle" x="1793" y="-179.8" font-family="Times,serif" font-size="14.00">N/A value: 1.0000, grad: &#45;0.1036</text>
</g>
<!-- 94191604497648&#45;&gt;94191604498240+ -->
<g id="edge26" class="edge">
<title>94191604497648&#45;&gt;94191604498240+</title>
<path fill="none" stroke="black" d="M1883.67,-165.43C1893.99,-162.73 1904.28,-159.75 1914,-156.5 1924.7,-152.92 1936.04,-148.12 1946.06,-143.5"/>
<polygon fill="black" stroke="black" points="1947.65,-146.62 1955.19,-139.18 1944.66,-140.29 1947.65,-146.62"/>
</g>
<!-- 94191604497472exp&#45;&gt;94191604497472 -->
<g id="edge27" class="edge">
<title>94191604497472exp&#45;&gt;94191604497472</title>
<path fill="none" stroke="black" d="M1636.08,-116.51C1643.59,-117.08 1652.34,-117.76 1661.78,-118.48"/>
<polygon fill="black" stroke="black" points="1661.61,-121.98 1671.85,-119.26 1662.15,-115 1661.61,-121.98"/>
</g>
</g>
</svg>
