<?xml version="1.0" encoding="UTF-8" standalone="no"?>
<!DOCTYPE svg PUBLIC "-//W3C//DTD SVG 1.1//EN"
 "http://www.w3.org/Graphics/SVG/1.1/DTD/svg11.dtd">
<!-- Generated by graphviz version 5.0.0 (0)
 -->
<!-- Pages: 1 -->
<svg width="422pt" height="128pt"
 viewBox="0.00 0.00 422.00 128.00" xmlns="http://www.w3.org/2000/svg" xmlns:xlink="http://www.w3.org/1999/xlink">
<g id="graph0" class="graph" transform="scale(1 1) rotate(0) translate(4 124)">
<polygon fill="white" stroke="transparent" points="-4,4 -4,-124 418,-124 418,4 -4,4"/>
<!-- 140735425242584 -->
<g id="node1" class="node">
<title>140735425242584</title>
<polygon fill="none" stroke="black" points="360,-27.5 360,-63.5 414,-63.5 414,-27.5 360,-27.5"/>
<text text-anchor="middle" x="387" y="-41.8" font-family="Times,serif" font-size="14.00">4</text>
</g>
<!-- 140735425242584+ -->
<g id="node2" class="node">
<title>140735425242584+</title>
<ellipse fill="none" stroke="black" cx="297" cy="-45.5" rx="27" ry="18"/>
<text text-anchor="middle" x="297" y="-41.8" font-family="Times,serif" font-size="14.00">+</text>
</g>
<!-- 140735425242584+&#45;&gt;140735425242584 -->
<g id="edge1" class="edge">
<title>140735425242584+&#45;&gt;140735425242584</title>
<path fill="none" stroke="black" d="M324.4,-45.5C332.39,-45.5 341.31,-45.5 349.82,-45.5"/>
<polygon fill="black" stroke="black" points="349.92,-49 359.92,-45.5 349.92,-42 349.92,-49"/>
</g>
<!-- 94900443195936 -->
<g id="node3" class="node">
<title>94900443195936</title>
<polygon fill="none" stroke="black" points="180,-55.5 180,-91.5 234,-91.5 234,-55.5 180,-55.5"/>
<text text-anchor="middle" x="207" y="-69.8" font-family="Times,serif" font-size="14.00">&#45;6</text>
</g>
<!-- 94900443195936&#45;&gt;140735425242584+ -->
<g id="edge2" class="edge">
<title>94900443195936&#45;&gt;140735425242584+</title>
<path fill="none" stroke="black" d="M234.4,-65.1C243.25,-62.28 253.24,-59.11 262.55,-56.14"/>
<polygon fill="black" stroke="black" points="263.84,-59.4 272.31,-53.04 261.72,-52.73 263.84,-59.4"/>
</g>
<!-- 94900443196000 -->
<g id="node4" class="node">
<title>94900443196000</title>
<polygon fill="none" stroke="black" points="180,-0.5 180,-36.5 234,-36.5 234,-0.5 180,-0.5"/>
<text text-anchor="middle" x="207" y="-14.8" font-family="Times,serif" font-size="14.00">10</text>
</g>
<!-- 94900443196000&#45;&gt;140735425242584+ -->
<g id="edge3" class="edge">
<title>94900443196000&#45;&gt;140735425242584+</title>
<path fill="none" stroke="black" d="M234.4,-26.6C243.18,-29.29 253.07,-32.33 262.32,-35.17"/>
<polygon fill="black" stroke="black" points="261.43,-38.55 272.02,-38.14 263.48,-31.86 261.43,-38.55"/>
</g>
<!-- 94900443195936* -->
<g id="node5" class="node">
<title>94900443195936*</title>
<ellipse fill="none" stroke="black" cx="117" cy="-73.5" rx="27" ry="18"/>
<text text-anchor="middle" x="117" y="-69.8" font-family="Times,serif" font-size="14.00">*</text>
</g>
<!-- 94900443195936*&#45;&gt;94900443195936 -->
<g id="edge4" class="edge">
<title>94900443195936*&#45;&gt;94900443195936</title>
<path fill="none" stroke="black" d="M144.4,-73.5C152.39,-73.5 161.31,-73.5 169.82,-73.5"/>
<polygon fill="black" stroke="black" points="169.92,-77 179.92,-73.5 169.92,-70 169.92,-77"/>
</g>
<!-- 94900443195872 -->
<g id="node6" class="node">
<title>94900443195872</title>
<polygon fill="none" stroke="black" points="0,-83.5 0,-119.5 54,-119.5 54,-83.5 0,-83.5"/>
<text text-anchor="middle" x="27" y="-97.8" font-family="Times,serif" font-size="14.00">2</text>
</g>
<!-- 94900443195872&#45;&gt;94900443195936* -->
<g id="edge5" class="edge">
<title>94900443195872&#45;&gt;94900443195936*</title>
<path fill="none" stroke="black" d="M54.4,-93.1C63.25,-90.28 73.24,-87.11 82.55,-84.14"/>
<polygon fill="black" stroke="black" points="83.84,-87.4 92.31,-81.04 81.72,-80.73 83.84,-87.4"/>
</g>
<!-- 94900443195808 -->
<g id="node7" class="node">
<title>94900443195808</title>
<polygon fill="none" stroke="black" points="0,-28.5 0,-64.5 54,-64.5 54,-28.5 0,-28.5"/>
<text text-anchor="middle" x="27" y="-42.8" font-family="Times,serif" font-size="14.00">&#45;3</text>
</g>
<!-- 94900443195808&#45;&gt;94900443195936* -->
<g id="edge6" class="edge">
<title>94900443195808&#45;&gt;94900443195936*</title>
<path fill="none" stroke="black" d="M54.4,-54.6C63.18,-57.29 73.07,-60.33 82.32,-63.17"/>
<polygon fill="black" stroke="black" points="81.43,-66.55 92.02,-66.14 83.48,-59.86 81.43,-66.55"/>
</g>
</g>
</svg>
