<?xml version="1.0" encoding="UTF-8" standalone="no"?>
<!DOCTYPE svg PUBLIC "-//W3C//DTD SVG 1.1//EN"
 "http://www.w3.org/Graphics/SVG/1.1/DTD/svg11.dtd">
<!-- Generated by graphviz version 5.0.0 (0)
 -->
<!-- Pages: 1 -->
<svg width="493pt" height="128pt"
 viewBox="0.00 0.00 493.00 128.00" xmlns="http://www.w3.org/2000/svg" xmlns:xlink="http://www.w3.org/1999/xlink">
<g id="graph0" class="graph" transform="scale(1 1) rotate(0) translate(4 124)">
<polygon fill="white" stroke="transparent" points="-4,4 -4,-124 489,-124 489,4 -4,4"/>
<!-- 140730479690848 -->
<g id="node1" class="node">
<title>140730479690848</title>
<polygon fill="none" stroke="black" points="411,-27.5 411,-63.5 485,-63.5 485,-27.5 411,-27.5"/>
<text text-anchor="middle" x="448" y="-41.8" font-family="Times,serif" font-size="14.00">d: value: 4</text>
</g>
<!-- 140730479690848+ -->
<g id="node2" class="node">
<title>140730479690848+</title>
<ellipse fill="none" stroke="black" cx="348" cy="-45.5" rx="27" ry="18"/>
<text text-anchor="middle" x="348" y="-41.8" font-family="Times,serif" font-size="14.00">+</text>
</g>
<!-- 140730479690848+&#45;&gt;140730479690848 -->
<g id="edge1" class="edge">
<title>140730479690848+&#45;&gt;140730479690848</title>
<path fill="none" stroke="black" d="M375,-45.5C382.91,-45.5 391.85,-45.5 400.68,-45.5"/>
<polygon fill="black" stroke="black" points="400.91,-49 410.91,-45.5 400.91,-42 400.91,-49"/>
</g>
<!-- 93955890998096 -->
<g id="node3" class="node">
<title>93955890998096</title>
<polygon fill="none" stroke="black" points="206,-55.5 206,-91.5 284,-91.5 284,-55.5 206,-55.5"/>
<text text-anchor="middle" x="245" y="-69.8" font-family="Times,serif" font-size="14.00">e: value: &#45;6</text>
</g>
<!-- 93955890998096&#45;&gt;140730479690848+ -->
<g id="edge2" class="edge">
<title>93955890998096&#45;&gt;140730479690848+</title>
<path fill="none" stroke="black" d="M284.18,-62.91C293.7,-60.28 303.84,-57.47 313.13,-54.89"/>
<polygon fill="black" stroke="black" points="314.11,-58.25 322.82,-52.2 312.24,-51.5 314.11,-58.25"/>
</g>
<!-- 93955890998176 -->
<g id="node4" class="node">
<title>93955890998176</title>
<polygon fill="none" stroke="black" points="205,-0.5 205,-36.5 285,-36.5 285,-0.5 205,-0.5"/>
<text text-anchor="middle" x="245" y="-14.8" font-family="Times,serif" font-size="14.00">c: value: 10</text>
</g>
<!-- 93955890998176&#45;&gt;140730479690848+ -->
<g id="edge3" class="edge">
<title>93955890998176&#45;&gt;140730479690848+</title>
<path fill="none" stroke="black" d="M285.05,-28.94C294.24,-31.4 303.98,-34 312.93,-36.39"/>
<polygon fill="black" stroke="black" points="312.08,-39.79 322.65,-38.99 313.89,-33.03 312.08,-39.79"/>
</g>
<!-- 93955890998096* -->
<g id="node5" class="node">
<title>93955890998096*</title>
<ellipse fill="none" stroke="black" cx="142" cy="-73.5" rx="27" ry="18"/>
<text text-anchor="middle" x="142" y="-69.8" font-family="Times,serif" font-size="14.00">*</text>
</g>
<!-- 93955890998096*&#45;&gt;93955890998096 -->
<g id="edge4" class="edge">
<title>93955890998096*&#45;&gt;93955890998096</title>
<path fill="none" stroke="black" d="M169.01,-73.5C177.16,-73.5 186.44,-73.5 195.62,-73.5"/>
<polygon fill="black" stroke="black" points="195.89,-77 205.89,-73.5 195.89,-70 195.89,-77"/>
</g>
<!-- 93955890997776 -->
<g id="node6" class="node">
<title>93955890997776</title>
<polygon fill="none" stroke="black" points="2.5,-83.5 2.5,-119.5 76.5,-119.5 76.5,-83.5 2.5,-83.5"/>
<text text-anchor="middle" x="39.5" y="-97.8" font-family="Times,serif" font-size="14.00">a: value: 2</text>
</g>
<!-- 93955890997776&#45;&gt;93955890998096* -->
<g id="edge5" class="edge">
<title>93955890997776&#45;&gt;93955890998096*</title>
<path fill="none" stroke="black" d="M76.78,-91.39C86.63,-88.65 97.26,-85.69 106.98,-82.98"/>
<polygon fill="black" stroke="black" points="108.01,-86.32 116.7,-80.27 106.13,-79.58 108.01,-86.32"/>
</g>
<!-- 93955890997888 -->
<g id="node7" class="node">
<title>93955890997888</title>
<polygon fill="none" stroke="black" points="0,-28.5 0,-64.5 79,-64.5 79,-28.5 0,-28.5"/>
<text text-anchor="middle" x="39.5" y="-42.8" font-family="Times,serif" font-size="14.00">b: value: &#45;3</text>
</g>
<!-- 93955890997888&#45;&gt;93955890998096* -->
<g id="edge6" class="edge">
<title>93955890997888&#45;&gt;93955890998096*</title>
<path fill="none" stroke="black" d="M79.07,-56.86C88.24,-59.33 97.96,-61.94 106.91,-64.34"/>
<polygon fill="black" stroke="black" points="106.06,-67.74 116.62,-66.95 107.87,-60.98 106.06,-67.74"/>
</g>
</g>
</svg>
