<?xml version="1.0" encoding="UTF-8" standalone="no"?>
<!DOCTYPE svg PUBLIC "-//W3C//DTD SVG 1.1//EN"
 "http://www.w3.org/Graphics/SVG/1.1/DTD/svg11.dtd">
<!-- Generated by graphviz version 5.0.0 (0)
 -->
<!-- Pages: 1 -->
<svg width="1908pt" height="210pt"
 viewBox="0.00 0.00 1908.00 210.00" xmlns="http://www.w3.org/2000/svg" xmlns:xlink="http://www.w3.org/1999/xlink">
<g id="graph0" class="graph" transform="scale(1 1) rotate(0) translate(4 206)">
<polygon fill="white" stroke="transparent" points="-4,4 -4,-206 1904,-206 1904,4 -4,4"/>
<!-- 139985010789456 -->
<g id="node1" class="node">
<title>139985010789456</title>
<polygon fill="none" stroke="black" points="391,-55.5 391,-91.5 669,-91.5 669,-55.5 391,-55.5"/>
<text text-anchor="middle" x="530" y="-69.8" font-family="Times,serif" font-size="14.00">Value(label=x1w1, data=&#45;6.0000, grad=0.5000)</text>
</g>
<!-- 139985010801360+ -->
<g id="node7" class="node">
<title>139985010801360+</title>
<ellipse fill="none" stroke="black" cx="732" cy="-100.5" rx="27" ry="18"/>
<text text-anchor="middle" x="732" y="-96.8" font-family="Times,serif" font-size="14.00">+</text>
</g>
<!-- 139985010789456&#45;&gt;139985010801360+ -->
<g id="edge7" class="edge">
<title>139985010789456&#45;&gt;139985010801360+</title>
<path fill="none" stroke="black" d="M664.4,-91.51C675.65,-93.03 686.26,-94.46 695.56,-95.72"/>
<polygon fill="black" stroke="black" points="695.1,-99.19 705.48,-97.05 696.04,-92.25 695.1,-99.19"/>
</g>
<!-- 139985010789456* -->
<g id="node2" class="node">
<title>139985010789456*</title>
<ellipse fill="none" stroke="black" cx="328" cy="-73.5" rx="27" ry="18"/>
<text text-anchor="middle" x="328" y="-69.8" font-family="Times,serif" font-size="14.00">*</text>
</g>
<!-- 139985010789456*&#45;&gt;139985010789456 -->
<g id="edge1" class="edge">
<title>139985010789456*&#45;&gt;139985010789456</title>
<path fill="none" stroke="black" d="M355.15,-73.5C362.61,-73.5 371.32,-73.5 380.78,-73.5"/>
<polygon fill="black" stroke="black" points="380.9,-77 390.9,-73.5 380.9,-70 380.9,-77"/>
</g>
<!-- 139985010801296 -->
<g id="node3" class="node">
<title>139985010801296</title>
<polygon fill="none" stroke="black" points="1245,-109.5 1245,-145.5 1496,-145.5 1496,-109.5 1245,-109.5"/>
<text text-anchor="middle" x="1370.5" y="-123.8" font-family="Times,serif" font-size="14.00">Value(label=n, data=0.8814, grad=0.5000)</text>
</g>
<!-- 139985026972432tanh -->
<g id="node9" class="node">
<title>139985026972432tanh</title>
<ellipse fill="none" stroke="black" cx="1559" cy="-127.5" rx="27" ry="18"/>
<text text-anchor="middle" x="1559" y="-123.8" font-family="Times,serif" font-size="14.00">tanh</text>
</g>
<!-- 139985010801296&#45;&gt;139985026972432tanh -->
<g id="edge6" class="edge">
<title>139985010801296&#45;&gt;139985026972432tanh</title>
<path fill="none" stroke="black" d="M1496.16,-127.5C1505.31,-127.5 1514.01,-127.5 1521.84,-127.5"/>
<polygon fill="black" stroke="black" points="1521.93,-131 1531.93,-127.5 1521.93,-124 1521.93,-131"/>
</g>
<!-- 139985010801296+ -->
<g id="node4" class="node">
<title>139985010801296+</title>
<ellipse fill="none" stroke="black" cx="1182" cy="-127.5" rx="27" ry="18"/>
<text text-anchor="middle" x="1182" y="-123.8" font-family="Times,serif" font-size="14.00">+</text>
</g>
<!-- 139985010801296+&#45;&gt;139985010801296 -->
<g id="edge2" class="edge">
<title>139985010801296+&#45;&gt;139985010801296</title>
<path fill="none" stroke="black" d="M1209.33,-127.5C1216.7,-127.5 1225.25,-127.5 1234.5,-127.5"/>
<polygon fill="black" stroke="black" points="1234.77,-131 1244.77,-127.5 1234.77,-124 1234.77,-131"/>
</g>
<!-- 139985010522000 -->
<g id="node5" class="node">
<title>139985010522000</title>
<polygon fill="none" stroke="black" points="1.5,-55.5 1.5,-91.5 263.5,-91.5 263.5,-55.5 1.5,-55.5"/>
<text text-anchor="middle" x="132.5" y="-69.8" font-family="Times,serif" font-size="14.00">Value(label=x1, data=2.0000, grad=&#45;1.5000)</text>
</g>
<!-- 139985010522000&#45;&gt;139985010789456* -->
<g id="edge12" class="edge">
<title>139985010522000&#45;&gt;139985010789456*</title>
<path fill="none" stroke="black" d="M263.64,-73.5C273.34,-73.5 282.52,-73.5 290.74,-73.5"/>
<polygon fill="black" stroke="black" points="290.94,-77 300.94,-73.5 290.94,-70 290.94,-77"/>
</g>
<!-- 139985010801360 -->
<g id="node6" class="node">
<title>139985010801360</title>
<polygon fill="none" stroke="black" points="795,-82.5 795,-118.5 1119,-118.5 1119,-82.5 795,-82.5"/>
<text text-anchor="middle" x="957" y="-96.8" font-family="Times,serif" font-size="14.00">Value(label=x1w1x + 2w2, data=&#45;6.0000, grad=0.5000)</text>
</g>
<!-- 139985010801360&#45;&gt;139985010801296+ -->
<g id="edge10" class="edge">
<title>139985010801360&#45;&gt;139985010801296+</title>
<path fill="none" stroke="black" d="M1106.74,-118.51C1120.79,-120.21 1133.95,-121.8 1145.17,-123.16"/>
<polygon fill="black" stroke="black" points="1144.95,-126.66 1155.3,-124.39 1145.79,-119.71 1144.95,-126.66"/>
</g>
<!-- 139985010801360+&#45;&gt;139985010801360 -->
<g id="edge3" class="edge">
<title>139985010801360+&#45;&gt;139985010801360</title>
<path fill="none" stroke="black" d="M759.02,-100.5C766.44,-100.5 775.12,-100.5 784.62,-100.5"/>
<polygon fill="black" stroke="black" points="784.81,-104 794.81,-100.5 784.81,-97 784.81,-104"/>
</g>
<!-- 139985026972432 -->
<g id="node8" class="node">
<title>139985026972432</title>
<polygon fill="none" stroke="black" points="1622,-109.5 1622,-145.5 1900,-145.5 1900,-109.5 1622,-109.5"/>
<text text-anchor="middle" x="1761" y="-123.8" font-family="Times,serif" font-size="14.00">Value(label=output, data=0.7071, grad=1.0000)</text>
</g>
<!-- 139985026972432tanh&#45;&gt;139985026972432 -->
<g id="edge4" class="edge">
<title>139985026972432tanh&#45;&gt;139985026972432</title>
<path fill="none" stroke="black" d="M1586.15,-127.5C1593.61,-127.5 1602.32,-127.5 1611.78,-127.5"/>
<polygon fill="black" stroke="black" points="1611.9,-131 1621.9,-127.5 1611.9,-124 1611.9,-131"/>
</g>
<!-- 139985010705680 -->
<g id="node10" class="node">
<title>139985010705680</title>
<polygon fill="none" stroke="black" points="4,-165.5 4,-201.5 261,-201.5 261,-165.5 4,-165.5"/>
<text text-anchor="middle" x="132.5" y="-179.8" font-family="Times,serif" font-size="14.00">Value(label=x2, data=0.0000, grad=0.5000)</text>
</g>
<!-- 139985010801104* -->
<g id="node15" class="node">
<title>139985010801104*</title>
<ellipse fill="none" stroke="black" cx="328" cy="-128.5" rx="27" ry="18"/>
<text text-anchor="middle" x="328" y="-124.8" font-family="Times,serif" font-size="14.00">*</text>
</g>
<!-- 139985010705680&#45;&gt;139985010801104* -->
<g id="edge8" class="edge">
<title>139985010705680&#45;&gt;139985010801104*</title>
<path fill="none" stroke="black" d="M233.2,-165.47C244.02,-162.79 254.8,-159.8 265,-156.5 275.73,-153.02 287.08,-148.25 297.1,-143.62"/>
<polygon fill="black" stroke="black" points="298.7,-146.73 306.23,-139.28 295.69,-140.41 298.7,-146.73"/>
</g>
<!-- 139985010641360 -->
<g id="node11" class="node">
<title>139985010641360</title>
<polygon fill="none" stroke="black" points="2.5,-110.5 2.5,-146.5 262.5,-146.5 262.5,-110.5 2.5,-110.5"/>
<text text-anchor="middle" x="132.5" y="-124.8" font-family="Times,serif" font-size="14.00">Value(label=w2, data=1.0000, grad=0.0000)</text>
</g>
<!-- 139985010641360&#45;&gt;139985010801104* -->
<g id="edge13" class="edge">
<title>139985010641360&#45;&gt;139985010801104*</title>
<path fill="none" stroke="black" d="M262.57,-128.5C272.61,-128.5 282.13,-128.5 290.61,-128.5"/>
<polygon fill="black" stroke="black" points="290.77,-132 300.77,-128.5 290.77,-125 290.77,-132"/>
</g>
<!-- 139985010635664 -->
<g id="node12" class="node">
<title>139985010635664</title>
<polygon fill="none" stroke="black" points="0,-0.5 0,-36.5 265,-36.5 265,-0.5 0,-0.5"/>
<text text-anchor="middle" x="132.5" y="-14.8" font-family="Times,serif" font-size="14.00">Value(label=w1, data=&#45;3.0000, grad=1.0000)</text>
</g>
<!-- 139985010635664&#45;&gt;139985010789456* -->
<g id="edge11" class="edge">
<title>139985010635664&#45;&gt;139985010789456*</title>
<path fill="none" stroke="black" d="M229.26,-36.53C241.39,-39.5 253.55,-42.83 265,-46.5 275.48,-49.86 286.6,-54.38 296.48,-58.76"/>
<polygon fill="black" stroke="black" points="295.34,-62.08 305.89,-63.05 298.24,-55.71 295.34,-62.08"/>
</g>
<!-- 139985010673552 -->
<g id="node13" class="node">
<title>139985010673552</title>
<polygon fill="none" stroke="black" points="831.5,-137.5 831.5,-173.5 1082.5,-173.5 1082.5,-137.5 831.5,-137.5"/>
<text text-anchor="middle" x="957" y="-151.8" font-family="Times,serif" font-size="14.00">Value(label=b, data=6.8814, grad=0.5000)</text>
</g>
<!-- 139985010673552&#45;&gt;139985010801296+ -->
<g id="edge14" class="edge">
<title>139985010673552&#45;&gt;139985010801296+</title>
<path fill="none" stroke="black" d="M1082.54,-139.86C1105.34,-137 1127.41,-134.23 1144.85,-132.04"/>
<polygon fill="black" stroke="black" points="1145.59,-135.47 1155.08,-130.75 1144.72,-128.53 1145.59,-135.47"/>
</g>
<!-- 139985010801104 -->
<g id="node14" class="node">
<title>139985010801104</title>
<polygon fill="none" stroke="black" points="393,-110.5 393,-146.5 667,-146.5 667,-110.5 393,-110.5"/>
<text text-anchor="middle" x="530" y="-124.8" font-family="Times,serif" font-size="14.00">Value(label=x2w2, data=0.0000, grad=0.5000)</text>
</g>
<!-- 139985010801104&#45;&gt;139985010801360+ -->
<g id="edge9" class="edge">
<title>139985010801104&#45;&gt;139985010801360+</title>
<path fill="none" stroke="black" d="M659.64,-110.49C672.61,-108.67 684.87,-106.96 695.46,-105.48"/>
<polygon fill="black" stroke="black" points="696.03,-108.93 705.45,-104.08 695.06,-102 696.03,-108.93"/>
</g>
<!-- 139985010801104*&#45;&gt;139985010801104 -->
<g id="edge5" class="edge">
<title>139985010801104*&#45;&gt;139985010801104</title>
<path fill="none" stroke="black" d="M355.15,-128.5C363.01,-128.5 372.25,-128.5 382.3,-128.5"/>
<polygon fill="black" stroke="black" points="382.59,-132 392.59,-128.5 382.59,-125 382.59,-132"/>
</g>
</g>
</svg>
