<?xml version="1.0" encoding="UTF-8" standalone="no"?>
<!DOCTYPE svg PUBLIC "-//W3C//DTD SVG 1.1//EN"
 "http://www.w3.org/Graphics/SVG/1.1/DTD/svg11.dtd">
<!-- Generated by graphviz version 5.0.0 (0)
 -->
<!-- Pages: 1 -->
<svg width="750pt" height="127pt"
 viewBox="0.00 0.00 750.00 127.00" xmlns="http://www.w3.org/2000/svg" xmlns:xlink="http://www.w3.org/1999/xlink">
<g id="graph0" class="graph" transform="scale(1 1) rotate(0) translate(4 123)">
<polygon fill="white" stroke="transparent" points="-4,4 -4,-123 746,-123 746,4 -4,4"/>
<!-- 139855214552592 -->
<g id="node1" class="node">
<title>139855214552592</title>
<polygon fill="none" stroke="black" points="291,-27.5 291,-63.5 455,-63.5 455,-27.5 291,-27.5"/>
<text text-anchor="middle" x="373" y="-41.8" font-family="Times,serif" font-size="14.00">Value(label=e, data=&#45;6.00)</text>
</g>
<!-- 139855211987728+ -->
<g id="node7" class="node">
<title>139855211987728+</title>
<ellipse fill="none" stroke="black" cx="519" cy="-72.5" rx="27" ry="18"/>
<text text-anchor="middle" x="519" y="-68.8" font-family="Times,serif" font-size="14.00">+</text>
</g>
<!-- 139855214552592&#45;&gt;139855211987728+ -->
<g id="edge6" class="edge">
<title>139855214552592&#45;&gt;139855211987728+</title>
<path fill="none" stroke="black" d="M455.26,-60.74C464.96,-62.56 474.44,-64.33 482.97,-65.93"/>
<polygon fill="black" stroke="black" points="482.38,-69.38 492.85,-67.78 483.67,-62.5 482.38,-69.38"/>
</g>
<!-- 139855214552592* -->
<g id="node2" class="node">
<title>139855214552592*</title>
<ellipse fill="none" stroke="black" cx="227" cy="-45.5" rx="27" ry="18"/>
<text text-anchor="middle" x="227" y="-41.8" font-family="Times,serif" font-size="14.00">*</text>
</g>
<!-- 139855214552592*&#45;&gt;139855214552592 -->
<g id="edge1" class="edge">
<title>139855214552592*&#45;&gt;139855214552592</title>
<path fill="none" stroke="black" d="M254.08,-45.5C261.96,-45.5 271.1,-45.5 280.73,-45.5"/>
<polygon fill="black" stroke="black" points="280.92,-49 290.92,-45.5 280.92,-42 280.92,-49"/>
</g>
<!-- 139855213716048 -->
<g id="node3" class="node">
<title>139855213716048</title>
<polygon fill="none" stroke="black" points="290,-82.5 290,-118.5 456,-118.5 456,-82.5 290,-82.5"/>
<text text-anchor="middle" x="373" y="-96.8" font-family="Times,serif" font-size="14.00">Value(label=c, data=10.00)</text>
</g>
<!-- 139855213716048&#45;&gt;139855211987728+ -->
<g id="edge3" class="edge">
<title>139855213716048&#45;&gt;139855211987728+</title>
<path fill="none" stroke="black" d="M456.1,-84.54C465.51,-82.71 474.69,-80.92 482.97,-79.31"/>
<polygon fill="black" stroke="black" points="483.79,-82.72 492.94,-77.37 482.45,-75.85 483.79,-82.72"/>
</g>
<!-- 139855211750096 -->
<g id="node4" class="node">
<title>139855211750096</title>
<polygon fill="none" stroke="black" points="2.5,-55.5 2.5,-91.5 161.5,-91.5 161.5,-55.5 2.5,-55.5"/>
<text text-anchor="middle" x="82" y="-69.8" font-family="Times,serif" font-size="14.00">Value(label=a, data=2.00)</text>
</g>
<!-- 139855211750096&#45;&gt;139855214552592* -->
<g id="edge5" class="edge">
<title>139855211750096&#45;&gt;139855214552592*</title>
<path fill="none" stroke="black" d="M161.61,-58.11C171.87,-56.1 181.94,-54.13 190.95,-52.36"/>
<polygon fill="black" stroke="black" points="191.85,-55.75 200.99,-50.4 190.51,-48.88 191.85,-55.75"/>
</g>
<!-- 139855211921104 -->
<g id="node5" class="node">
<title>139855211921104</title>
<polygon fill="none" stroke="black" points="0,-0.5 0,-36.5 164,-36.5 164,-0.5 0,-0.5"/>
<text text-anchor="middle" x="82" y="-14.8" font-family="Times,serif" font-size="14.00">Value(label=b, data=&#45;3.00)</text>
</g>
<!-- 139855211921104&#45;&gt;139855214552592* -->
<g id="edge4" class="edge">
<title>139855211921104&#45;&gt;139855214552592*</title>
<path fill="none" stroke="black" d="M164.11,-33.81C173.51,-35.59 182.68,-37.32 190.96,-38.88"/>
<polygon fill="black" stroke="black" points="190.44,-42.35 200.92,-40.76 191.74,-35.47 190.44,-42.35"/>
</g>
<!-- 139855211987728 -->
<g id="node6" class="node">
<title>139855211987728</title>
<polygon fill="none" stroke="black" points="582,-54.5 582,-90.5 742,-90.5 742,-54.5 582,-54.5"/>
<text text-anchor="middle" x="662" y="-68.8" font-family="Times,serif" font-size="14.00">Value(label=d, data=4.00)</text>
</g>
<!-- 139855211987728+&#45;&gt;139855211987728 -->
<g id="edge2" class="edge">
<title>139855211987728+&#45;&gt;139855211987728</title>
<path fill="none" stroke="black" d="M546.19,-72.5C553.79,-72.5 562.55,-72.5 571.77,-72.5"/>
<polygon fill="black" stroke="black" points="571.93,-76 581.93,-72.5 571.93,-69 571.93,-76"/>
</g>
</g>
</svg>
