<?xml version="1.0" encoding="UTF-8" standalone="no"?>
<!DOCTYPE svg PUBLIC "-//W3C//DTD SVG 1.1//EN"
 "http://www.w3.org/Graphics/SVG/1.1/DTD/svg11.dtd">
<!-- Generated by graphviz version 5.0.0 (0)
 -->
<!-- Pages: 1 -->
<svg width="1908pt" height="210pt"
 viewBox="0.00 0.00 1908.00 210.00" xmlns="http://www.w3.org/2000/svg" xmlns:xlink="http://www.w3.org/1999/xlink">
<g id="graph0" class="graph" transform="scale(1 1) rotate(0) translate(4 206)">
<polygon fill="white" stroke="transparent" points="-4,4 -4,-206 1904,-206 1904,4 -4,4"/>
<!-- 140467605148176 -->
<g id="node1" class="node">
<title>140467605148176</title>
<polygon fill="none" stroke="black" points="1622,-54.5 1622,-90.5 1900,-90.5 1900,-54.5 1622,-54.5"/>
<text text-anchor="middle" x="1761" y="-68.8" font-family="Times,serif" font-size="14.00">Value(label=output, data=0.7071, grad=1.0000)</text>
</g>
<!-- 140467605148176tanh -->
<g id="node2" class="node">
<title>140467605148176tanh</title>
<ellipse fill="none" stroke="black" cx="1559" cy="-72.5" rx="27" ry="18"/>
<text text-anchor="middle" x="1559" y="-68.8" font-family="Times,serif" font-size="14.00">tanh</text>
</g>
<!-- 140467605148176tanh&#45;&gt;140467605148176 -->
<g id="edge1" class="edge">
<title>140467605148176tanh&#45;&gt;140467605148176</title>
<path fill="none" stroke="black" d="M1586.15,-72.5C1593.61,-72.5 1602.32,-72.5 1611.78,-72.5"/>
<polygon fill="black" stroke="black" points="1611.9,-76 1621.9,-72.5 1611.9,-69 1611.9,-76"/>
</g>
<!-- 140467617882064 -->
<g id="node3" class="node">
<title>140467617882064</title>
<polygon fill="none" stroke="black" points="795,-82.5 795,-118.5 1119,-118.5 1119,-82.5 795,-82.5"/>
<text text-anchor="middle" x="957" y="-96.8" font-family="Times,serif" font-size="14.00">Value(label=x1w1x + 2w2, data=&#45;6.0000, grad=0.5000)</text>
</g>
<!-- 140467625231824+ -->
<g id="node14" class="node">
<title>140467625231824+</title>
<ellipse fill="none" stroke="black" cx="1182" cy="-72.5" rx="27" ry="18"/>
<text text-anchor="middle" x="1182" y="-68.8" font-family="Times,serif" font-size="14.00">+</text>
</g>
<!-- 140467617882064&#45;&gt;140467625231824+ -->
<g id="edge7" class="edge">
<title>140467617882064&#45;&gt;140467625231824+</title>
<path fill="none" stroke="black" d="M1101.44,-82.49C1117.55,-80.47 1132.7,-78.56 1145.36,-76.97"/>
<polygon fill="black" stroke="black" points="1145.89,-80.44 1155.38,-75.72 1145.02,-73.49 1145.89,-80.44"/>
</g>
<!-- 140467617882064+ -->
<g id="node4" class="node">
<title>140467617882064+</title>
<ellipse fill="none" stroke="black" cx="732" cy="-100.5" rx="27" ry="18"/>
<text text-anchor="middle" x="732" y="-96.8" font-family="Times,serif" font-size="14.00">+</text>
</g>
<!-- 140467617882064+&#45;&gt;140467617882064 -->
<g id="edge2" class="edge">
<title>140467617882064+&#45;&gt;140467617882064</title>
<path fill="none" stroke="black" d="M759.02,-100.5C766.44,-100.5 775.12,-100.5 784.62,-100.5"/>
<polygon fill="black" stroke="black" points="784.81,-104 794.81,-100.5 784.81,-97 784.81,-104"/>
</g>
<!-- 140467619867152 -->
<g id="node5" class="node">
<title>140467619867152</title>
<polygon fill="none" stroke="black" points="1.5,-55.5 1.5,-91.5 263.5,-91.5 263.5,-55.5 1.5,-55.5"/>
<text text-anchor="middle" x="132.5" y="-69.8" font-family="Times,serif" font-size="14.00">Value(label=x1, data=2.0000, grad=&#45;1.5000)</text>
</g>
<!-- 140467623187664* -->
<g id="node12" class="node">
<title>140467623187664*</title>
<ellipse fill="none" stroke="black" cx="328" cy="-73.5" rx="27" ry="18"/>
<text text-anchor="middle" x="328" y="-69.8" font-family="Times,serif" font-size="14.00">*</text>
</g>
<!-- 140467619867152&#45;&gt;140467623187664* -->
<g id="edge13" class="edge">
<title>140467619867152&#45;&gt;140467623187664*</title>
<path fill="none" stroke="black" d="M263.64,-73.5C273.34,-73.5 282.52,-73.5 290.74,-73.5"/>
<polygon fill="black" stroke="black" points="290.94,-77 300.94,-73.5 290.94,-70 290.94,-77"/>
</g>
<!-- 140467622738960 -->
<g id="node6" class="node">
<title>140467622738960</title>
<polygon fill="none" stroke="black" points="0,-0.5 0,-36.5 265,-36.5 265,-0.5 0,-0.5"/>
<text text-anchor="middle" x="132.5" y="-14.8" font-family="Times,serif" font-size="14.00">Value(label=w1, data=&#45;3.0000, grad=1.0000)</text>
</g>
<!-- 140467622738960&#45;&gt;140467623187664* -->
<g id="edge10" class="edge">
<title>140467622738960&#45;&gt;140467623187664*</title>
<path fill="none" stroke="black" d="M233.2,-36.53C244.02,-39.21 254.8,-42.2 265,-45.5 275.73,-48.98 287.08,-53.75 297.1,-58.38"/>
<polygon fill="black" stroke="black" points="295.69,-61.59 306.23,-62.72 298.7,-55.27 295.69,-61.59"/>
</g>
<!-- 140467605268048 -->
<g id="node7" class="node">
<title>140467605268048</title>
<polygon fill="none" stroke="black" points="4,-165.5 4,-201.5 261,-201.5 261,-165.5 4,-165.5"/>
<text text-anchor="middle" x="132.5" y="-179.8" font-family="Times,serif" font-size="14.00">Value(label=x2, data=0.0000, grad=0.5000)</text>
</g>
<!-- 140467605525648* -->
<g id="node9" class="node">
<title>140467605525648*</title>
<ellipse fill="none" stroke="black" cx="328" cy="-128.5" rx="27" ry="18"/>
<text text-anchor="middle" x="328" y="-124.8" font-family="Times,serif" font-size="14.00">*</text>
</g>
<!-- 140467605268048&#45;&gt;140467605525648* -->
<g id="edge11" class="edge">
<title>140467605268048&#45;&gt;140467605525648*</title>
<path fill="none" stroke="black" d="M233.2,-165.47C244.02,-162.79 254.8,-159.8 265,-156.5 275.73,-153.02 287.08,-148.25 297.1,-143.62"/>
<polygon fill="black" stroke="black" points="298.7,-146.73 306.23,-139.28 295.69,-140.41 298.7,-146.73"/>
</g>
<!-- 140467605525648 -->
<g id="node8" class="node">
<title>140467605525648</title>
<polygon fill="none" stroke="black" points="393,-110.5 393,-146.5 667,-146.5 667,-110.5 393,-110.5"/>
<text text-anchor="middle" x="530" y="-124.8" font-family="Times,serif" font-size="14.00">Value(label=x2w2, data=0.0000, grad=0.5000)</text>
</g>
<!-- 140467605525648&#45;&gt;140467617882064+ -->
<g id="edge12" class="edge">
<title>140467605525648&#45;&gt;140467617882064+</title>
<path fill="none" stroke="black" d="M659.64,-110.49C672.61,-108.67 684.87,-106.96 695.46,-105.48"/>
<polygon fill="black" stroke="black" points="696.03,-108.93 705.45,-104.08 695.06,-102 696.03,-108.93"/>
</g>
<!-- 140467605525648*&#45;&gt;140467605525648 -->
<g id="edge3" class="edge">
<title>140467605525648*&#45;&gt;140467605525648</title>
<path fill="none" stroke="black" d="M355.15,-128.5C363.01,-128.5 372.25,-128.5 382.3,-128.5"/>
<polygon fill="black" stroke="black" points="382.59,-132 392.59,-128.5 382.59,-125 382.59,-132"/>
</g>
<!-- 140467619972816 -->
<g id="node10" class="node">
<title>140467619972816</title>
<polygon fill="none" stroke="black" points="2.5,-110.5 2.5,-146.5 262.5,-146.5 262.5,-110.5 2.5,-110.5"/>
<text text-anchor="middle" x="132.5" y="-124.8" font-family="Times,serif" font-size="14.00">Value(label=w2, data=1.0000, grad=0.0000)</text>
</g>
<!-- 140467619972816&#45;&gt;140467605525648* -->
<g id="edge6" class="edge">
<title>140467619972816&#45;&gt;140467605525648*</title>
<path fill="none" stroke="black" d="M262.57,-128.5C272.61,-128.5 282.13,-128.5 290.61,-128.5"/>
<polygon fill="black" stroke="black" points="290.77,-132 300.77,-128.5 290.77,-125 290.77,-132"/>
</g>
<!-- 140467623187664 -->
<g id="node11" class="node">
<title>140467623187664</title>
<polygon fill="none" stroke="black" points="391,-55.5 391,-91.5 669,-91.5 669,-55.5 391,-55.5"/>
<text text-anchor="middle" x="530" y="-69.8" font-family="Times,serif" font-size="14.00">Value(label=x1w1, data=&#45;6.0000, grad=0.5000)</text>
</g>
<!-- 140467623187664&#45;&gt;140467617882064+ -->
<g id="edge9" class="edge">
<title>140467623187664&#45;&gt;140467617882064+</title>
<path fill="none" stroke="black" d="M664.4,-91.51C675.65,-93.03 686.26,-94.46 695.56,-95.72"/>
<polygon fill="black" stroke="black" points="695.1,-99.19 705.48,-97.05 696.04,-92.25 695.1,-99.19"/>
</g>
<!-- 140467623187664*&#45;&gt;140467623187664 -->
<g id="edge4" class="edge">
<title>140467623187664*&#45;&gt;140467623187664</title>
<path fill="none" stroke="black" d="M355.15,-73.5C362.61,-73.5 371.32,-73.5 380.78,-73.5"/>
<polygon fill="black" stroke="black" points="380.9,-77 390.9,-73.5 380.9,-70 380.9,-77"/>
</g>
<!-- 140467625231824 -->
<g id="node13" class="node">
<title>140467625231824</title>
<polygon fill="none" stroke="black" points="1245,-54.5 1245,-90.5 1496,-90.5 1496,-54.5 1245,-54.5"/>
<text text-anchor="middle" x="1370.5" y="-68.8" font-family="Times,serif" font-size="14.00">Value(label=n, data=0.8814, grad=0.5000)</text>
</g>
<!-- 140467625231824&#45;&gt;140467605148176tanh -->
<g id="edge14" class="edge">
<title>140467625231824&#45;&gt;140467605148176tanh</title>
<path fill="none" stroke="black" d="M1496.16,-72.5C1505.31,-72.5 1514.01,-72.5 1521.84,-72.5"/>
<polygon fill="black" stroke="black" points="1521.93,-76 1531.93,-72.5 1521.93,-69 1521.93,-76"/>
</g>
<!-- 140467625231824+&#45;&gt;140467625231824 -->
<g id="edge5" class="edge">
<title>140467625231824+&#45;&gt;140467625231824</title>
<path fill="none" stroke="black" d="M1209.33,-72.5C1216.7,-72.5 1225.25,-72.5 1234.5,-72.5"/>
<polygon fill="black" stroke="black" points="1234.77,-76 1244.77,-72.5 1234.77,-69 1234.77,-76"/>
</g>
<!-- 140467619983824 -->
<g id="node15" class="node">
<title>140467619983824</title>
<polygon fill="none" stroke="black" points="831.5,-27.5 831.5,-63.5 1082.5,-63.5 1082.5,-27.5 831.5,-27.5"/>
<text text-anchor="middle" x="957" y="-41.8" font-family="Times,serif" font-size="14.00">Value(label=b, data=6.8814, grad=0.5000)</text>
</g>
<!-- 140467619983824&#45;&gt;140467625231824+ -->
<g id="edge8" class="edge">
<title>140467619983824&#45;&gt;140467625231824+</title>
<path fill="none" stroke="black" d="M1082.54,-60.58C1105.34,-63.34 1127.41,-66.01 1144.85,-68.12"/>
<polygon fill="black" stroke="black" points="1144.73,-71.63 1155.08,-69.36 1145.57,-64.68 1144.73,-71.63"/>
</g>
</g>
</svg>
