<?xml version="1.0" encoding="UTF-8" standalone="no"?>
<!DOCTYPE svg PUBLIC "-//W3C//DTD SVG 1.1//EN"
 "http://www.w3.org/Graphics/SVG/1.1/DTD/svg11.dtd">
<!-- Generated by graphviz version 5.0.0 (0)
 -->
<!-- Pages: 1 -->
<svg width="512pt" height="127pt"
 viewBox="0.00 0.00 512.00 127.00" xmlns="http://www.w3.org/2000/svg" xmlns:xlink="http://www.w3.org/1999/xlink">
<g id="graph0" class="graph" transform="scale(1 1) rotate(0) translate(4 123)">
<polygon fill="white" stroke="transparent" points="-4,4 -4,-123 508,-123 508,4 -4,4"/>
<!-- 140674842970704 -->
<g id="node1" class="node">
<title>140674842970704</title>
<polygon fill="none" stroke="black" points="211,-82.5 211,-118.5 298,-118.5 298,-82.5 211,-82.5"/>
<text text-anchor="middle" x="254.5" y="-96.8" font-family="Times,serif" font-size="14.00">data 10.0000</text>
</g>
<!-- 140674842972944+ -->
<g id="node4" class="node">
<title>140674842972944+</title>
<ellipse fill="none" stroke="black" cx="361" cy="-72.5" rx="27" ry="18"/>
<text text-anchor="middle" x="361" y="-68.8" font-family="Times,serif" font-size="14.00">+</text>
</g>
<!-- 140674842970704&#45;&gt;140674842972944+ -->
<g id="edge6" class="edge">
<title>140674842970704&#45;&gt;140674842972944+</title>
<path fill="none" stroke="black" d="M298,-89.11C307.18,-86.65 316.78,-84.08 325.6,-81.72"/>
<polygon fill="black" stroke="black" points="326.78,-85.02 335.53,-79.06 324.97,-78.26 326.78,-85.02"/>
</g>
<!-- 140674842761872 -->
<g id="node2" class="node">
<title>140674842761872</title>
<polygon fill="none" stroke="black" points="2.5,-55.5 2.5,-91.5 82.5,-91.5 82.5,-55.5 2.5,-55.5"/>
<text text-anchor="middle" x="42.5" y="-69.8" font-family="Times,serif" font-size="14.00">data 2.0000</text>
</g>
<!-- 140674842973008* -->
<g id="node7" class="node">
<title>140674842973008*</title>
<ellipse fill="none" stroke="black" cx="148" cy="-45.5" rx="27" ry="18"/>
<text text-anchor="middle" x="148" y="-41.8" font-family="Times,serif" font-size="14.00">*</text>
</g>
<!-- 140674842761872&#45;&gt;140674842973008* -->
<g id="edge5" class="edge">
<title>140674842761872&#45;&gt;140674842973008*</title>
<path fill="none" stroke="black" d="M82.63,-62.91C92.66,-60.2 103.36,-57.31 113.09,-54.67"/>
<polygon fill="black" stroke="black" points="114.09,-58.03 122.83,-52.04 112.26,-51.27 114.09,-58.03"/>
</g>
<!-- 140674842972944 -->
<g id="node3" class="node">
<title>140674842972944</title>
<polygon fill="none" stroke="black" points="424,-54.5 424,-90.5 504,-90.5 504,-54.5 424,-54.5"/>
<text text-anchor="middle" x="464" y="-68.8" font-family="Times,serif" font-size="14.00">data 4.0000</text>
</g>
<!-- 140674842972944+&#45;&gt;140674842972944 -->
<g id="edge1" class="edge">
<title>140674842972944+&#45;&gt;140674842972944</title>
<path fill="none" stroke="black" d="M388.01,-72.5C395.82,-72.5 404.67,-72.5 413.48,-72.5"/>
<polygon fill="black" stroke="black" points="413.73,-76 423.73,-72.5 413.73,-69 413.73,-76"/>
</g>
<!-- 140674842969424 -->
<g id="node5" class="node">
<title>140674842969424</title>
<polygon fill="none" stroke="black" points="0,-0.5 0,-36.5 85,-36.5 85,-0.5 0,-0.5"/>
<text text-anchor="middle" x="42.5" y="-14.8" font-family="Times,serif" font-size="14.00">data &#45;3.0000</text>
</g>
<!-- 140674842969424&#45;&gt;140674842973008* -->
<g id="edge3" class="edge">
<title>140674842969424&#45;&gt;140674842973008*</title>
<path fill="none" stroke="black" d="M85,-29.33C94.14,-31.71 103.72,-34.21 112.54,-36.51"/>
<polygon fill="black" stroke="black" points="111.91,-39.96 122.47,-39.1 113.68,-33.19 111.91,-39.96"/>
</g>
<!-- 140674842973008 -->
<g id="node6" class="node">
<title>140674842973008</title>
<polygon fill="none" stroke="black" points="212,-27.5 212,-63.5 297,-63.5 297,-27.5 212,-27.5"/>
<text text-anchor="middle" x="254.5" y="-41.8" font-family="Times,serif" font-size="14.00">data &#45;6.0000</text>
</g>
<!-- 140674842973008&#45;&gt;140674842972944+ -->
<g id="edge4" class="edge">
<title>140674842973008&#45;&gt;140674842972944+</title>
<path fill="none" stroke="black" d="M297.1,-56.25C306.61,-58.71 316.62,-61.29 325.78,-63.66"/>
<polygon fill="black" stroke="black" points="325.13,-67.11 335.69,-66.22 326.88,-60.33 325.13,-67.11"/>
</g>
<!-- 140674842973008*&#45;&gt;140674842973008 -->
<g id="edge2" class="edge">
<title>140674842973008*&#45;&gt;140674842973008</title>
<path fill="none" stroke="black" d="M175.1,-45.5C183.27,-45.5 192.59,-45.5 201.88,-45.5"/>
<polygon fill="black" stroke="black" points="201.89,-49 211.89,-45.5 201.89,-42 201.89,-49"/>
</g>
</g>
</svg>
