<?xml version="1.0" encoding="UTF-8" standalone="no"?>
<!DOCTYPE svg PUBLIC "-//W3C//DTD SVG 1.1//EN"
 "http://www.w3.org/Graphics/SVG/1.1/DTD/svg11.dtd">
<!-- Generated by graphviz version 5.0.0 (0)
 -->
<!-- Pages: 1 -->
<svg width="1419pt" height="128pt"
 viewBox="0.00 0.00 1419.00 128.00" xmlns="http://www.w3.org/2000/svg" xmlns:xlink="http://www.w3.org/1999/xlink">
<g id="graph0" class="graph" transform="scale(1 1) rotate(0) translate(4 124)">
<polygon fill="white" stroke="transparent" points="-4,4 -4,-124 1415,-124 1415,4 -4,4"/>
<!-- 140588240835088 -->
<g id="node1" class="node">
<title>140588240835088</title>
<polygon fill="none" stroke="black" points="386,-83.5 386,-119.5 647,-119.5 647,-83.5 386,-83.5"/>
<text text-anchor="middle" x="516.5" y="-97.8" font-family="Times,serif" font-size="14.00">Value(label=c, data=10.0000, grad=&#45;2.0000)</text>
</g>
<!-- 140588240839056+ -->
<g id="node9" class="node">
<title>140588240839056+</title>
<ellipse fill="none" stroke="black" cx="710" cy="-73.5" rx="27" ry="18"/>
<text text-anchor="middle" x="710" y="-69.8" font-family="Times,serif" font-size="14.00">+</text>
</g>
<!-- 140588240835088&#45;&gt;140588240839056+ -->
<g id="edge8" class="edge">
<title>140588240835088&#45;&gt;140588240839056+</title>
<path fill="none" stroke="black" d="M640.68,-83.49C652.41,-81.77 663.54,-80.15 673.28,-78.72"/>
<polygon fill="black" stroke="black" points="673.88,-82.17 683.27,-77.26 672.86,-75.25 673.88,-82.17"/>
</g>
<!-- 140588255956624 -->
<g id="node2" class="node">
<title>140588255956624</title>
<polygon fill="none" stroke="black" points="5,-56.5 5,-92.5 255,-92.5 255,-56.5 5,-56.5"/>
<text text-anchor="middle" x="130" y="-70.8" font-family="Times,serif" font-size="14.00">Value(label=a, data=2.0000, grad=6.0000)</text>
</g>
<!-- 140588240837008* -->
<g id="node4" class="node">
<title>140588240837008*</title>
<ellipse fill="none" stroke="black" cx="323" cy="-46.5" rx="27" ry="18"/>
<text text-anchor="middle" x="323" y="-42.8" font-family="Times,serif" font-size="14.00">*</text>
</g>
<!-- 140588255956624&#45;&gt;140588240837008* -->
<g id="edge7" class="edge">
<title>140588255956624&#45;&gt;140588240837008*</title>
<path fill="none" stroke="black" d="M253.85,-56.49C265.55,-54.77 276.65,-53.15 286.37,-51.72"/>
<polygon fill="black" stroke="black" points="286.95,-55.18 296.33,-50.26 285.93,-48.25 286.95,-55.18"/>
</g>
<!-- 140588240837008 -->
<g id="node3" class="node">
<title>140588240837008</title>
<polygon fill="none" stroke="black" points="387,-28.5 387,-64.5 646,-64.5 646,-28.5 387,-28.5"/>
<text text-anchor="middle" x="516.5" y="-42.8" font-family="Times,serif" font-size="14.00">Value(label=e, data=&#45;6.0000, grad=&#45;2.0000)</text>
</g>
<!-- 140588240837008&#45;&gt;140588240839056+ -->
<g id="edge5" class="edge">
<title>140588240837008&#45;&gt;140588240839056+</title>
<path fill="none" stroke="black" d="M645.23,-64.51C655.27,-65.92 664.77,-67.26 673.23,-68.46"/>
<polygon fill="black" stroke="black" points="672.96,-71.95 683.35,-69.88 673.93,-65.02 672.96,-71.95"/>
</g>
<!-- 140588240837008*&#45;&gt;140588240837008 -->
<g id="edge1" class="edge">
<title>140588240837008*&#45;&gt;140588240837008</title>
<path fill="none" stroke="black" d="M350.23,-46.5C357.99,-46.5 367.07,-46.5 376.91,-46.5"/>
<polygon fill="black" stroke="black" points="376.98,-50 386.98,-46.5 376.98,-43 376.98,-50"/>
</g>
<!-- 140588240836944 -->
<g id="node5" class="node">
<title>140588240836944</title>
<polygon fill="none" stroke="black" points="1154,-27.5 1154,-63.5 1411,-63.5 1411,-27.5 1154,-27.5"/>
<text text-anchor="middle" x="1282.5" y="-41.8" font-family="Times,serif" font-size="14.00">Value(label=L, data=&#45;8.0000, grad=1.0000)</text>
</g>
<!-- 140588240836944* -->
<g id="node6" class="node">
<title>140588240836944*</title>
<ellipse fill="none" stroke="black" cx="1091" cy="-45.5" rx="27" ry="18"/>
<text text-anchor="middle" x="1091" y="-41.8" font-family="Times,serif" font-size="14.00">*</text>
</g>
<!-- 140588240836944*&#45;&gt;140588240836944 -->
<g id="edge2" class="edge">
<title>140588240836944*&#45;&gt;140588240836944</title>
<path fill="none" stroke="black" d="M1118.35,-45.5C1125.82,-45.5 1134.51,-45.5 1143.91,-45.5"/>
<polygon fill="black" stroke="black" points="1143.94,-49 1153.94,-45.5 1143.94,-42 1143.94,-49"/>
</g>
<!-- 140588242153872 -->
<g id="node7" class="node">
<title>140588242153872</title>
<polygon fill="none" stroke="black" points="0,-1.5 0,-37.5 260,-37.5 260,-1.5 0,-1.5"/>
<text text-anchor="middle" x="130" y="-15.8" font-family="Times,serif" font-size="14.00">Value(label=b, data=&#45;3.0000, grad=&#45;4.0000)</text>
</g>
<!-- 140588242153872&#45;&gt;140588240837008* -->
<g id="edge4" class="edge">
<title>140588242153872&#45;&gt;140588240837008*</title>
<path fill="none" stroke="black" d="M258.4,-37.51C268.41,-38.92 277.89,-40.26 286.32,-41.46"/>
<polygon fill="black" stroke="black" points="286.02,-44.95 296.41,-42.88 287,-38.02 286.02,-44.95"/>
</g>
<!-- 140588240839056 -->
<g id="node8" class="node">
<title>140588240839056</title>
<polygon fill="none" stroke="black" points="773,-55.5 773,-91.5 1028,-91.5 1028,-55.5 773,-55.5"/>
<text text-anchor="middle" x="900.5" y="-69.8" font-family="Times,serif" font-size="14.00">Value(label=d, data=4.0000, grad=&#45;2.0000)</text>
</g>
<!-- 140588240839056&#45;&gt;140588240836944* -->
<g id="edge6" class="edge">
<title>140588240839056&#45;&gt;140588240836944*</title>
<path fill="none" stroke="black" d="M1022.75,-55.49C1034.07,-53.81 1044.82,-52.21 1054.27,-50.81"/>
<polygon fill="black" stroke="black" points="1054.97,-54.24 1064.35,-49.31 1053.95,-47.32 1054.97,-54.24"/>
</g>
<!-- 140588240839056+&#45;&gt;140588240839056 -->
<g id="edge3" class="edge">
<title>140588240839056+&#45;&gt;140588240839056</title>
<path fill="none" stroke="black" d="M737.21,-73.5C744.56,-73.5 753.1,-73.5 762.34,-73.5"/>
<polygon fill="black" stroke="black" points="762.62,-77 772.62,-73.5 762.62,-70 762.62,-77"/>
</g>
<!-- 140588240836560 -->
<g id="node10" class="node">
<title>140588240836560</title>
<polygon fill="none" stroke="black" points="774,-0.5 774,-36.5 1027,-36.5 1027,-0.5 774,-0.5"/>
<text text-anchor="middle" x="900.5" y="-14.8" font-family="Times,serif" font-size="14.00">Value(label=f, data=&#45;2.0000, grad=4.0000)</text>
</g>
<!-- 140588240836560&#45;&gt;140588240836944* -->
<g id="edge9" class="edge">
<title>140588240836560&#45;&gt;140588240836944*</title>
<path fill="none" stroke="black" d="M1027.23,-36.51C1036.91,-37.89 1046.08,-39.21 1054.27,-40.38"/>
<polygon fill="black" stroke="black" points="1054.05,-43.89 1064.45,-41.84 1055.04,-36.96 1054.05,-43.89"/>
</g>
</g>
</svg>
