<?xml version="1.0" encoding="UTF-8" standalone="no"?>
<!DOCTYPE svg PUBLIC "-//W3C//DTD SVG 1.1//EN"
 "http://www.w3.org/Graphics/SVG/1.1/DTD/svg11.dtd">
<!-- Generated by graphviz version 5.0.0 (0)
 -->
<!-- Pages: 1 -->
<svg width="1419pt" height="128pt"
 viewBox="0.00 0.00 1419.00 128.00" xmlns="http://www.w3.org/2000/svg" xmlns:xlink="http://www.w3.org/1999/xlink">
<g id="graph0" class="graph" transform="scale(1 1) rotate(0) translate(4 124)">
<polygon fill="white" stroke="transparent" points="-4,4 -4,-124 1415,-124 1415,4 -4,4"/>
<!-- 139794905467984 -->
<g id="node1" class="node">
<title>139794905467984</title>
<polygon fill="none" stroke="black" points="774,-82.5 774,-118.5 1027,-118.5 1027,-82.5 774,-82.5"/>
<text text-anchor="middle" x="900.5" y="-96.8" font-family="Times,serif" font-size="14.00">Value(label=f, data=&#45;2.0000, grad=4.0000)</text>
</g>
<!-- 139794902122384* -->
<g id="node10" class="node">
<title>139794902122384*</title>
<ellipse fill="none" stroke="black" cx="1091" cy="-72.5" rx="27" ry="18"/>
<text text-anchor="middle" x="1091" y="-68.8" font-family="Times,serif" font-size="14.00">*</text>
</g>
<!-- 139794905467984&#45;&gt;139794902122384* -->
<g id="edge5" class="edge">
<title>139794905467984&#45;&gt;139794902122384*</title>
<path fill="none" stroke="black" d="M1022.75,-82.49C1034.07,-80.81 1044.82,-79.21 1054.27,-77.81"/>
<polygon fill="black" stroke="black" points="1054.97,-81.24 1064.35,-76.31 1053.95,-74.32 1054.97,-81.24"/>
</g>
<!-- 139794902226128 -->
<g id="node2" class="node">
<title>139794902226128</title>
<polygon fill="none" stroke="black" points="387,-55.5 387,-91.5 646,-91.5 646,-55.5 387,-55.5"/>
<text text-anchor="middle" x="516.5" y="-69.8" font-family="Times,serif" font-size="14.00">Value(label=e, data=&#45;6.0000, grad=&#45;2.0000)</text>
</g>
<!-- 139794905471760+ -->
<g id="node8" class="node">
<title>139794905471760+</title>
<ellipse fill="none" stroke="black" cx="710" cy="-45.5" rx="27" ry="18"/>
<text text-anchor="middle" x="710" y="-41.8" font-family="Times,serif" font-size="14.00">+</text>
</g>
<!-- 139794902226128&#45;&gt;139794905471760+ -->
<g id="edge8" class="edge">
<title>139794902226128&#45;&gt;139794905471760+</title>
<path fill="none" stroke="black" d="M640.68,-55.49C652.41,-53.77 663.54,-52.15 673.28,-50.72"/>
<polygon fill="black" stroke="black" points="673.88,-54.17 683.27,-49.26 672.86,-47.25 673.88,-54.17"/>
</g>
<!-- 139794902226128* -->
<g id="node3" class="node">
<title>139794902226128*</title>
<ellipse fill="none" stroke="black" cx="323" cy="-73.5" rx="27" ry="18"/>
<text text-anchor="middle" x="323" y="-69.8" font-family="Times,serif" font-size="14.00">*</text>
</g>
<!-- 139794902226128*&#45;&gt;139794902226128 -->
<g id="edge1" class="edge">
<title>139794902226128*&#45;&gt;139794902226128</title>
<path fill="none" stroke="black" d="M350.23,-73.5C357.99,-73.5 367.07,-73.5 376.91,-73.5"/>
<polygon fill="black" stroke="black" points="376.98,-77 386.98,-73.5 376.98,-70 376.98,-77"/>
</g>
<!-- 139794899886800 -->
<g id="node4" class="node">
<title>139794899886800</title>
<polygon fill="none" stroke="black" points="386,-0.5 386,-36.5 647,-36.5 647,-0.5 386,-0.5"/>
<text text-anchor="middle" x="516.5" y="-14.8" font-family="Times,serif" font-size="14.00">Value(label=c, data=10.0000, grad=&#45;2.0000)</text>
</g>
<!-- 139794899886800&#45;&gt;139794905471760+ -->
<g id="edge7" class="edge">
<title>139794899886800&#45;&gt;139794905471760+</title>
<path fill="none" stroke="black" d="M645.23,-36.51C655.27,-37.92 664.77,-39.26 673.23,-40.46"/>
<polygon fill="black" stroke="black" points="672.96,-43.95 683.35,-41.88 673.93,-37.02 672.96,-43.95"/>
</g>
<!-- 139794902257360 -->
<g id="node5" class="node">
<title>139794902257360</title>
<polygon fill="none" stroke="black" points="5,-83.5 5,-119.5 255,-119.5 255,-83.5 5,-83.5"/>
<text text-anchor="middle" x="130" y="-97.8" font-family="Times,serif" font-size="14.00">Value(label=a, data=2.0000, grad=6.0000)</text>
</g>
<!-- 139794902257360&#45;&gt;139794902226128* -->
<g id="edge6" class="edge">
<title>139794902257360&#45;&gt;139794902226128*</title>
<path fill="none" stroke="black" d="M253.85,-83.49C265.55,-81.77 276.65,-80.15 286.37,-78.72"/>
<polygon fill="black" stroke="black" points="286.95,-82.18 296.33,-77.26 285.93,-75.25 286.95,-82.18"/>
</g>
<!-- 139794905097936 -->
<g id="node6" class="node">
<title>139794905097936</title>
<polygon fill="none" stroke="black" points="0,-28.5 0,-64.5 260,-64.5 260,-28.5 0,-28.5"/>
<text text-anchor="middle" x="130" y="-42.8" font-family="Times,serif" font-size="14.00">Value(label=b, data=&#45;3.0000, grad=&#45;4.0000)</text>
</g>
<!-- 139794905097936&#45;&gt;139794902226128* -->
<g id="edge4" class="edge">
<title>139794905097936&#45;&gt;139794902226128*</title>
<path fill="none" stroke="black" d="M258.4,-64.51C268.41,-65.92 277.89,-67.26 286.32,-68.46"/>
<polygon fill="black" stroke="black" points="286.02,-71.95 296.41,-69.88 287,-65.02 286.02,-71.95"/>
</g>
<!-- 139794905471760 -->
<g id="node7" class="node">
<title>139794905471760</title>
<polygon fill="none" stroke="black" points="773,-27.5 773,-63.5 1028,-63.5 1028,-27.5 773,-27.5"/>
<text text-anchor="middle" x="900.5" y="-41.8" font-family="Times,serif" font-size="14.00">Value(label=d, data=4.0000, grad=&#45;2.0000)</text>
</g>
<!-- 139794905471760&#45;&gt;139794902122384* -->
<g id="edge9" class="edge">
<title>139794905471760&#45;&gt;139794902122384*</title>
<path fill="none" stroke="black" d="M1027.23,-63.51C1036.91,-64.89 1046.08,-66.21 1054.27,-67.38"/>
<polygon fill="black" stroke="black" points="1054.05,-70.89 1064.45,-68.84 1055.04,-63.96 1054.05,-70.89"/>
</g>
<!-- 139794905471760+&#45;&gt;139794905471760 -->
<g id="edge2" class="edge">
<title>139794905471760+&#45;&gt;139794905471760</title>
<path fill="none" stroke="black" d="M737.21,-45.5C744.56,-45.5 753.1,-45.5 762.34,-45.5"/>
<polygon fill="black" stroke="black" points="762.62,-49 772.62,-45.5 762.62,-42 762.62,-49"/>
</g>
<!-- 139794902122384 -->
<g id="node9" class="node">
<title>139794902122384</title>
<polygon fill="none" stroke="black" points="1154,-54.5 1154,-90.5 1411,-90.5 1411,-54.5 1154,-54.5"/>
<text text-anchor="middle" x="1282.5" y="-68.8" font-family="Times,serif" font-size="14.00">Value(label=L, data=&#45;8.0000, grad=1.0000)</text>
</g>
<!-- 139794902122384*&#45;&gt;139794902122384 -->
<g id="edge3" class="edge">
<title>139794902122384*&#45;&gt;139794902122384</title>
<path fill="none" stroke="black" d="M1118.35,-72.5C1125.82,-72.5 1134.51,-72.5 1143.91,-72.5"/>
<polygon fill="black" stroke="black" points="1143.94,-76 1153.94,-72.5 1143.94,-69 1143.94,-76"/>
</g>
</g>
</svg>
