<?xml version="1.0" encoding="UTF-8" standalone="no"?>
<!DOCTYPE svg PUBLIC "-//W3C//DTD SVG 1.1//EN"
 "http://www.w3.org/Graphics/SVG/1.1/DTD/svg11.dtd">
<!-- Generated by graphviz version 5.0.0 (0)
 -->
<!-- Pages: 1 -->
<svg width="605pt" height="127pt"
 viewBox="0.00 0.00 605.00 127.00" xmlns="http://www.w3.org/2000/svg" xmlns:xlink="http://www.w3.org/1999/xlink">
<g id="graph0" class="graph" transform="scale(1 1) rotate(0) translate(4 123)">
<polygon fill="white" stroke="transparent" points="-4,4 -4,-123 601,-123 601,4 -4,4"/>
<!-- 140301243530384 -->
<g id="node1" class="node">
<title>140301243530384</title>
<polygon fill="none" stroke="black" points="242,-82.5 242,-118.5 360,-118.5 360,-82.5 242,-82.5"/>
<text text-anchor="middle" x="301" y="-96.8" font-family="Times,serif" font-size="14.00">Value(data=10.00)</text>
</g>
<!-- 140301241469712+ -->
<g id="node6" class="node">
<title>140301241469712+</title>
<ellipse fill="none" stroke="black" cx="423" cy="-72.5" rx="27" ry="18"/>
<text text-anchor="middle" x="423" y="-68.8" font-family="Times,serif" font-size="14.00">+</text>
</g>
<!-- 140301243530384&#45;&gt;140301241469712+ -->
<g id="edge3" class="edge">
<title>140301243530384&#45;&gt;140301241469712+</title>
<path fill="none" stroke="black" d="M360.24,-86.91C369.5,-84.75 378.81,-82.58 387.29,-80.6"/>
<polygon fill="black" stroke="black" points="388.23,-83.97 397.17,-78.29 386.64,-77.16 388.23,-83.97"/>
</g>
<!-- 140301241469648 -->
<g id="node2" class="node">
<title>140301241469648</title>
<polygon fill="none" stroke="black" points="243,-27.5 243,-63.5 359,-63.5 359,-27.5 243,-27.5"/>
<text text-anchor="middle" x="301" y="-41.8" font-family="Times,serif" font-size="14.00">Value(data=&#45;6.00)</text>
</g>
<!-- 140301241469648&#45;&gt;140301241469712+ -->
<g id="edge4" class="edge">
<title>140301241469648&#45;&gt;140301241469712+</title>
<path fill="none" stroke="black" d="M359.19,-58.37C368.82,-60.53 378.55,-62.72 387.38,-64.71"/>
<polygon fill="black" stroke="black" points="386.75,-68.16 397.27,-66.94 388.28,-61.33 386.75,-68.16"/>
</g>
<!-- 140301241469648* -->
<g id="node3" class="node">
<title>140301241469648*</title>
<ellipse fill="none" stroke="black" cx="179" cy="-45.5" rx="27" ry="18"/>
<text text-anchor="middle" x="179" y="-41.8" font-family="Times,serif" font-size="14.00">*</text>
</g>
<!-- 140301241469648*&#45;&gt;140301241469648 -->
<g id="edge1" class="edge">
<title>140301241469648*&#45;&gt;140301241469648</title>
<path fill="none" stroke="black" d="M206.04,-45.5C214.04,-45.5 223.24,-45.5 232.68,-45.5"/>
<polygon fill="black" stroke="black" points="232.98,-49 242.98,-45.5 232.98,-42 232.98,-49"/>
</g>
<!-- 140301241231568 -->
<g id="node4" class="node">
<title>140301241231568</title>
<polygon fill="none" stroke="black" points="2.5,-55.5 2.5,-91.5 113.5,-91.5 113.5,-55.5 2.5,-55.5"/>
<text text-anchor="middle" x="58" y="-69.8" font-family="Times,serif" font-size="14.00">Value(data=2.00)</text>
</g>
<!-- 140301241231568&#45;&gt;140301241469648* -->
<g id="edge6" class="edge">
<title>140301241231568&#45;&gt;140301241469648*</title>
<path fill="none" stroke="black" d="M113.62,-60.65C123.85,-58.24 134.28,-55.79 143.68,-53.58"/>
<polygon fill="black" stroke="black" points="144.48,-56.98 153.41,-51.29 142.87,-50.17 144.48,-56.98"/>
</g>
<!-- 140301241469712 -->
<g id="node5" class="node">
<title>140301241469712</title>
<polygon fill="none" stroke="black" points="486,-54.5 486,-90.5 597,-90.5 597,-54.5 486,-54.5"/>
<text text-anchor="middle" x="541.5" y="-68.8" font-family="Times,serif" font-size="14.00">Value(data=4.00)</text>
</g>
<!-- 140301241469712+&#45;&gt;140301241469712 -->
<g id="edge2" class="edge">
<title>140301241469712+&#45;&gt;140301241469712</title>
<path fill="none" stroke="black" d="M450.14,-72.5C457.85,-72.5 466.64,-72.5 475.64,-72.5"/>
<polygon fill="black" stroke="black" points="475.85,-76 485.85,-72.5 475.85,-69 475.85,-76"/>
</g>
<!-- 140301241232656 -->
<g id="node7" class="node">
<title>140301241232656</title>
<polygon fill="none" stroke="black" points="0,-0.5 0,-36.5 116,-36.5 116,-0.5 0,-0.5"/>
<text text-anchor="middle" x="58" y="-14.8" font-family="Times,serif" font-size="14.00">Value(data=&#45;3.00)</text>
</g>
<!-- 140301241232656&#45;&gt;140301241469648* -->
<g id="edge5" class="edge">
<title>140301241232656&#45;&gt;140301241469648*</title>
<path fill="none" stroke="black" d="M116.06,-31.45C125.3,-33.54 134.63,-35.66 143.14,-37.59"/>
<polygon fill="black" stroke="black" points="142.52,-41.04 153.05,-39.84 144.07,-34.21 142.52,-41.04"/>
</g>
</g>
</svg>
